G04 #@! TF.GenerationSoftware,KiCad,Pcbnew,5.1.4+dfsg1-1*
G04 #@! TF.CreationDate,2019-09-17T12:44:20+02:00*
G04 #@! TF.ProjectId,alpha,616c7068-612e-46b6-9963-61645f706362,rev?*
G04 #@! TF.SameCoordinates,Original*
G04 #@! TF.FileFunction,Paste,Top*
G04 #@! TF.FilePolarity,Positive*
%FSLAX46Y46*%
G04 Gerber Fmt 4.6, Leading zero omitted, Abs format (unit mm)*
G04 Created by KiCad (PCBNEW 5.1.4+dfsg1-1) date 2019-09-17 12:44:20*
%MOMM*%
%LPD*%
G04 APERTURE LIST*
%ADD10R,0.450000X0.600000*%
%ADD11R,1.300000X4.700000*%
%ADD12R,1.000000X6.000000*%
%ADD13R,6.000000X1.000000*%
%ADD14R,4.700000X1.300000*%
%ADD15R,7.700000X1.800000*%
%ADD16R,0.800000X0.900000*%
%ADD17R,1.560000X0.650000*%
%ADD18R,0.650000X0.650000*%
%ADD19R,1.450000X1.150000*%
%ADD20R,1.100000X1.750000*%
%ADD21R,1.750000X1.100000*%
%ADD22R,0.300000X0.450000*%
%ADD23R,1.800000X2.500000*%
%ADD24R,1.150000X1.450000*%
%ADD25R,0.650000X0.600000*%
%ADD26R,0.900000X0.800000*%
G04 APERTURE END LIST*
D10*
X23368000Y24418000D03*
X23368000Y22318000D03*
D11*
X5588000Y17354000D03*
X8128000Y17354000D03*
X10668000Y17354000D03*
X13208000Y17354000D03*
X15748000Y17354000D03*
X18288000Y17354000D03*
X20828000Y17354000D03*
X23368000Y17354000D03*
D12*
X3048000Y12204000D03*
X25908000Y12204000D03*
D13*
X60211000Y37732000D03*
D14*
X55061000Y40272000D03*
X55061000Y42812000D03*
D13*
X60211000Y45352000D03*
D11*
X31750000Y17354000D03*
X34290000Y17354000D03*
X36830000Y17354000D03*
X39370000Y17354000D03*
X41910000Y17354000D03*
X44450000Y17354000D03*
X46990000Y17354000D03*
X49530000Y17354000D03*
X52070000Y17354000D03*
X54610000Y17354000D03*
X57150000Y17354000D03*
X59690000Y17354000D03*
D12*
X29210000Y12204000D03*
X62230000Y12204000D03*
D15*
X35500000Y43800000D03*
X35500000Y38200000D03*
D16*
X33970000Y29956000D03*
X32070000Y29956000D03*
X33020000Y27956000D03*
X39050000Y29956000D03*
X37150000Y29956000D03*
X38100000Y27956000D03*
X44130000Y29956000D03*
X42230000Y29956000D03*
X43180000Y27956000D03*
X49210000Y29956000D03*
X47310000Y29956000D03*
X48260000Y27956000D03*
X54290000Y29956000D03*
X52390000Y29956000D03*
X53340000Y27956000D03*
X59370000Y29956000D03*
X57470000Y29956000D03*
X58420000Y27956000D03*
D17*
X44150000Y39907000D03*
X44150000Y40857000D03*
X44150000Y41807000D03*
X41450000Y41807000D03*
X41450000Y39907000D03*
X41450000Y40857000D03*
D18*
X31750000Y33586000D03*
X31750000Y34486000D03*
X36830000Y33586000D03*
X36830000Y34486000D03*
X41910000Y33586000D03*
X41910000Y34486000D03*
X46990000Y33586000D03*
X46990000Y34486000D03*
X52070000Y33586000D03*
X52070000Y34486000D03*
X57150000Y33586000D03*
X57150000Y34486000D03*
X22918000Y20828000D03*
X23818000Y20828000D03*
X20378000Y20828000D03*
X21278000Y20828000D03*
X17838000Y20828000D03*
X18738000Y20828000D03*
X15298000Y20828000D03*
X16198000Y20828000D03*
X12758000Y20828000D03*
X13658000Y20828000D03*
X10218000Y20828000D03*
X11118000Y20828000D03*
X7678000Y20828000D03*
X8578000Y20828000D03*
X5138000Y20828000D03*
X6038000Y20828000D03*
X9450000Y32000000D03*
X8550000Y32000000D03*
X9450000Y30750000D03*
X8550000Y30750000D03*
X9450000Y33250000D03*
X8550000Y33250000D03*
X43900000Y47650000D03*
X43900000Y48550000D03*
X37300000Y47650000D03*
X37300000Y48550000D03*
D19*
X50367000Y39486000D03*
X50367000Y37686000D03*
D20*
X54230000Y48146000D03*
X51230000Y48146000D03*
X46000000Y48100000D03*
X49000000Y48100000D03*
X39400000Y48100000D03*
X42400000Y48100000D03*
D18*
X31750000Y32200000D03*
X31750000Y31300000D03*
X36830000Y32200000D03*
X36830000Y31300000D03*
X41910000Y32200000D03*
X41910000Y31300000D03*
X46990000Y32200000D03*
X46990000Y31300000D03*
X52070000Y32200000D03*
X52070000Y31300000D03*
X57150000Y32200000D03*
X57150000Y31300000D03*
D21*
X33528000Y34520000D03*
X33528000Y31520000D03*
X38608000Y34520000D03*
X38608000Y31520000D03*
X43688000Y34520000D03*
X43688000Y31520000D03*
X48768000Y34520000D03*
X48768000Y31520000D03*
X53848000Y34520000D03*
X53848000Y31520000D03*
X58928000Y34520000D03*
X58928000Y31520000D03*
D18*
X56667000Y47823000D03*
X56667000Y48723000D03*
D22*
X3250000Y32700000D03*
X2250000Y32700000D03*
X3250000Y31300000D03*
X2750000Y32700000D03*
X2250000Y31300000D03*
X2750000Y31300000D03*
D23*
X33020000Y25622000D03*
X33020000Y21622000D03*
X38100000Y25622000D03*
X38100000Y21622000D03*
X43180000Y25622000D03*
X43180000Y21622000D03*
X48260000Y25622000D03*
X48260000Y21622000D03*
X58420000Y25622000D03*
X58420000Y21622000D03*
X53340000Y25622000D03*
X53340000Y21622000D03*
D24*
X42250000Y37857000D03*
X44050000Y37857000D03*
D19*
X48467000Y39486000D03*
X48467000Y37686000D03*
X35500000Y46100000D03*
X35500000Y47900000D03*
X33000000Y46100000D03*
X33000000Y47900000D03*
D18*
X40550000Y45606000D03*
X41450000Y45606000D03*
X42755000Y45479000D03*
X43655000Y45479000D03*
D25*
X40550000Y44500000D03*
X41450000Y44500000D03*
D26*
X48500000Y43950000D03*
X48500000Y42050000D03*
X50500000Y43000000D03*
D10*
X20828000Y24418000D03*
X20828000Y22318000D03*
X18288000Y22318000D03*
X18288000Y24418000D03*
X15748000Y22318000D03*
X15748000Y24418000D03*
X13208000Y24418000D03*
X13208000Y22318000D03*
X10668000Y22318000D03*
X10668000Y24418000D03*
X8128000Y24418000D03*
X8128000Y22318000D03*
X5588000Y22318000D03*
X5588000Y24418000D03*
M02*
