G04 #@! TF.GenerationSoftware,KiCad,Pcbnew,5.0.0-rc2+dfsg1-3*
G04 #@! TF.CreationDate,2018-07-01T00:11:55+02:00*
G04 #@! TF.ProjectId,alpha,616C7068612E6B696361645F70636200,rev?*
G04 #@! TF.SameCoordinates,Original*
G04 #@! TF.FileFunction,Copper,L2,Bot,Signal*
G04 #@! TF.FilePolarity,Positive*
%FSLAX46Y46*%
G04 Gerber Fmt 4.6, Leading zero omitted, Abs format (unit mm)*
G04 Created by KiCad (PCBNEW 5.0.0-rc2+dfsg1-3) date Sun Jul  1 00:11:55 2018*
%MOMM*%
%LPD*%
G01*
G04 APERTURE LIST*
G04 #@! TA.AperFunction,ComponentPad*
%ADD10R,1.700000X1.700000*%
G04 #@! TD*
G04 #@! TA.AperFunction,ComponentPad*
%ADD11O,1.700000X1.700000*%
G04 #@! TD*
G04 #@! TA.AperFunction,ViaPad*
%ADD12C,0.600000*%
G04 #@! TD*
G04 #@! TA.AperFunction,Conductor*
%ADD13C,0.500000*%
G04 #@! TD*
G04 #@! TA.AperFunction,Conductor*
%ADD14C,0.200000*%
G04 #@! TD*
G04 #@! TA.AperFunction,Conductor*
%ADD15C,0.150000*%
G04 #@! TD*
G04 APERTURE END LIST*
D10*
G04 #@! TO.P,P3,1*
G04 #@! TO.N,+3V3*
X208370000Y-98770000D03*
D11*
G04 #@! TO.P,P3,2*
G04 #@! TO.N,+5V*
X208370000Y-96230000D03*
G04 #@! TO.P,P3,3*
G04 #@! TO.N,/TMP102_SDA*
X210910000Y-98770000D03*
G04 #@! TO.P,P3,4*
G04 #@! TO.N,+5V*
X210910000Y-96230000D03*
G04 #@! TO.P,P3,5*
G04 #@! TO.N,/TMP102_SCL*
X213450000Y-98770000D03*
G04 #@! TO.P,P3,6*
G04 #@! TO.N,GND*
X213450000Y-96230000D03*
G04 #@! TO.P,P3,7*
G04 #@! TO.N,/TMP102_PWR*
X215990000Y-98770000D03*
G04 #@! TO.P,P3,8*
G04 #@! TO.N,/SERIAL_TX*
X215990000Y-96230000D03*
G04 #@! TO.P,P3,9*
G04 #@! TO.N,GND*
X218530000Y-98770000D03*
G04 #@! TO.P,P3,10*
G04 #@! TO.N,/SERIAL_RX*
X218530000Y-96230000D03*
G04 #@! TO.P,P3,11*
G04 #@! TO.N,/INPUT_8*
X221070000Y-98770000D03*
G04 #@! TO.P,P3,12*
G04 #@! TO.N,/INPUT_7*
X221070000Y-96230000D03*
G04 #@! TO.P,P3,13*
G04 #@! TO.N,/INPUT_6*
X223610000Y-98770000D03*
G04 #@! TO.P,P3,14*
G04 #@! TO.N,GND*
X223610000Y-96230000D03*
G04 #@! TO.P,P3,15*
G04 #@! TO.N,/INPUT_4*
X226150000Y-98770000D03*
G04 #@! TO.P,P3,16*
G04 #@! TO.N,/INPUT_5*
X226150000Y-96230000D03*
G04 #@! TO.P,P3,17*
G04 #@! TO.N,+3V3*
X228690000Y-98770000D03*
G04 #@! TO.P,P3,18*
G04 #@! TO.N,/INPUT_3*
X228690000Y-96230000D03*
G04 #@! TO.P,P3,19*
G04 #@! TO.N,/INPUT_2*
X231230000Y-98770000D03*
G04 #@! TO.P,P3,20*
G04 #@! TO.N,GND*
X231230000Y-96230000D03*
G04 #@! TO.P,P3,21*
G04 #@! TO.N,Net-(P3-Pad21)*
X233770000Y-98770000D03*
G04 #@! TO.P,P3,22*
G04 #@! TO.N,/INPUT_1*
X233770000Y-96230000D03*
G04 #@! TO.P,P3,23*
G04 #@! TO.N,Net-(P3-Pad23)*
X236310000Y-98770000D03*
G04 #@! TO.P,P3,24*
G04 #@! TO.N,Net-(P3-Pad24)*
X236310000Y-96230000D03*
G04 #@! TO.P,P3,25*
G04 #@! TO.N,GND*
X238850000Y-98770000D03*
G04 #@! TO.P,P3,26*
G04 #@! TO.N,Net-(P3-Pad26)*
X238850000Y-96230000D03*
G04 #@! TO.P,P3,27*
G04 #@! TO.N,Net-(P3-Pad27)*
X241390000Y-98770000D03*
G04 #@! TO.P,P3,28*
G04 #@! TO.N,Net-(P3-Pad28)*
X241390000Y-96230000D03*
G04 #@! TO.P,P3,29*
G04 #@! TO.N,Net-(P3-Pad29)*
X243930000Y-98770000D03*
G04 #@! TO.P,P3,30*
G04 #@! TO.N,GND*
X243930000Y-96230000D03*
G04 #@! TO.P,P3,31*
G04 #@! TO.N,/SWITCH_1*
X246470000Y-98770000D03*
G04 #@! TO.P,P3,32*
G04 #@! TO.N,/STATUS_LED_1*
X246470000Y-96230000D03*
G04 #@! TO.P,P3,33*
G04 #@! TO.N,/STATUS_LED_2*
X249010000Y-98770000D03*
G04 #@! TO.P,P3,34*
G04 #@! TO.N,GND*
X249010000Y-96230000D03*
G04 #@! TO.P,P3,35*
G04 #@! TO.N,/SWITCH_2*
X251550000Y-98770000D03*
G04 #@! TO.P,P3,36*
G04 #@! TO.N,/SWITCH_3*
X251550000Y-96230000D03*
G04 #@! TO.P,P3,37*
G04 #@! TO.N,/SWITCH_4*
X254090000Y-98770000D03*
G04 #@! TO.P,P3,38*
G04 #@! TO.N,/SWITCH_5*
X254090000Y-96230000D03*
G04 #@! TO.P,P3,39*
G04 #@! TO.N,GND*
X256630000Y-98770000D03*
G04 #@! TO.P,P3,40*
G04 #@! TO.N,/SWITCH_6*
X256630000Y-96230000D03*
G04 #@! TD*
D10*
G04 #@! TO.P,J1,1*
G04 #@! TO.N,+3V3*
X211000000Y-105040000D03*
D11*
G04 #@! TO.P,J1,2*
G04 #@! TO.N,+5V*
X208460000Y-105040000D03*
G04 #@! TO.P,J1,3*
G04 #@! TO.N,GND*
X211000000Y-102500000D03*
G04 #@! TO.P,J1,4*
X208460000Y-102500000D03*
G04 #@! TD*
D10*
G04 #@! TO.P,J2,1*
G04 #@! TO.N,+5V*
X214710000Y-102500000D03*
D11*
G04 #@! TO.P,J2,2*
G04 #@! TO.N,+3V3*
X217250000Y-102500000D03*
G04 #@! TO.P,J2,3*
G04 #@! TO.N,GND*
X219790000Y-102500000D03*
G04 #@! TO.P,J2,4*
G04 #@! TO.N,/SERIAL_TX*
X222330000Y-102500000D03*
G04 #@! TO.P,J2,5*
G04 #@! TO.N,/SERIAL_RX*
X224870000Y-102500000D03*
G04 #@! TD*
D12*
G04 #@! TO.N,+5V*
X230550000Y-107150000D03*
X230580000Y-105960000D03*
X230590000Y-104860000D03*
G04 #@! TO.N,GND*
X209500000Y-120500000D03*
X202000000Y-119500000D03*
X244750439Y-100999888D03*
X230480000Y-120028000D03*
X230480000Y-118758000D03*
X230480000Y-116472000D03*
X245720000Y-120028000D03*
X245720000Y-118758000D03*
X245720000Y-116472000D03*
X250800000Y-120028000D03*
X250800000Y-118758000D03*
X250800000Y-116472000D03*
X255880000Y-116472000D03*
X255880000Y-118758000D03*
X255880000Y-120028000D03*
X240640000Y-120028000D03*
X240640000Y-118758000D03*
X240640000Y-116472000D03*
X235560000Y-120028000D03*
X235560000Y-116472000D03*
X235560000Y-118758000D03*
X208500000Y-101000000D03*
X209750000Y-101000000D03*
X211000000Y-101000000D03*
X211750000Y-108250000D03*
X214250000Y-109750000D03*
X214250000Y-108250000D03*
X211750000Y-109750000D03*
G04 #@! TO.N,/SWITCH_1*
X233120002Y-119600000D03*
G04 #@! TO.N,/SWITCH_2*
X238200002Y-119600000D03*
G04 #@! TO.N,/SWITCH_3*
X243280002Y-119600000D03*
G04 #@! TO.N,/SWITCH_4*
X248360002Y-119600000D03*
G04 #@! TO.N,/SWITCH_5*
X253440002Y-119600000D03*
G04 #@! TO.N,/SWITCH_6*
X258520002Y-119600000D03*
X260604000Y-118491000D03*
G04 #@! TO.N,/TMP102_PWR*
X212513973Y-117224300D03*
X211250000Y-115971841D03*
X203957639Y-119258996D03*
X209500000Y-115750000D03*
X210500000Y-119250000D03*
G04 #@! TO.N,/SW*
X245250000Y-112143000D03*
X245750000Y-109643000D03*
X240000000Y-112750000D03*
X240000000Y-110750000D03*
X240000000Y-111750000D03*
X246660998Y-108643000D03*
X246660998Y-109643000D03*
X245750000Y-108643000D03*
X237000000Y-113250000D03*
X234000000Y-113250000D03*
X235500000Y-113250000D03*
G04 #@! TD*
D13*
G04 #@! TO.N,+3V3*
X212598000Y-100070001D02*
X214820001Y-100070001D01*
X209670001Y-100070001D02*
X212598000Y-100070001D01*
X212350000Y-105040000D02*
X211000000Y-105040000D01*
X212598000Y-100070001D02*
X212598000Y-104792000D01*
X212598000Y-104792000D02*
X212350000Y-105040000D01*
X208370000Y-98770000D02*
X209670001Y-100070001D01*
X214820001Y-100070001D02*
X216400001Y-101650001D01*
X216400001Y-101650001D02*
X217250000Y-102500000D01*
X228690000Y-98770000D02*
X227389999Y-100070001D01*
X227389999Y-100070001D02*
X219679999Y-100070001D01*
X219679999Y-100070001D02*
X218099999Y-101650001D01*
X218099999Y-101650001D02*
X217250000Y-102500000D01*
G04 #@! TO.N,+5V*
X209760001Y-106340001D02*
X214630000Y-106340001D01*
X214630000Y-106340001D02*
X217170000Y-106340001D01*
X214710000Y-103850000D02*
X214710000Y-106260001D01*
X214710000Y-106260001D02*
X214630000Y-106340001D01*
X208460000Y-105040000D02*
X207069999Y-103649999D01*
X207069999Y-103649999D02*
X207069999Y-97530001D01*
X207069999Y-97530001D02*
X207520001Y-97079999D01*
X207520001Y-97079999D02*
X208370000Y-96230000D01*
X217170000Y-106340001D02*
X229492893Y-106340001D01*
X214710000Y-102500000D02*
X214710000Y-103850000D01*
X208460000Y-105040000D02*
X209760001Y-106340001D01*
X229492893Y-106340001D02*
X229872894Y-105960000D01*
X229872894Y-105960000D02*
X230580000Y-105960000D01*
X210910000Y-96230000D02*
X208370000Y-96230000D01*
D14*
G04 #@! TO.N,GND*
X207436819Y-118436819D02*
X209500000Y-120500000D01*
X205563181Y-118436819D02*
X206250000Y-118436819D01*
X206250000Y-118436819D02*
X207436819Y-118436819D01*
X204288904Y-120300003D02*
X204838907Y-119750000D01*
X202800003Y-120300003D02*
X204288904Y-120300003D01*
X204838907Y-119161093D02*
X205563181Y-118436819D01*
X202000000Y-119500000D02*
X202800003Y-120300003D01*
X204838907Y-119750000D02*
X204838907Y-119161093D01*
D13*
X208460000Y-102500000D02*
X208460000Y-101040000D01*
X208460000Y-101040000D02*
X208500000Y-101000000D01*
X208500000Y-101000000D02*
X209750000Y-101000000D01*
X209750000Y-101000000D02*
X211000000Y-101000000D01*
X211000000Y-102500000D02*
X211000000Y-101000000D01*
X211750000Y-108250000D02*
X214250000Y-108250000D01*
X214250000Y-109750000D02*
X211750000Y-109750000D01*
D14*
G04 #@! TO.N,/SWITCH_1*
X253141782Y-100922002D02*
X256400000Y-104180220D01*
X240600000Y-113500000D02*
X238900000Y-115200000D01*
X246470000Y-98770000D02*
X248622002Y-100922002D01*
X254200000Y-113500000D02*
X240600000Y-113500000D01*
X238900000Y-115200000D02*
X234800000Y-115200000D01*
X233100000Y-118943602D02*
X233120002Y-118963604D01*
X248622002Y-100922002D02*
X253141782Y-100922002D01*
X256400000Y-104180220D02*
X256400000Y-111300000D01*
X233100000Y-116900000D02*
X233100000Y-118943602D01*
X256400000Y-111300000D02*
X254200000Y-113500000D01*
X234800000Y-115200000D02*
X233100000Y-116900000D01*
X233120002Y-118963604D02*
X233120002Y-119600000D01*
G04 #@! TO.N,/SWITCH_2*
X238200002Y-118963604D02*
X238200002Y-119600000D01*
X254300000Y-114200000D02*
X240800000Y-114200000D01*
X256800011Y-111699989D02*
X254300000Y-114200000D01*
X256800011Y-104014531D02*
X256800011Y-111699989D01*
X252405479Y-99619999D02*
X256800011Y-104014531D01*
X251550000Y-98770000D02*
X252399999Y-99619999D01*
X240800000Y-114200000D02*
X238200002Y-116799998D01*
X252399999Y-99619999D02*
X252405479Y-99619999D01*
X238200002Y-116799998D02*
X238200002Y-118963604D01*
G04 #@! TO.N,/SWITCH_3*
X251550000Y-96230000D02*
X252700001Y-97380001D01*
X252700001Y-97380001D02*
X252700001Y-99282427D01*
X252700001Y-99282427D02*
X257279608Y-103862034D01*
X257279608Y-103862034D02*
X257279608Y-106448208D01*
X257279608Y-106448208D02*
X257300022Y-106468622D01*
X257300022Y-106468622D02*
X257300022Y-111765678D01*
X257300022Y-111765678D02*
X254265700Y-114800000D01*
X254265700Y-114800000D02*
X249400000Y-114800000D01*
X249400000Y-114800000D02*
X246700000Y-117500000D01*
X246700000Y-117500000D02*
X245380002Y-117500000D01*
X245380002Y-117500000D02*
X243730001Y-119150001D01*
X243730001Y-119150001D02*
X243280002Y-119600000D01*
G04 #@! TO.N,/SWITCH_4*
X257700033Y-112399967D02*
X257700033Y-106302933D01*
X257700033Y-106302933D02*
X257700009Y-106302909D01*
X250100000Y-115500000D02*
X254600000Y-115500000D01*
X248360002Y-117239998D02*
X250100000Y-115500000D01*
X254600000Y-115500000D02*
X257700033Y-112399967D01*
X248360002Y-119600000D02*
X248360002Y-117239998D01*
X257700009Y-106302909D02*
X257700009Y-103532165D01*
X254090000Y-99922156D02*
X254090000Y-98770000D01*
X257700009Y-103532165D02*
X254090000Y-99922156D01*
G04 #@! TO.N,/SWITCH_5*
X258100020Y-103366476D02*
X255240001Y-100506457D01*
X258100044Y-112565656D02*
X258100044Y-106137244D01*
X255240001Y-97380001D02*
X254939999Y-97079999D01*
X258100020Y-106137220D02*
X258100020Y-103366476D01*
X258100044Y-106137244D02*
X258100020Y-106137220D01*
X253440002Y-119600000D02*
X253440002Y-117225698D01*
X254939999Y-97079999D02*
X254090000Y-96230000D01*
X253440002Y-117225698D02*
X258100044Y-112565656D01*
X255240001Y-100506457D02*
X255240001Y-97380001D01*
G04 #@! TO.N,/SWITCH_6*
X258070003Y-97670003D02*
X257479999Y-97079999D01*
X258070003Y-102770759D02*
X258070003Y-97670003D01*
X258699000Y-103378000D02*
X258070003Y-102770759D01*
X257479999Y-97079999D02*
X256630000Y-96230000D01*
D15*
X258699000Y-103378000D02*
X258699000Y-112903000D01*
X258699000Y-112903000D02*
X260604000Y-114808000D01*
X260604000Y-114808000D02*
X260604000Y-117094000D01*
X260604000Y-117094000D02*
X260604000Y-118491000D01*
D14*
G04 #@! TO.N,/TMP102_PWR*
X211250000Y-115971841D02*
X212502459Y-117224300D01*
X212502459Y-117224300D02*
X212513973Y-117224300D01*
X211028159Y-115750000D02*
X211250000Y-115971841D01*
X203957639Y-119258996D02*
X205466635Y-117750000D01*
X205466635Y-117750000D02*
X206516051Y-117750000D01*
X206516051Y-117750000D02*
X208516051Y-115750000D01*
X208516051Y-115750000D02*
X209500000Y-115750000D01*
X209500000Y-115750000D02*
X211028159Y-115750000D01*
G04 #@! TD*
G04 #@! TO.N,GND*
G36*
X262609084Y-94423382D02*
X263185500Y-94632611D01*
X263698320Y-94968831D01*
X264120038Y-95414005D01*
X264428036Y-95944263D01*
X264607175Y-96535732D01*
X264650001Y-97015594D01*
X264650000Y-146979667D01*
X264576618Y-147609084D01*
X264367389Y-148185500D01*
X264031169Y-148698320D01*
X263585993Y-149120039D01*
X263055737Y-149428036D01*
X262464268Y-149607175D01*
X261984417Y-149650000D01*
X203020333Y-149650000D01*
X202390916Y-149576618D01*
X201814500Y-149367389D01*
X201301680Y-149031169D01*
X200879961Y-148585993D01*
X200571964Y-148055737D01*
X200392825Y-147464268D01*
X200350000Y-146984417D01*
X200350000Y-146191686D01*
X201950000Y-146191686D01*
X201950000Y-146808314D01*
X202185974Y-147378004D01*
X202621996Y-147814026D01*
X203191686Y-148050000D01*
X203808314Y-148050000D01*
X204378004Y-147814026D01*
X204814026Y-147378004D01*
X205050000Y-146808314D01*
X205050000Y-146191686D01*
X259950000Y-146191686D01*
X259950000Y-146808314D01*
X260185974Y-147378004D01*
X260621996Y-147814026D01*
X261191686Y-148050000D01*
X261808314Y-148050000D01*
X262378004Y-147814026D01*
X262814026Y-147378004D01*
X263050000Y-146808314D01*
X263050000Y-146191686D01*
X262814026Y-145621996D01*
X262378004Y-145185974D01*
X261808314Y-144950000D01*
X261191686Y-144950000D01*
X260621996Y-145185974D01*
X260185974Y-145621996D01*
X259950000Y-146191686D01*
X205050000Y-146191686D01*
X204814026Y-145621996D01*
X204378004Y-145185974D01*
X203808314Y-144950000D01*
X203191686Y-144950000D01*
X202621996Y-145185974D01*
X202185974Y-145621996D01*
X201950000Y-146191686D01*
X200350000Y-146191686D01*
X200350000Y-138236870D01*
X203518000Y-138236870D01*
X203518000Y-138555130D01*
X203639793Y-138849164D01*
X203864836Y-139074207D01*
X204158870Y-139196000D01*
X204477130Y-139196000D01*
X204771164Y-139074207D01*
X204996207Y-138849164D01*
X205118000Y-138555130D01*
X205118000Y-138236870D01*
X204996207Y-137942836D01*
X204771164Y-137717793D01*
X204575799Y-137636870D01*
X223838000Y-137636870D01*
X223838000Y-137955130D01*
X223959793Y-138249164D01*
X224184836Y-138474207D01*
X224478870Y-138596000D01*
X224797130Y-138596000D01*
X225091164Y-138474207D01*
X225316207Y-138249164D01*
X225321299Y-138236870D01*
X229680000Y-138236870D01*
X229680000Y-138555130D01*
X229801793Y-138849164D01*
X230026836Y-139074207D01*
X230320870Y-139196000D01*
X230639130Y-139196000D01*
X230933164Y-139074207D01*
X231158207Y-138849164D01*
X231280000Y-138555130D01*
X231280000Y-138236870D01*
X231158207Y-137942836D01*
X230933164Y-137717793D01*
X230737799Y-137636870D01*
X260160000Y-137636870D01*
X260160000Y-137955130D01*
X260281793Y-138249164D01*
X260506836Y-138474207D01*
X260800870Y-138596000D01*
X261119130Y-138596000D01*
X261413164Y-138474207D01*
X261638207Y-138249164D01*
X261760000Y-137955130D01*
X261760000Y-137636870D01*
X261638207Y-137342836D01*
X261413164Y-137117793D01*
X261119130Y-136996000D01*
X260800870Y-136996000D01*
X260506836Y-137117793D01*
X260281793Y-137342836D01*
X260160000Y-137636870D01*
X230737799Y-137636870D01*
X230639130Y-137596000D01*
X230320870Y-137596000D01*
X230026836Y-137717793D01*
X229801793Y-137942836D01*
X229680000Y-138236870D01*
X225321299Y-138236870D01*
X225438000Y-137955130D01*
X225438000Y-137636870D01*
X225316207Y-137342836D01*
X225091164Y-137117793D01*
X224797130Y-136996000D01*
X224478870Y-136996000D01*
X224184836Y-137117793D01*
X223959793Y-137342836D01*
X223838000Y-137636870D01*
X204575799Y-137636870D01*
X204477130Y-137596000D01*
X204158870Y-137596000D01*
X203864836Y-137717793D01*
X203639793Y-137942836D01*
X203518000Y-138236870D01*
X200350000Y-138236870D01*
X200350000Y-123778927D01*
X200416557Y-123379054D01*
X200595127Y-123048107D01*
X200871267Y-122792846D01*
X201221645Y-122637946D01*
X201522019Y-122600000D01*
X205284468Y-122600000D01*
X205306136Y-122595690D01*
X205666902Y-122550115D01*
X205686756Y-122544178D01*
X205707412Y-122542552D01*
X205764556Y-122522987D01*
X206215054Y-122323824D01*
X206238094Y-122308690D01*
X206263388Y-122297744D01*
X206311114Y-122260724D01*
X206672813Y-121926374D01*
X206689709Y-121904592D01*
X206710094Y-121886043D01*
X206743254Y-121835562D01*
X206743255Y-121835561D01*
X206743256Y-121835558D01*
X206977151Y-121402075D01*
X206986080Y-121375995D01*
X206999357Y-121351844D01*
X207014378Y-121293341D01*
X207094351Y-120812869D01*
X207100000Y-120784468D01*
X207100000Y-119715532D01*
X207093275Y-119681723D01*
X207093275Y-119681719D01*
X207036185Y-119394706D01*
X207036185Y-119394704D01*
X206991966Y-119287952D01*
X206983925Y-119268538D01*
X206983924Y-119268537D01*
X206891793Y-119130653D01*
X209900000Y-119130653D01*
X209900000Y-119369347D01*
X209991344Y-119589873D01*
X210160127Y-119758656D01*
X210380653Y-119850000D01*
X210619347Y-119850000D01*
X210839873Y-119758656D01*
X211008656Y-119589873D01*
X211100000Y-119369347D01*
X211100000Y-119130653D01*
X211008656Y-118910127D01*
X210839873Y-118741344D01*
X210619347Y-118650000D01*
X210380653Y-118650000D01*
X210160127Y-118741344D01*
X209991344Y-118910127D01*
X209900000Y-119130653D01*
X206891793Y-119130653D01*
X206821344Y-119025220D01*
X206724778Y-118928654D01*
X206481463Y-118766076D01*
X206481462Y-118766075D01*
X206421756Y-118741344D01*
X206355296Y-118713815D01*
X206355294Y-118713815D01*
X206350000Y-118712762D01*
X206350000Y-118150000D01*
X206476657Y-118150000D01*
X206516051Y-118157836D01*
X206555445Y-118150000D01*
X206672123Y-118126791D01*
X206804435Y-118038384D01*
X206826754Y-118004981D01*
X208681737Y-116150000D01*
X209051471Y-116150000D01*
X209160127Y-116258656D01*
X209380653Y-116350000D01*
X209619347Y-116350000D01*
X209839873Y-116258656D01*
X209948529Y-116150000D01*
X210674360Y-116150000D01*
X210741344Y-116311714D01*
X210910127Y-116480497D01*
X211130653Y-116571841D01*
X211284316Y-116571841D01*
X211913973Y-117201499D01*
X211913973Y-117343647D01*
X212005317Y-117564173D01*
X212174100Y-117732956D01*
X212394626Y-117824300D01*
X212633320Y-117824300D01*
X212853846Y-117732956D01*
X213022629Y-117564173D01*
X213113973Y-117343647D01*
X213113973Y-117104953D01*
X213022629Y-116884427D01*
X212853846Y-116715644D01*
X212633320Y-116624300D01*
X212468144Y-116624300D01*
X211850000Y-116006157D01*
X211850000Y-115852494D01*
X211758656Y-115631968D01*
X211589873Y-115463185D01*
X211369347Y-115371841D01*
X211177354Y-115371841D01*
X211067553Y-115350000D01*
X211028159Y-115342164D01*
X210988765Y-115350000D01*
X209948529Y-115350000D01*
X209839873Y-115241344D01*
X209619347Y-115150000D01*
X209380653Y-115150000D01*
X209160127Y-115241344D01*
X209051471Y-115350000D01*
X208555443Y-115350000D01*
X208516050Y-115342164D01*
X208476658Y-115350000D01*
X208476657Y-115350000D01*
X208359979Y-115373209D01*
X208227667Y-115461616D01*
X208205352Y-115495013D01*
X206994546Y-116705820D01*
X207020183Y-116643927D01*
X207036185Y-116605296D01*
X207036185Y-116605294D01*
X207093275Y-116318281D01*
X207093275Y-116318277D01*
X207100000Y-116284468D01*
X207100000Y-115215532D01*
X207095690Y-115193864D01*
X207050115Y-114833099D01*
X207044178Y-114813246D01*
X207042552Y-114792588D01*
X207022987Y-114735444D01*
X206823823Y-114284945D01*
X206808690Y-114261907D01*
X206797744Y-114236612D01*
X206760724Y-114188886D01*
X206426374Y-113827187D01*
X206404593Y-113810291D01*
X206386043Y-113789906D01*
X206335567Y-113756749D01*
X206335561Y-113756745D01*
X206335558Y-113756744D01*
X205902075Y-113522850D01*
X205875999Y-113513922D01*
X205851844Y-113500643D01*
X205793341Y-113485622D01*
X205312874Y-113405650D01*
X205284468Y-113400000D01*
X201528927Y-113400000D01*
X201129054Y-113333443D01*
X200798109Y-113154875D01*
X200542846Y-112878732D01*
X200387946Y-112528357D01*
X200350000Y-112227982D01*
X200350000Y-97191686D01*
X201950000Y-97191686D01*
X201950000Y-97808314D01*
X202185974Y-98378004D01*
X202621996Y-98814026D01*
X203191686Y-99050000D01*
X203808314Y-99050000D01*
X204378004Y-98814026D01*
X204814026Y-98378004D01*
X205050000Y-97808314D01*
X205050000Y-97530001D01*
X206509224Y-97530001D01*
X206520000Y-97584175D01*
X206519999Y-103595830D01*
X206509224Y-103649999D01*
X206519999Y-103704168D01*
X206551910Y-103864597D01*
X206673471Y-104046527D01*
X206719399Y-104077215D01*
X207352958Y-104710774D01*
X207287471Y-105040000D01*
X207376724Y-105488707D01*
X207630897Y-105869103D01*
X208011293Y-106123276D01*
X208346739Y-106190000D01*
X208573261Y-106190000D01*
X208789226Y-106147042D01*
X209332787Y-106690604D01*
X209363473Y-106736529D01*
X209545402Y-106858090D01*
X209705831Y-106890001D01*
X209760000Y-106900776D01*
X209814169Y-106890001D01*
X214575831Y-106890001D01*
X214630000Y-106900776D01*
X214684169Y-106890001D01*
X229438724Y-106890001D01*
X229492893Y-106900776D01*
X229547062Y-106890001D01*
X229547063Y-106890001D01*
X229707492Y-106858090D01*
X229889421Y-106736529D01*
X229920109Y-106690602D01*
X230100711Y-106510000D01*
X230339941Y-106510000D01*
X230436511Y-106550000D01*
X230430653Y-106550000D01*
X230210127Y-106641344D01*
X230041344Y-106810127D01*
X229950000Y-107030653D01*
X229950000Y-107269347D01*
X230041344Y-107489873D01*
X230210127Y-107658656D01*
X230430653Y-107750000D01*
X230669347Y-107750000D01*
X230889873Y-107658656D01*
X231058656Y-107489873D01*
X231150000Y-107269347D01*
X231150000Y-107030653D01*
X231058656Y-106810127D01*
X230998529Y-106750000D01*
X231200000Y-106750000D01*
X231200000Y-114000000D01*
X231222836Y-114114805D01*
X231287868Y-114212132D01*
X231385195Y-114277164D01*
X231500000Y-114300000D01*
X239234316Y-114300000D01*
X238734316Y-114800000D01*
X234839393Y-114800000D01*
X234799999Y-114792164D01*
X234643928Y-114823209D01*
X234511616Y-114911616D01*
X234489299Y-114945016D01*
X232845019Y-116589297D01*
X232811616Y-116611616D01*
X232725328Y-116740758D01*
X232723209Y-116743929D01*
X232692164Y-116900000D01*
X232700000Y-116939394D01*
X232700001Y-118904204D01*
X232692164Y-118943602D01*
X232720002Y-119083552D01*
X232720002Y-119151471D01*
X232611346Y-119260127D01*
X232520002Y-119480653D01*
X232520002Y-119719347D01*
X232611346Y-119939873D01*
X232780129Y-120108656D01*
X233000655Y-120200000D01*
X233239349Y-120200000D01*
X233459875Y-120108656D01*
X233628658Y-119939873D01*
X233720002Y-119719347D01*
X233720002Y-119480653D01*
X233628658Y-119260127D01*
X233520002Y-119151471D01*
X233520002Y-119002996D01*
X233527838Y-118963603D01*
X233518990Y-118919123D01*
X233500000Y-118823654D01*
X233500000Y-117065684D01*
X234965685Y-115600000D01*
X238834315Y-115600000D01*
X237945021Y-116489295D01*
X237911618Y-116511614D01*
X237836325Y-116624300D01*
X237823211Y-116643927D01*
X237792166Y-116799998D01*
X237800002Y-116839392D01*
X237800003Y-118924206D01*
X237800002Y-118924211D01*
X237800002Y-119151471D01*
X237691346Y-119260127D01*
X237600002Y-119480653D01*
X237600002Y-119719347D01*
X237691346Y-119939873D01*
X237860129Y-120108656D01*
X238080655Y-120200000D01*
X238319349Y-120200000D01*
X238539875Y-120108656D01*
X238708658Y-119939873D01*
X238800002Y-119719347D01*
X238800002Y-119480653D01*
X238708658Y-119260127D01*
X238600002Y-119151471D01*
X238600002Y-116965682D01*
X240965686Y-114600000D01*
X249034315Y-114600000D01*
X246534316Y-117100000D01*
X245419396Y-117100000D01*
X245380002Y-117092164D01*
X245340608Y-117100000D01*
X245223930Y-117123209D01*
X245091618Y-117211616D01*
X245069301Y-117245016D01*
X243475017Y-118839301D01*
X243475014Y-118839303D01*
X243314317Y-119000000D01*
X243160655Y-119000000D01*
X242940129Y-119091344D01*
X242771346Y-119260127D01*
X242680002Y-119480653D01*
X242680002Y-119719347D01*
X242771346Y-119939873D01*
X242940129Y-120108656D01*
X243160655Y-120200000D01*
X243399349Y-120200000D01*
X243619875Y-120108656D01*
X243788658Y-119939873D01*
X243880002Y-119719347D01*
X243880002Y-119565685D01*
X244040699Y-119404988D01*
X244040701Y-119404985D01*
X245545687Y-117900000D01*
X246660606Y-117900000D01*
X246700000Y-117907836D01*
X246739394Y-117900000D01*
X246856072Y-117876791D01*
X246988384Y-117788384D01*
X247010703Y-117754981D01*
X249565685Y-115200000D01*
X249829001Y-115200000D01*
X249811616Y-115211616D01*
X249789299Y-115245016D01*
X248105019Y-116929297D01*
X248071619Y-116951614D01*
X248031811Y-117011192D01*
X247983211Y-117083927D01*
X247952166Y-117239998D01*
X247960003Y-117279396D01*
X247960002Y-119151471D01*
X247851346Y-119260127D01*
X247760002Y-119480653D01*
X247760002Y-119719347D01*
X247851346Y-119939873D01*
X248020129Y-120108656D01*
X248240655Y-120200000D01*
X248479349Y-120200000D01*
X248699875Y-120108656D01*
X248868658Y-119939873D01*
X248960002Y-119719347D01*
X248960002Y-119480653D01*
X248868658Y-119260127D01*
X248760002Y-119151471D01*
X248760002Y-117405682D01*
X250265685Y-115900000D01*
X254200016Y-115900000D01*
X253185019Y-116914997D01*
X253151619Y-116937314D01*
X253119749Y-116985012D01*
X253063211Y-117069627D01*
X253032166Y-117225698D01*
X253040003Y-117265096D01*
X253040002Y-119151471D01*
X252931346Y-119260127D01*
X252840002Y-119480653D01*
X252840002Y-119719347D01*
X252931346Y-119939873D01*
X253100129Y-120108656D01*
X253320655Y-120200000D01*
X253559349Y-120200000D01*
X253779875Y-120108656D01*
X253948658Y-119939873D01*
X254040002Y-119719347D01*
X254040002Y-119480653D01*
X257920002Y-119480653D01*
X257920002Y-119719347D01*
X258011346Y-119939873D01*
X258180129Y-120108656D01*
X258400655Y-120200000D01*
X258639349Y-120200000D01*
X258859875Y-120108656D01*
X259028658Y-119939873D01*
X259120002Y-119719347D01*
X259120002Y-119480653D01*
X259028658Y-119260127D01*
X258859875Y-119091344D01*
X258639349Y-119000000D01*
X258400655Y-119000000D01*
X258180129Y-119091344D01*
X258011346Y-119260127D01*
X257920002Y-119480653D01*
X254040002Y-119480653D01*
X253948658Y-119260127D01*
X253840002Y-119151471D01*
X253840002Y-117391382D01*
X258318601Y-112912784D01*
X258345759Y-113049318D01*
X258407721Y-113142050D01*
X258407723Y-113142052D01*
X258428642Y-113173359D01*
X258459949Y-113194278D01*
X260229000Y-114963330D01*
X260229001Y-117057065D01*
X260229000Y-117057070D01*
X260229001Y-118017470D01*
X260095344Y-118151127D01*
X260004000Y-118371653D01*
X260004000Y-118610347D01*
X260095344Y-118830873D01*
X260264127Y-118999656D01*
X260484653Y-119091000D01*
X260723347Y-119091000D01*
X260943873Y-118999656D01*
X261112656Y-118830873D01*
X261204000Y-118610347D01*
X261204000Y-118371653D01*
X261112656Y-118151127D01*
X260979000Y-118017471D01*
X260979000Y-114844926D01*
X260986345Y-114808000D01*
X260979000Y-114771074D01*
X260979000Y-114771069D01*
X260957242Y-114661683D01*
X260921262Y-114607836D01*
X260895279Y-114568949D01*
X260895278Y-114568948D01*
X260874359Y-114537641D01*
X260843053Y-114516723D01*
X259074000Y-112747671D01*
X259074000Y-110838870D01*
X260011000Y-110838870D01*
X260011000Y-111157130D01*
X260132793Y-111451164D01*
X260357836Y-111676207D01*
X260651870Y-111798000D01*
X260970130Y-111798000D01*
X261264164Y-111676207D01*
X261489207Y-111451164D01*
X261611000Y-111157130D01*
X261611000Y-110838870D01*
X261489207Y-110544836D01*
X261264164Y-110319793D01*
X260970130Y-110198000D01*
X260651870Y-110198000D01*
X260357836Y-110319793D01*
X260132793Y-110544836D01*
X260011000Y-110838870D01*
X259074000Y-110838870D01*
X259074000Y-105758870D01*
X259411000Y-105758870D01*
X259411000Y-106077130D01*
X259532793Y-106371164D01*
X259757836Y-106596207D01*
X260051870Y-106718000D01*
X260370130Y-106718000D01*
X260664164Y-106596207D01*
X260889207Y-106371164D01*
X261011000Y-106077130D01*
X261011000Y-105758870D01*
X260889207Y-105464836D01*
X260664164Y-105239793D01*
X260370130Y-105118000D01*
X260051870Y-105118000D01*
X259757836Y-105239793D01*
X259532793Y-105464836D01*
X259411000Y-105758870D01*
X259074000Y-105758870D01*
X259074000Y-103534384D01*
X259078479Y-103527418D01*
X259106773Y-103370824D01*
X259072986Y-103215322D01*
X259005163Y-103117585D01*
X258470003Y-102600936D01*
X258470003Y-97709397D01*
X258477839Y-97670003D01*
X258446794Y-97513931D01*
X258421801Y-97476526D01*
X258358387Y-97381619D01*
X258324987Y-97359302D01*
X258157371Y-97191686D01*
X259950000Y-97191686D01*
X259950000Y-97808314D01*
X260185974Y-98378004D01*
X260621996Y-98814026D01*
X261191686Y-99050000D01*
X261808314Y-99050000D01*
X262378004Y-98814026D01*
X262814026Y-98378004D01*
X263050000Y-97808314D01*
X263050000Y-97191686D01*
X262814026Y-96621996D01*
X262378004Y-96185974D01*
X261808314Y-95950000D01*
X261191686Y-95950000D01*
X260621996Y-96185974D01*
X260185974Y-96621996D01*
X259950000Y-97191686D01*
X258157371Y-97191686D01*
X257790701Y-96825017D01*
X257790697Y-96825011D01*
X257685685Y-96719999D01*
X257713276Y-96678707D01*
X257802529Y-96230000D01*
X257713276Y-95781293D01*
X257459103Y-95400897D01*
X257078707Y-95146724D01*
X256743261Y-95080000D01*
X256516739Y-95080000D01*
X256181293Y-95146724D01*
X255800897Y-95400897D01*
X255546724Y-95781293D01*
X255457471Y-96230000D01*
X255546724Y-96678707D01*
X255800897Y-97059103D01*
X256181293Y-97313276D01*
X256475998Y-97371896D01*
X256475998Y-97473110D01*
X256251090Y-97362097D01*
X255902384Y-97506523D01*
X255640001Y-97736116D01*
X255640001Y-97419395D01*
X255647837Y-97380001D01*
X255616792Y-97223929D01*
X255587037Y-97179397D01*
X255528385Y-97091617D01*
X255494985Y-97069300D01*
X255250701Y-96825017D01*
X255250697Y-96825011D01*
X255145685Y-96719999D01*
X255173276Y-96678707D01*
X255262529Y-96230000D01*
X255173276Y-95781293D01*
X254919103Y-95400897D01*
X254538707Y-95146724D01*
X254203261Y-95080000D01*
X253976739Y-95080000D01*
X253641293Y-95146724D01*
X253260897Y-95400897D01*
X253006724Y-95781293D01*
X252917471Y-96230000D01*
X253006724Y-96678707D01*
X253260897Y-97059103D01*
X253641293Y-97313276D01*
X253976739Y-97380000D01*
X254203261Y-97380000D01*
X254538707Y-97313276D01*
X254579999Y-97285685D01*
X254685011Y-97390697D01*
X254685017Y-97390701D01*
X254840002Y-97545687D01*
X254840002Y-97888043D01*
X254538707Y-97686724D01*
X254203261Y-97620000D01*
X253976739Y-97620000D01*
X253641293Y-97686724D01*
X253260897Y-97940897D01*
X253100001Y-98181694D01*
X253100001Y-97419394D01*
X253107837Y-97380000D01*
X253076792Y-97223929D01*
X253047037Y-97179397D01*
X252988385Y-97091617D01*
X252954986Y-97069301D01*
X252605685Y-96720000D01*
X252633276Y-96678707D01*
X252722529Y-96230000D01*
X252633276Y-95781293D01*
X252379103Y-95400897D01*
X251998707Y-95146724D01*
X251663261Y-95080000D01*
X251436739Y-95080000D01*
X251101293Y-95146724D01*
X250720897Y-95400897D01*
X250466724Y-95781293D01*
X250408104Y-96075998D01*
X250307857Y-96075998D01*
X250417915Y-95851089D01*
X250165741Y-95341146D01*
X249737616Y-94966523D01*
X249388910Y-94822097D01*
X249164000Y-94933111D01*
X249164000Y-96076000D01*
X249184000Y-96076000D01*
X249184000Y-96384000D01*
X249164000Y-96384000D01*
X249164000Y-96404000D01*
X248856000Y-96404000D01*
X248856000Y-96384000D01*
X248836000Y-96384000D01*
X248836000Y-96076000D01*
X248856000Y-96076000D01*
X248856000Y-94933111D01*
X248631090Y-94822097D01*
X248282384Y-94966523D01*
X247854259Y-95341146D01*
X247602085Y-95851089D01*
X247712143Y-96075998D01*
X247611896Y-96075998D01*
X247553276Y-95781293D01*
X247299103Y-95400897D01*
X246918707Y-95146724D01*
X246583261Y-95080000D01*
X246356739Y-95080000D01*
X246021293Y-95146724D01*
X245640897Y-95400897D01*
X245386724Y-95781293D01*
X245328104Y-96075998D01*
X245227857Y-96075998D01*
X245337915Y-95851089D01*
X245085741Y-95341146D01*
X244657616Y-94966523D01*
X244308910Y-94822097D01*
X244084000Y-94933111D01*
X244084000Y-96076000D01*
X244104000Y-96076000D01*
X244104000Y-96384000D01*
X244084000Y-96384000D01*
X244084000Y-96404000D01*
X243776000Y-96404000D01*
X243776000Y-96384000D01*
X243756000Y-96384000D01*
X243756000Y-96076000D01*
X243776000Y-96076000D01*
X243776000Y-94933111D01*
X243551090Y-94822097D01*
X243202384Y-94966523D01*
X242774259Y-95341146D01*
X242522085Y-95851089D01*
X242632143Y-96075998D01*
X242531896Y-96075998D01*
X242473276Y-95781293D01*
X242219103Y-95400897D01*
X241838707Y-95146724D01*
X241503261Y-95080000D01*
X241276739Y-95080000D01*
X240941293Y-95146724D01*
X240560897Y-95400897D01*
X240306724Y-95781293D01*
X240217471Y-96230000D01*
X240306724Y-96678707D01*
X240560897Y-97059103D01*
X240941293Y-97313276D01*
X241276739Y-97380000D01*
X241503261Y-97380000D01*
X241838707Y-97313276D01*
X242219103Y-97059103D01*
X242473276Y-96678707D01*
X242531896Y-96384002D01*
X242632143Y-96384002D01*
X242522085Y-96608911D01*
X242774259Y-97118854D01*
X243202384Y-97493477D01*
X243551090Y-97637903D01*
X243775998Y-97526890D01*
X243775998Y-97628104D01*
X243481293Y-97686724D01*
X243100897Y-97940897D01*
X242846724Y-98321293D01*
X242757471Y-98770000D01*
X242846724Y-99218707D01*
X243100897Y-99599103D01*
X243481293Y-99853276D01*
X243816739Y-99920000D01*
X244043261Y-99920000D01*
X244378707Y-99853276D01*
X244759103Y-99599103D01*
X245013276Y-99218707D01*
X245102529Y-98770000D01*
X245013276Y-98321293D01*
X244759103Y-97940897D01*
X244378707Y-97686724D01*
X244084002Y-97628104D01*
X244084002Y-97526890D01*
X244308910Y-97637903D01*
X244657616Y-97493477D01*
X245085741Y-97118854D01*
X245337915Y-96608911D01*
X245227857Y-96384002D01*
X245328104Y-96384002D01*
X245386724Y-96678707D01*
X245640897Y-97059103D01*
X246021293Y-97313276D01*
X246356739Y-97380000D01*
X246583261Y-97380000D01*
X246918707Y-97313276D01*
X247299103Y-97059103D01*
X247553276Y-96678707D01*
X247611896Y-96384002D01*
X247712143Y-96384002D01*
X247602085Y-96608911D01*
X247854259Y-97118854D01*
X248282384Y-97493477D01*
X248631090Y-97637903D01*
X248855998Y-97526890D01*
X248855998Y-97628104D01*
X248561293Y-97686724D01*
X248180897Y-97940897D01*
X247926724Y-98321293D01*
X247837471Y-98770000D01*
X247926724Y-99218707D01*
X248180897Y-99599103D01*
X248561293Y-99853276D01*
X248896739Y-99920000D01*
X249123261Y-99920000D01*
X249458707Y-99853276D01*
X249839103Y-99599103D01*
X250093276Y-99218707D01*
X250182529Y-98770000D01*
X250093276Y-98321293D01*
X249839103Y-97940897D01*
X249458707Y-97686724D01*
X249164002Y-97628104D01*
X249164002Y-97526890D01*
X249388910Y-97637903D01*
X249737616Y-97493477D01*
X250165741Y-97118854D01*
X250417915Y-96608911D01*
X250307857Y-96384002D01*
X250408104Y-96384002D01*
X250466724Y-96678707D01*
X250720897Y-97059103D01*
X251101293Y-97313276D01*
X251436739Y-97380000D01*
X251663261Y-97380000D01*
X251998707Y-97313276D01*
X252040000Y-97285685D01*
X252300001Y-97545686D01*
X252300001Y-97888043D01*
X251998707Y-97686724D01*
X251663261Y-97620000D01*
X251436739Y-97620000D01*
X251101293Y-97686724D01*
X250720897Y-97940897D01*
X250466724Y-98321293D01*
X250377471Y-98770000D01*
X250466724Y-99218707D01*
X250720897Y-99599103D01*
X251101293Y-99853276D01*
X251436739Y-99920000D01*
X251663261Y-99920000D01*
X251998707Y-99853276D01*
X252039999Y-99825685D01*
X252089299Y-99874985D01*
X252111615Y-99908383D01*
X252161532Y-99941736D01*
X252741798Y-100522002D01*
X248787688Y-100522002D01*
X247525685Y-99260000D01*
X247553276Y-99218707D01*
X247642529Y-98770000D01*
X247553276Y-98321293D01*
X247299103Y-97940897D01*
X246918707Y-97686724D01*
X246583261Y-97620000D01*
X246356739Y-97620000D01*
X246021293Y-97686724D01*
X245640897Y-97940897D01*
X245386724Y-98321293D01*
X245297471Y-98770000D01*
X245386724Y-99218707D01*
X245640897Y-99599103D01*
X246021293Y-99853276D01*
X246356739Y-99920000D01*
X246583261Y-99920000D01*
X246918707Y-99853276D01*
X246960000Y-99825685D01*
X248311302Y-101176988D01*
X248333618Y-101210386D01*
X248465930Y-101298793D01*
X248582608Y-101322002D01*
X248622001Y-101329838D01*
X248661394Y-101322002D01*
X252976098Y-101322002D01*
X256000000Y-104345906D01*
X256000001Y-111134314D01*
X254034316Y-113100000D01*
X247550000Y-113100000D01*
X247550000Y-106750000D01*
X247527164Y-106635195D01*
X247462132Y-106537868D01*
X247364805Y-106472836D01*
X247250000Y-106450000D01*
X231500000Y-106450000D01*
X231385195Y-106472836D01*
X231287868Y-106537868D01*
X231222836Y-106635195D01*
X231200000Y-106750000D01*
X230998529Y-106750000D01*
X230889873Y-106641344D01*
X230693489Y-106560000D01*
X230699347Y-106560000D01*
X230919873Y-106468656D01*
X231088656Y-106299873D01*
X231180000Y-106079347D01*
X231180000Y-105840653D01*
X231088656Y-105620127D01*
X230919873Y-105451344D01*
X230825059Y-105412071D01*
X230929873Y-105368656D01*
X231098656Y-105199873D01*
X231190000Y-104979347D01*
X231190000Y-104740653D01*
X231098656Y-104520127D01*
X230929873Y-104351344D01*
X230709347Y-104260000D01*
X230470653Y-104260000D01*
X230250127Y-104351344D01*
X230081344Y-104520127D01*
X229990000Y-104740653D01*
X229990000Y-104979347D01*
X230081344Y-105199873D01*
X230250127Y-105368656D01*
X230344941Y-105407929D01*
X230339941Y-105410000D01*
X229927063Y-105410000D01*
X229872894Y-105399225D01*
X229818725Y-105410000D01*
X229818724Y-105410000D01*
X229658295Y-105441911D01*
X229476366Y-105563472D01*
X229445681Y-105609395D01*
X229265076Y-105790001D01*
X215260000Y-105790001D01*
X215260000Y-103655877D01*
X215560000Y-103655877D01*
X215677054Y-103632593D01*
X215776288Y-103566288D01*
X215842593Y-103467054D01*
X215865877Y-103350000D01*
X215865877Y-101893695D01*
X216049395Y-102077213D01*
X216049401Y-102077217D01*
X216142958Y-102170774D01*
X216077471Y-102500000D01*
X216166724Y-102948707D01*
X216420897Y-103329103D01*
X216801293Y-103583276D01*
X217136739Y-103650000D01*
X217363261Y-103650000D01*
X217698707Y-103583276D01*
X218079103Y-103329103D01*
X218333276Y-102948707D01*
X218391896Y-102654002D01*
X218492143Y-102654002D01*
X218382085Y-102878911D01*
X218634259Y-103388854D01*
X219062384Y-103763477D01*
X219411090Y-103907903D01*
X219636000Y-103796889D01*
X219636000Y-102654000D01*
X219616000Y-102654000D01*
X219616000Y-102346000D01*
X219636000Y-102346000D01*
X219636000Y-101203111D01*
X219944000Y-101203111D01*
X219944000Y-102346000D01*
X219964000Y-102346000D01*
X219964000Y-102654000D01*
X219944000Y-102654000D01*
X219944000Y-103796889D01*
X220168910Y-103907903D01*
X220517616Y-103763477D01*
X220945741Y-103388854D01*
X221197915Y-102878911D01*
X221087857Y-102654002D01*
X221188104Y-102654002D01*
X221246724Y-102948707D01*
X221500897Y-103329103D01*
X221881293Y-103583276D01*
X222216739Y-103650000D01*
X222443261Y-103650000D01*
X222778707Y-103583276D01*
X223159103Y-103329103D01*
X223413276Y-102948707D01*
X223502529Y-102500000D01*
X223697471Y-102500000D01*
X223786724Y-102948707D01*
X224040897Y-103329103D01*
X224421293Y-103583276D01*
X224756739Y-103650000D01*
X224983261Y-103650000D01*
X225318707Y-103583276D01*
X225699103Y-103329103D01*
X225953276Y-102948707D01*
X226042529Y-102500000D01*
X225953276Y-102051293D01*
X225699103Y-101670897D01*
X225318707Y-101416724D01*
X224983261Y-101350000D01*
X224756739Y-101350000D01*
X224421293Y-101416724D01*
X224040897Y-101670897D01*
X223786724Y-102051293D01*
X223697471Y-102500000D01*
X223502529Y-102500000D01*
X223413276Y-102051293D01*
X223159103Y-101670897D01*
X222778707Y-101416724D01*
X222443261Y-101350000D01*
X222216739Y-101350000D01*
X221881293Y-101416724D01*
X221500897Y-101670897D01*
X221246724Y-102051293D01*
X221188104Y-102345998D01*
X221087857Y-102345998D01*
X221197915Y-102121089D01*
X220945741Y-101611146D01*
X220517616Y-101236523D01*
X220168910Y-101092097D01*
X219944000Y-101203111D01*
X219636000Y-101203111D01*
X219427581Y-101100237D01*
X219907817Y-100620001D01*
X227335830Y-100620001D01*
X227389999Y-100630776D01*
X227444168Y-100620001D01*
X227444169Y-100620001D01*
X227604598Y-100588090D01*
X227786527Y-100466529D01*
X227817215Y-100420601D01*
X228360774Y-99877042D01*
X228576739Y-99920000D01*
X228803261Y-99920000D01*
X229138707Y-99853276D01*
X229519103Y-99599103D01*
X229773276Y-99218707D01*
X229862529Y-98770000D01*
X229773276Y-98321293D01*
X229519103Y-97940897D01*
X229138707Y-97686724D01*
X228803261Y-97620000D01*
X228576739Y-97620000D01*
X228241293Y-97686724D01*
X227860897Y-97940897D01*
X227606724Y-98321293D01*
X227517471Y-98770000D01*
X227582958Y-99099226D01*
X227162183Y-99520001D01*
X227031957Y-99520001D01*
X227233276Y-99218707D01*
X227322529Y-98770000D01*
X227233276Y-98321293D01*
X226979103Y-97940897D01*
X226598707Y-97686724D01*
X226263261Y-97620000D01*
X226036739Y-97620000D01*
X225701293Y-97686724D01*
X225320897Y-97940897D01*
X225066724Y-98321293D01*
X224977471Y-98770000D01*
X225066724Y-99218707D01*
X225268043Y-99520001D01*
X224491957Y-99520001D01*
X224693276Y-99218707D01*
X224782529Y-98770000D01*
X224693276Y-98321293D01*
X224439103Y-97940897D01*
X224058707Y-97686724D01*
X223764002Y-97628104D01*
X223764002Y-97526890D01*
X223988910Y-97637903D01*
X224337616Y-97493477D01*
X224765741Y-97118854D01*
X225017915Y-96608911D01*
X224907857Y-96384002D01*
X225008104Y-96384002D01*
X225066724Y-96678707D01*
X225320897Y-97059103D01*
X225701293Y-97313276D01*
X226036739Y-97380000D01*
X226263261Y-97380000D01*
X226598707Y-97313276D01*
X226979103Y-97059103D01*
X227233276Y-96678707D01*
X227322529Y-96230000D01*
X227517471Y-96230000D01*
X227606724Y-96678707D01*
X227860897Y-97059103D01*
X228241293Y-97313276D01*
X228576739Y-97380000D01*
X228803261Y-97380000D01*
X229138707Y-97313276D01*
X229519103Y-97059103D01*
X229773276Y-96678707D01*
X229831896Y-96384002D01*
X229932143Y-96384002D01*
X229822085Y-96608911D01*
X230074259Y-97118854D01*
X230502384Y-97493477D01*
X230851090Y-97637903D01*
X231075998Y-97526890D01*
X231075998Y-97628104D01*
X230781293Y-97686724D01*
X230400897Y-97940897D01*
X230146724Y-98321293D01*
X230057471Y-98770000D01*
X230146724Y-99218707D01*
X230400897Y-99599103D01*
X230781293Y-99853276D01*
X231116739Y-99920000D01*
X231343261Y-99920000D01*
X231678707Y-99853276D01*
X232059103Y-99599103D01*
X232313276Y-99218707D01*
X232402529Y-98770000D01*
X232597471Y-98770000D01*
X232686724Y-99218707D01*
X232940897Y-99599103D01*
X233321293Y-99853276D01*
X233656739Y-99920000D01*
X233883261Y-99920000D01*
X234218707Y-99853276D01*
X234599103Y-99599103D01*
X234853276Y-99218707D01*
X234942529Y-98770000D01*
X235137471Y-98770000D01*
X235226724Y-99218707D01*
X235480897Y-99599103D01*
X235861293Y-99853276D01*
X236196739Y-99920000D01*
X236423261Y-99920000D01*
X236758707Y-99853276D01*
X237139103Y-99599103D01*
X237393276Y-99218707D01*
X237451896Y-98924002D01*
X237552143Y-98924002D01*
X237442085Y-99148911D01*
X237694259Y-99658854D01*
X238122384Y-100033477D01*
X238471090Y-100177903D01*
X238696000Y-100066889D01*
X238696000Y-98924000D01*
X238676000Y-98924000D01*
X238676000Y-98616000D01*
X238696000Y-98616000D01*
X238696000Y-98596000D01*
X239004000Y-98596000D01*
X239004000Y-98616000D01*
X239024000Y-98616000D01*
X239024000Y-98924000D01*
X239004000Y-98924000D01*
X239004000Y-100066889D01*
X239228910Y-100177903D01*
X239577616Y-100033477D01*
X240005741Y-99658854D01*
X240257915Y-99148911D01*
X240147857Y-98924002D01*
X240248104Y-98924002D01*
X240306724Y-99218707D01*
X240560897Y-99599103D01*
X240941293Y-99853276D01*
X241276739Y-99920000D01*
X241503261Y-99920000D01*
X241838707Y-99853276D01*
X242219103Y-99599103D01*
X242473276Y-99218707D01*
X242562529Y-98770000D01*
X242473276Y-98321293D01*
X242219103Y-97940897D01*
X241838707Y-97686724D01*
X241503261Y-97620000D01*
X241276739Y-97620000D01*
X240941293Y-97686724D01*
X240560897Y-97940897D01*
X240306724Y-98321293D01*
X240248104Y-98615998D01*
X240147857Y-98615998D01*
X240257915Y-98391089D01*
X240005741Y-97881146D01*
X239577616Y-97506523D01*
X239228910Y-97362097D01*
X239004002Y-97473110D01*
X239004002Y-97371896D01*
X239298707Y-97313276D01*
X239679103Y-97059103D01*
X239933276Y-96678707D01*
X240022529Y-96230000D01*
X239933276Y-95781293D01*
X239679103Y-95400897D01*
X239298707Y-95146724D01*
X238963261Y-95080000D01*
X238736739Y-95080000D01*
X238401293Y-95146724D01*
X238020897Y-95400897D01*
X237766724Y-95781293D01*
X237677471Y-96230000D01*
X237766724Y-96678707D01*
X238020897Y-97059103D01*
X238401293Y-97313276D01*
X238695998Y-97371896D01*
X238695998Y-97473110D01*
X238471090Y-97362097D01*
X238122384Y-97506523D01*
X237694259Y-97881146D01*
X237442085Y-98391089D01*
X237552143Y-98615998D01*
X237451896Y-98615998D01*
X237393276Y-98321293D01*
X237139103Y-97940897D01*
X236758707Y-97686724D01*
X236423261Y-97620000D01*
X236196739Y-97620000D01*
X235861293Y-97686724D01*
X235480897Y-97940897D01*
X235226724Y-98321293D01*
X235137471Y-98770000D01*
X234942529Y-98770000D01*
X234853276Y-98321293D01*
X234599103Y-97940897D01*
X234218707Y-97686724D01*
X233883261Y-97620000D01*
X233656739Y-97620000D01*
X233321293Y-97686724D01*
X232940897Y-97940897D01*
X232686724Y-98321293D01*
X232597471Y-98770000D01*
X232402529Y-98770000D01*
X232313276Y-98321293D01*
X232059103Y-97940897D01*
X231678707Y-97686724D01*
X231384002Y-97628104D01*
X231384002Y-97526890D01*
X231608910Y-97637903D01*
X231957616Y-97493477D01*
X232385741Y-97118854D01*
X232637915Y-96608911D01*
X232527857Y-96384002D01*
X232628104Y-96384002D01*
X232686724Y-96678707D01*
X232940897Y-97059103D01*
X233321293Y-97313276D01*
X233656739Y-97380000D01*
X233883261Y-97380000D01*
X234218707Y-97313276D01*
X234599103Y-97059103D01*
X234853276Y-96678707D01*
X234942529Y-96230000D01*
X235137471Y-96230000D01*
X235226724Y-96678707D01*
X235480897Y-97059103D01*
X235861293Y-97313276D01*
X236196739Y-97380000D01*
X236423261Y-97380000D01*
X236758707Y-97313276D01*
X237139103Y-97059103D01*
X237393276Y-96678707D01*
X237482529Y-96230000D01*
X237393276Y-95781293D01*
X237139103Y-95400897D01*
X236758707Y-95146724D01*
X236423261Y-95080000D01*
X236196739Y-95080000D01*
X235861293Y-95146724D01*
X235480897Y-95400897D01*
X235226724Y-95781293D01*
X235137471Y-96230000D01*
X234942529Y-96230000D01*
X234853276Y-95781293D01*
X234599103Y-95400897D01*
X234218707Y-95146724D01*
X233883261Y-95080000D01*
X233656739Y-95080000D01*
X233321293Y-95146724D01*
X232940897Y-95400897D01*
X232686724Y-95781293D01*
X232628104Y-96075998D01*
X232527857Y-96075998D01*
X232637915Y-95851089D01*
X232385741Y-95341146D01*
X231957616Y-94966523D01*
X231608910Y-94822097D01*
X231384000Y-94933111D01*
X231384000Y-96076000D01*
X231404000Y-96076000D01*
X231404000Y-96384000D01*
X231384000Y-96384000D01*
X231384000Y-96404000D01*
X231076000Y-96404000D01*
X231076000Y-96384000D01*
X231056000Y-96384000D01*
X231056000Y-96076000D01*
X231076000Y-96076000D01*
X231076000Y-94933111D01*
X230851090Y-94822097D01*
X230502384Y-94966523D01*
X230074259Y-95341146D01*
X229822085Y-95851089D01*
X229932143Y-96075998D01*
X229831896Y-96075998D01*
X229773276Y-95781293D01*
X229519103Y-95400897D01*
X229138707Y-95146724D01*
X228803261Y-95080000D01*
X228576739Y-95080000D01*
X228241293Y-95146724D01*
X227860897Y-95400897D01*
X227606724Y-95781293D01*
X227517471Y-96230000D01*
X227322529Y-96230000D01*
X227233276Y-95781293D01*
X226979103Y-95400897D01*
X226598707Y-95146724D01*
X226263261Y-95080000D01*
X226036739Y-95080000D01*
X225701293Y-95146724D01*
X225320897Y-95400897D01*
X225066724Y-95781293D01*
X225008104Y-96075998D01*
X224907857Y-96075998D01*
X225017915Y-95851089D01*
X224765741Y-95341146D01*
X224337616Y-94966523D01*
X223988910Y-94822097D01*
X223764000Y-94933111D01*
X223764000Y-96076000D01*
X223784000Y-96076000D01*
X223784000Y-96384000D01*
X223764000Y-96384000D01*
X223764000Y-96404000D01*
X223456000Y-96404000D01*
X223456000Y-96384000D01*
X223436000Y-96384000D01*
X223436000Y-96076000D01*
X223456000Y-96076000D01*
X223456000Y-94933111D01*
X223231090Y-94822097D01*
X222882384Y-94966523D01*
X222454259Y-95341146D01*
X222202085Y-95851089D01*
X222312143Y-96075998D01*
X222211896Y-96075998D01*
X222153276Y-95781293D01*
X221899103Y-95400897D01*
X221518707Y-95146724D01*
X221183261Y-95080000D01*
X220956739Y-95080000D01*
X220621293Y-95146724D01*
X220240897Y-95400897D01*
X219986724Y-95781293D01*
X219897471Y-96230000D01*
X219986724Y-96678707D01*
X220240897Y-97059103D01*
X220621293Y-97313276D01*
X220956739Y-97380000D01*
X221183261Y-97380000D01*
X221518707Y-97313276D01*
X221899103Y-97059103D01*
X222153276Y-96678707D01*
X222211896Y-96384002D01*
X222312143Y-96384002D01*
X222202085Y-96608911D01*
X222454259Y-97118854D01*
X222882384Y-97493477D01*
X223231090Y-97637903D01*
X223455998Y-97526890D01*
X223455998Y-97628104D01*
X223161293Y-97686724D01*
X222780897Y-97940897D01*
X222526724Y-98321293D01*
X222437471Y-98770000D01*
X222526724Y-99218707D01*
X222728043Y-99520001D01*
X221951957Y-99520001D01*
X222153276Y-99218707D01*
X222242529Y-98770000D01*
X222153276Y-98321293D01*
X221899103Y-97940897D01*
X221518707Y-97686724D01*
X221183261Y-97620000D01*
X220956739Y-97620000D01*
X220621293Y-97686724D01*
X220240897Y-97940897D01*
X219986724Y-98321293D01*
X219928104Y-98615998D01*
X219827857Y-98615998D01*
X219937915Y-98391089D01*
X219685741Y-97881146D01*
X219257616Y-97506523D01*
X218908910Y-97362097D01*
X218684002Y-97473110D01*
X218684002Y-97371896D01*
X218978707Y-97313276D01*
X219359103Y-97059103D01*
X219613276Y-96678707D01*
X219702529Y-96230000D01*
X219613276Y-95781293D01*
X219359103Y-95400897D01*
X218978707Y-95146724D01*
X218643261Y-95080000D01*
X218416739Y-95080000D01*
X218081293Y-95146724D01*
X217700897Y-95400897D01*
X217446724Y-95781293D01*
X217357471Y-96230000D01*
X217446724Y-96678707D01*
X217700897Y-97059103D01*
X218081293Y-97313276D01*
X218375998Y-97371896D01*
X218375998Y-97473110D01*
X218151090Y-97362097D01*
X217802384Y-97506523D01*
X217374259Y-97881146D01*
X217122085Y-98391089D01*
X217232143Y-98615998D01*
X217131896Y-98615998D01*
X217073276Y-98321293D01*
X216819103Y-97940897D01*
X216438707Y-97686724D01*
X216103261Y-97620000D01*
X215876739Y-97620000D01*
X215541293Y-97686724D01*
X215160897Y-97940897D01*
X214906724Y-98321293D01*
X214817471Y-98770000D01*
X214906724Y-99218707D01*
X215160897Y-99599103D01*
X215541293Y-99853276D01*
X215876739Y-99920000D01*
X216103261Y-99920000D01*
X216438707Y-99853276D01*
X216819103Y-99599103D01*
X217073276Y-99218707D01*
X217131896Y-98924002D01*
X217232143Y-98924002D01*
X217122085Y-99148911D01*
X217374259Y-99658854D01*
X217802384Y-100033477D01*
X218151090Y-100177903D01*
X218376000Y-100066889D01*
X218376000Y-98924000D01*
X218356000Y-98924000D01*
X218356000Y-98616000D01*
X218376000Y-98616000D01*
X218376000Y-98596000D01*
X218684000Y-98596000D01*
X218684000Y-98616000D01*
X218704000Y-98616000D01*
X218704000Y-98924000D01*
X218684000Y-98924000D01*
X218684000Y-100066889D01*
X218832162Y-100140021D01*
X217749397Y-101222787D01*
X217749394Y-101222789D01*
X217579225Y-101392958D01*
X217363261Y-101350000D01*
X217136739Y-101350000D01*
X216920774Y-101392958D01*
X216827217Y-101299401D01*
X216827213Y-101299395D01*
X215247217Y-99719401D01*
X215216529Y-99673473D01*
X215034600Y-99551912D01*
X214874171Y-99520001D01*
X214874170Y-99520001D01*
X214820001Y-99509226D01*
X214765832Y-99520001D01*
X214331957Y-99520001D01*
X214533276Y-99218707D01*
X214622529Y-98770000D01*
X214533276Y-98321293D01*
X214279103Y-97940897D01*
X213898707Y-97686724D01*
X213604002Y-97628104D01*
X213604002Y-97526890D01*
X213828910Y-97637903D01*
X214177616Y-97493477D01*
X214605741Y-97118854D01*
X214857915Y-96608911D01*
X214747857Y-96384002D01*
X214848104Y-96384002D01*
X214906724Y-96678707D01*
X215160897Y-97059103D01*
X215541293Y-97313276D01*
X215876739Y-97380000D01*
X216103261Y-97380000D01*
X216438707Y-97313276D01*
X216819103Y-97059103D01*
X217073276Y-96678707D01*
X217162529Y-96230000D01*
X217073276Y-95781293D01*
X216819103Y-95400897D01*
X216438707Y-95146724D01*
X216103261Y-95080000D01*
X215876739Y-95080000D01*
X215541293Y-95146724D01*
X215160897Y-95400897D01*
X214906724Y-95781293D01*
X214848104Y-96075998D01*
X214747857Y-96075998D01*
X214857915Y-95851089D01*
X214605741Y-95341146D01*
X214177616Y-94966523D01*
X213828910Y-94822097D01*
X213604000Y-94933111D01*
X213604000Y-96076000D01*
X213624000Y-96076000D01*
X213624000Y-96384000D01*
X213604000Y-96384000D01*
X213604000Y-96404000D01*
X213296000Y-96404000D01*
X213296000Y-96384000D01*
X213276000Y-96384000D01*
X213276000Y-96076000D01*
X213296000Y-96076000D01*
X213296000Y-94933111D01*
X213071090Y-94822097D01*
X212722384Y-94966523D01*
X212294259Y-95341146D01*
X212042085Y-95851089D01*
X212152143Y-96075998D01*
X212051896Y-96075998D01*
X211993276Y-95781293D01*
X211739103Y-95400897D01*
X211358707Y-95146724D01*
X211023261Y-95080000D01*
X210796739Y-95080000D01*
X210461293Y-95146724D01*
X210080897Y-95400897D01*
X209894406Y-95680000D01*
X209385594Y-95680000D01*
X209199103Y-95400897D01*
X208818707Y-95146724D01*
X208483261Y-95080000D01*
X208256739Y-95080000D01*
X207921293Y-95146724D01*
X207540897Y-95400897D01*
X207286724Y-95781293D01*
X207197471Y-96230000D01*
X207262958Y-96559226D01*
X207169399Y-96652785D01*
X207169396Y-96652787D01*
X206719397Y-97102787D01*
X206673472Y-97133473D01*
X206574300Y-97281894D01*
X206551911Y-97315402D01*
X206509224Y-97530001D01*
X205050000Y-97530001D01*
X205050000Y-97191686D01*
X204814026Y-96621996D01*
X204378004Y-96185974D01*
X203808314Y-95950000D01*
X203191686Y-95950000D01*
X202621996Y-96185974D01*
X202185974Y-96621996D01*
X201950000Y-97191686D01*
X200350000Y-97191686D01*
X200350000Y-97020332D01*
X200423382Y-96390916D01*
X200632611Y-95814500D01*
X200968831Y-95301680D01*
X201414005Y-94879962D01*
X201944263Y-94571964D01*
X202535732Y-94392825D01*
X203015583Y-94350000D01*
X261979668Y-94350000D01*
X262609084Y-94423382D01*
X262609084Y-94423382D01*
G37*
X262609084Y-94423382D02*
X263185500Y-94632611D01*
X263698320Y-94968831D01*
X264120038Y-95414005D01*
X264428036Y-95944263D01*
X264607175Y-96535732D01*
X264650001Y-97015594D01*
X264650000Y-146979667D01*
X264576618Y-147609084D01*
X264367389Y-148185500D01*
X264031169Y-148698320D01*
X263585993Y-149120039D01*
X263055737Y-149428036D01*
X262464268Y-149607175D01*
X261984417Y-149650000D01*
X203020333Y-149650000D01*
X202390916Y-149576618D01*
X201814500Y-149367389D01*
X201301680Y-149031169D01*
X200879961Y-148585993D01*
X200571964Y-148055737D01*
X200392825Y-147464268D01*
X200350000Y-146984417D01*
X200350000Y-146191686D01*
X201950000Y-146191686D01*
X201950000Y-146808314D01*
X202185974Y-147378004D01*
X202621996Y-147814026D01*
X203191686Y-148050000D01*
X203808314Y-148050000D01*
X204378004Y-147814026D01*
X204814026Y-147378004D01*
X205050000Y-146808314D01*
X205050000Y-146191686D01*
X259950000Y-146191686D01*
X259950000Y-146808314D01*
X260185974Y-147378004D01*
X260621996Y-147814026D01*
X261191686Y-148050000D01*
X261808314Y-148050000D01*
X262378004Y-147814026D01*
X262814026Y-147378004D01*
X263050000Y-146808314D01*
X263050000Y-146191686D01*
X262814026Y-145621996D01*
X262378004Y-145185974D01*
X261808314Y-144950000D01*
X261191686Y-144950000D01*
X260621996Y-145185974D01*
X260185974Y-145621996D01*
X259950000Y-146191686D01*
X205050000Y-146191686D01*
X204814026Y-145621996D01*
X204378004Y-145185974D01*
X203808314Y-144950000D01*
X203191686Y-144950000D01*
X202621996Y-145185974D01*
X202185974Y-145621996D01*
X201950000Y-146191686D01*
X200350000Y-146191686D01*
X200350000Y-138236870D01*
X203518000Y-138236870D01*
X203518000Y-138555130D01*
X203639793Y-138849164D01*
X203864836Y-139074207D01*
X204158870Y-139196000D01*
X204477130Y-139196000D01*
X204771164Y-139074207D01*
X204996207Y-138849164D01*
X205118000Y-138555130D01*
X205118000Y-138236870D01*
X204996207Y-137942836D01*
X204771164Y-137717793D01*
X204575799Y-137636870D01*
X223838000Y-137636870D01*
X223838000Y-137955130D01*
X223959793Y-138249164D01*
X224184836Y-138474207D01*
X224478870Y-138596000D01*
X224797130Y-138596000D01*
X225091164Y-138474207D01*
X225316207Y-138249164D01*
X225321299Y-138236870D01*
X229680000Y-138236870D01*
X229680000Y-138555130D01*
X229801793Y-138849164D01*
X230026836Y-139074207D01*
X230320870Y-139196000D01*
X230639130Y-139196000D01*
X230933164Y-139074207D01*
X231158207Y-138849164D01*
X231280000Y-138555130D01*
X231280000Y-138236870D01*
X231158207Y-137942836D01*
X230933164Y-137717793D01*
X230737799Y-137636870D01*
X260160000Y-137636870D01*
X260160000Y-137955130D01*
X260281793Y-138249164D01*
X260506836Y-138474207D01*
X260800870Y-138596000D01*
X261119130Y-138596000D01*
X261413164Y-138474207D01*
X261638207Y-138249164D01*
X261760000Y-137955130D01*
X261760000Y-137636870D01*
X261638207Y-137342836D01*
X261413164Y-137117793D01*
X261119130Y-136996000D01*
X260800870Y-136996000D01*
X260506836Y-137117793D01*
X260281793Y-137342836D01*
X260160000Y-137636870D01*
X230737799Y-137636870D01*
X230639130Y-137596000D01*
X230320870Y-137596000D01*
X230026836Y-137717793D01*
X229801793Y-137942836D01*
X229680000Y-138236870D01*
X225321299Y-138236870D01*
X225438000Y-137955130D01*
X225438000Y-137636870D01*
X225316207Y-137342836D01*
X225091164Y-137117793D01*
X224797130Y-136996000D01*
X224478870Y-136996000D01*
X224184836Y-137117793D01*
X223959793Y-137342836D01*
X223838000Y-137636870D01*
X204575799Y-137636870D01*
X204477130Y-137596000D01*
X204158870Y-137596000D01*
X203864836Y-137717793D01*
X203639793Y-137942836D01*
X203518000Y-138236870D01*
X200350000Y-138236870D01*
X200350000Y-123778927D01*
X200416557Y-123379054D01*
X200595127Y-123048107D01*
X200871267Y-122792846D01*
X201221645Y-122637946D01*
X201522019Y-122600000D01*
X205284468Y-122600000D01*
X205306136Y-122595690D01*
X205666902Y-122550115D01*
X205686756Y-122544178D01*
X205707412Y-122542552D01*
X205764556Y-122522987D01*
X206215054Y-122323824D01*
X206238094Y-122308690D01*
X206263388Y-122297744D01*
X206311114Y-122260724D01*
X206672813Y-121926374D01*
X206689709Y-121904592D01*
X206710094Y-121886043D01*
X206743254Y-121835562D01*
X206743255Y-121835561D01*
X206743256Y-121835558D01*
X206977151Y-121402075D01*
X206986080Y-121375995D01*
X206999357Y-121351844D01*
X207014378Y-121293341D01*
X207094351Y-120812869D01*
X207100000Y-120784468D01*
X207100000Y-119715532D01*
X207093275Y-119681723D01*
X207093275Y-119681719D01*
X207036185Y-119394706D01*
X207036185Y-119394704D01*
X206991966Y-119287952D01*
X206983925Y-119268538D01*
X206983924Y-119268537D01*
X206891793Y-119130653D01*
X209900000Y-119130653D01*
X209900000Y-119369347D01*
X209991344Y-119589873D01*
X210160127Y-119758656D01*
X210380653Y-119850000D01*
X210619347Y-119850000D01*
X210839873Y-119758656D01*
X211008656Y-119589873D01*
X211100000Y-119369347D01*
X211100000Y-119130653D01*
X211008656Y-118910127D01*
X210839873Y-118741344D01*
X210619347Y-118650000D01*
X210380653Y-118650000D01*
X210160127Y-118741344D01*
X209991344Y-118910127D01*
X209900000Y-119130653D01*
X206891793Y-119130653D01*
X206821344Y-119025220D01*
X206724778Y-118928654D01*
X206481463Y-118766076D01*
X206481462Y-118766075D01*
X206421756Y-118741344D01*
X206355296Y-118713815D01*
X206355294Y-118713815D01*
X206350000Y-118712762D01*
X206350000Y-118150000D01*
X206476657Y-118150000D01*
X206516051Y-118157836D01*
X206555445Y-118150000D01*
X206672123Y-118126791D01*
X206804435Y-118038384D01*
X206826754Y-118004981D01*
X208681737Y-116150000D01*
X209051471Y-116150000D01*
X209160127Y-116258656D01*
X209380653Y-116350000D01*
X209619347Y-116350000D01*
X209839873Y-116258656D01*
X209948529Y-116150000D01*
X210674360Y-116150000D01*
X210741344Y-116311714D01*
X210910127Y-116480497D01*
X211130653Y-116571841D01*
X211284316Y-116571841D01*
X211913973Y-117201499D01*
X211913973Y-117343647D01*
X212005317Y-117564173D01*
X212174100Y-117732956D01*
X212394626Y-117824300D01*
X212633320Y-117824300D01*
X212853846Y-117732956D01*
X213022629Y-117564173D01*
X213113973Y-117343647D01*
X213113973Y-117104953D01*
X213022629Y-116884427D01*
X212853846Y-116715644D01*
X212633320Y-116624300D01*
X212468144Y-116624300D01*
X211850000Y-116006157D01*
X211850000Y-115852494D01*
X211758656Y-115631968D01*
X211589873Y-115463185D01*
X211369347Y-115371841D01*
X211177354Y-115371841D01*
X211067553Y-115350000D01*
X211028159Y-115342164D01*
X210988765Y-115350000D01*
X209948529Y-115350000D01*
X209839873Y-115241344D01*
X209619347Y-115150000D01*
X209380653Y-115150000D01*
X209160127Y-115241344D01*
X209051471Y-115350000D01*
X208555443Y-115350000D01*
X208516050Y-115342164D01*
X208476658Y-115350000D01*
X208476657Y-115350000D01*
X208359979Y-115373209D01*
X208227667Y-115461616D01*
X208205352Y-115495013D01*
X206994546Y-116705820D01*
X207020183Y-116643927D01*
X207036185Y-116605296D01*
X207036185Y-116605294D01*
X207093275Y-116318281D01*
X207093275Y-116318277D01*
X207100000Y-116284468D01*
X207100000Y-115215532D01*
X207095690Y-115193864D01*
X207050115Y-114833099D01*
X207044178Y-114813246D01*
X207042552Y-114792588D01*
X207022987Y-114735444D01*
X206823823Y-114284945D01*
X206808690Y-114261907D01*
X206797744Y-114236612D01*
X206760724Y-114188886D01*
X206426374Y-113827187D01*
X206404593Y-113810291D01*
X206386043Y-113789906D01*
X206335567Y-113756749D01*
X206335561Y-113756745D01*
X206335558Y-113756744D01*
X205902075Y-113522850D01*
X205875999Y-113513922D01*
X205851844Y-113500643D01*
X205793341Y-113485622D01*
X205312874Y-113405650D01*
X205284468Y-113400000D01*
X201528927Y-113400000D01*
X201129054Y-113333443D01*
X200798109Y-113154875D01*
X200542846Y-112878732D01*
X200387946Y-112528357D01*
X200350000Y-112227982D01*
X200350000Y-97191686D01*
X201950000Y-97191686D01*
X201950000Y-97808314D01*
X202185974Y-98378004D01*
X202621996Y-98814026D01*
X203191686Y-99050000D01*
X203808314Y-99050000D01*
X204378004Y-98814026D01*
X204814026Y-98378004D01*
X205050000Y-97808314D01*
X205050000Y-97530001D01*
X206509224Y-97530001D01*
X206520000Y-97584175D01*
X206519999Y-103595830D01*
X206509224Y-103649999D01*
X206519999Y-103704168D01*
X206551910Y-103864597D01*
X206673471Y-104046527D01*
X206719399Y-104077215D01*
X207352958Y-104710774D01*
X207287471Y-105040000D01*
X207376724Y-105488707D01*
X207630897Y-105869103D01*
X208011293Y-106123276D01*
X208346739Y-106190000D01*
X208573261Y-106190000D01*
X208789226Y-106147042D01*
X209332787Y-106690604D01*
X209363473Y-106736529D01*
X209545402Y-106858090D01*
X209705831Y-106890001D01*
X209760000Y-106900776D01*
X209814169Y-106890001D01*
X214575831Y-106890001D01*
X214630000Y-106900776D01*
X214684169Y-106890001D01*
X229438724Y-106890001D01*
X229492893Y-106900776D01*
X229547062Y-106890001D01*
X229547063Y-106890001D01*
X229707492Y-106858090D01*
X229889421Y-106736529D01*
X229920109Y-106690602D01*
X230100711Y-106510000D01*
X230339941Y-106510000D01*
X230436511Y-106550000D01*
X230430653Y-106550000D01*
X230210127Y-106641344D01*
X230041344Y-106810127D01*
X229950000Y-107030653D01*
X229950000Y-107269347D01*
X230041344Y-107489873D01*
X230210127Y-107658656D01*
X230430653Y-107750000D01*
X230669347Y-107750000D01*
X230889873Y-107658656D01*
X231058656Y-107489873D01*
X231150000Y-107269347D01*
X231150000Y-107030653D01*
X231058656Y-106810127D01*
X230998529Y-106750000D01*
X231200000Y-106750000D01*
X231200000Y-114000000D01*
X231222836Y-114114805D01*
X231287868Y-114212132D01*
X231385195Y-114277164D01*
X231500000Y-114300000D01*
X239234316Y-114300000D01*
X238734316Y-114800000D01*
X234839393Y-114800000D01*
X234799999Y-114792164D01*
X234643928Y-114823209D01*
X234511616Y-114911616D01*
X234489299Y-114945016D01*
X232845019Y-116589297D01*
X232811616Y-116611616D01*
X232725328Y-116740758D01*
X232723209Y-116743929D01*
X232692164Y-116900000D01*
X232700000Y-116939394D01*
X232700001Y-118904204D01*
X232692164Y-118943602D01*
X232720002Y-119083552D01*
X232720002Y-119151471D01*
X232611346Y-119260127D01*
X232520002Y-119480653D01*
X232520002Y-119719347D01*
X232611346Y-119939873D01*
X232780129Y-120108656D01*
X233000655Y-120200000D01*
X233239349Y-120200000D01*
X233459875Y-120108656D01*
X233628658Y-119939873D01*
X233720002Y-119719347D01*
X233720002Y-119480653D01*
X233628658Y-119260127D01*
X233520002Y-119151471D01*
X233520002Y-119002996D01*
X233527838Y-118963603D01*
X233518990Y-118919123D01*
X233500000Y-118823654D01*
X233500000Y-117065684D01*
X234965685Y-115600000D01*
X238834315Y-115600000D01*
X237945021Y-116489295D01*
X237911618Y-116511614D01*
X237836325Y-116624300D01*
X237823211Y-116643927D01*
X237792166Y-116799998D01*
X237800002Y-116839392D01*
X237800003Y-118924206D01*
X237800002Y-118924211D01*
X237800002Y-119151471D01*
X237691346Y-119260127D01*
X237600002Y-119480653D01*
X237600002Y-119719347D01*
X237691346Y-119939873D01*
X237860129Y-120108656D01*
X238080655Y-120200000D01*
X238319349Y-120200000D01*
X238539875Y-120108656D01*
X238708658Y-119939873D01*
X238800002Y-119719347D01*
X238800002Y-119480653D01*
X238708658Y-119260127D01*
X238600002Y-119151471D01*
X238600002Y-116965682D01*
X240965686Y-114600000D01*
X249034315Y-114600000D01*
X246534316Y-117100000D01*
X245419396Y-117100000D01*
X245380002Y-117092164D01*
X245340608Y-117100000D01*
X245223930Y-117123209D01*
X245091618Y-117211616D01*
X245069301Y-117245016D01*
X243475017Y-118839301D01*
X243475014Y-118839303D01*
X243314317Y-119000000D01*
X243160655Y-119000000D01*
X242940129Y-119091344D01*
X242771346Y-119260127D01*
X242680002Y-119480653D01*
X242680002Y-119719347D01*
X242771346Y-119939873D01*
X242940129Y-120108656D01*
X243160655Y-120200000D01*
X243399349Y-120200000D01*
X243619875Y-120108656D01*
X243788658Y-119939873D01*
X243880002Y-119719347D01*
X243880002Y-119565685D01*
X244040699Y-119404988D01*
X244040701Y-119404985D01*
X245545687Y-117900000D01*
X246660606Y-117900000D01*
X246700000Y-117907836D01*
X246739394Y-117900000D01*
X246856072Y-117876791D01*
X246988384Y-117788384D01*
X247010703Y-117754981D01*
X249565685Y-115200000D01*
X249829001Y-115200000D01*
X249811616Y-115211616D01*
X249789299Y-115245016D01*
X248105019Y-116929297D01*
X248071619Y-116951614D01*
X248031811Y-117011192D01*
X247983211Y-117083927D01*
X247952166Y-117239998D01*
X247960003Y-117279396D01*
X247960002Y-119151471D01*
X247851346Y-119260127D01*
X247760002Y-119480653D01*
X247760002Y-119719347D01*
X247851346Y-119939873D01*
X248020129Y-120108656D01*
X248240655Y-120200000D01*
X248479349Y-120200000D01*
X248699875Y-120108656D01*
X248868658Y-119939873D01*
X248960002Y-119719347D01*
X248960002Y-119480653D01*
X248868658Y-119260127D01*
X248760002Y-119151471D01*
X248760002Y-117405682D01*
X250265685Y-115900000D01*
X254200016Y-115900000D01*
X253185019Y-116914997D01*
X253151619Y-116937314D01*
X253119749Y-116985012D01*
X253063211Y-117069627D01*
X253032166Y-117225698D01*
X253040003Y-117265096D01*
X253040002Y-119151471D01*
X252931346Y-119260127D01*
X252840002Y-119480653D01*
X252840002Y-119719347D01*
X252931346Y-119939873D01*
X253100129Y-120108656D01*
X253320655Y-120200000D01*
X253559349Y-120200000D01*
X253779875Y-120108656D01*
X253948658Y-119939873D01*
X254040002Y-119719347D01*
X254040002Y-119480653D01*
X257920002Y-119480653D01*
X257920002Y-119719347D01*
X258011346Y-119939873D01*
X258180129Y-120108656D01*
X258400655Y-120200000D01*
X258639349Y-120200000D01*
X258859875Y-120108656D01*
X259028658Y-119939873D01*
X259120002Y-119719347D01*
X259120002Y-119480653D01*
X259028658Y-119260127D01*
X258859875Y-119091344D01*
X258639349Y-119000000D01*
X258400655Y-119000000D01*
X258180129Y-119091344D01*
X258011346Y-119260127D01*
X257920002Y-119480653D01*
X254040002Y-119480653D01*
X253948658Y-119260127D01*
X253840002Y-119151471D01*
X253840002Y-117391382D01*
X258318601Y-112912784D01*
X258345759Y-113049318D01*
X258407721Y-113142050D01*
X258407723Y-113142052D01*
X258428642Y-113173359D01*
X258459949Y-113194278D01*
X260229000Y-114963330D01*
X260229001Y-117057065D01*
X260229000Y-117057070D01*
X260229001Y-118017470D01*
X260095344Y-118151127D01*
X260004000Y-118371653D01*
X260004000Y-118610347D01*
X260095344Y-118830873D01*
X260264127Y-118999656D01*
X260484653Y-119091000D01*
X260723347Y-119091000D01*
X260943873Y-118999656D01*
X261112656Y-118830873D01*
X261204000Y-118610347D01*
X261204000Y-118371653D01*
X261112656Y-118151127D01*
X260979000Y-118017471D01*
X260979000Y-114844926D01*
X260986345Y-114808000D01*
X260979000Y-114771074D01*
X260979000Y-114771069D01*
X260957242Y-114661683D01*
X260921262Y-114607836D01*
X260895279Y-114568949D01*
X260895278Y-114568948D01*
X260874359Y-114537641D01*
X260843053Y-114516723D01*
X259074000Y-112747671D01*
X259074000Y-110838870D01*
X260011000Y-110838870D01*
X260011000Y-111157130D01*
X260132793Y-111451164D01*
X260357836Y-111676207D01*
X260651870Y-111798000D01*
X260970130Y-111798000D01*
X261264164Y-111676207D01*
X261489207Y-111451164D01*
X261611000Y-111157130D01*
X261611000Y-110838870D01*
X261489207Y-110544836D01*
X261264164Y-110319793D01*
X260970130Y-110198000D01*
X260651870Y-110198000D01*
X260357836Y-110319793D01*
X260132793Y-110544836D01*
X260011000Y-110838870D01*
X259074000Y-110838870D01*
X259074000Y-105758870D01*
X259411000Y-105758870D01*
X259411000Y-106077130D01*
X259532793Y-106371164D01*
X259757836Y-106596207D01*
X260051870Y-106718000D01*
X260370130Y-106718000D01*
X260664164Y-106596207D01*
X260889207Y-106371164D01*
X261011000Y-106077130D01*
X261011000Y-105758870D01*
X260889207Y-105464836D01*
X260664164Y-105239793D01*
X260370130Y-105118000D01*
X260051870Y-105118000D01*
X259757836Y-105239793D01*
X259532793Y-105464836D01*
X259411000Y-105758870D01*
X259074000Y-105758870D01*
X259074000Y-103534384D01*
X259078479Y-103527418D01*
X259106773Y-103370824D01*
X259072986Y-103215322D01*
X259005163Y-103117585D01*
X258470003Y-102600936D01*
X258470003Y-97709397D01*
X258477839Y-97670003D01*
X258446794Y-97513931D01*
X258421801Y-97476526D01*
X258358387Y-97381619D01*
X258324987Y-97359302D01*
X258157371Y-97191686D01*
X259950000Y-97191686D01*
X259950000Y-97808314D01*
X260185974Y-98378004D01*
X260621996Y-98814026D01*
X261191686Y-99050000D01*
X261808314Y-99050000D01*
X262378004Y-98814026D01*
X262814026Y-98378004D01*
X263050000Y-97808314D01*
X263050000Y-97191686D01*
X262814026Y-96621996D01*
X262378004Y-96185974D01*
X261808314Y-95950000D01*
X261191686Y-95950000D01*
X260621996Y-96185974D01*
X260185974Y-96621996D01*
X259950000Y-97191686D01*
X258157371Y-97191686D01*
X257790701Y-96825017D01*
X257790697Y-96825011D01*
X257685685Y-96719999D01*
X257713276Y-96678707D01*
X257802529Y-96230000D01*
X257713276Y-95781293D01*
X257459103Y-95400897D01*
X257078707Y-95146724D01*
X256743261Y-95080000D01*
X256516739Y-95080000D01*
X256181293Y-95146724D01*
X255800897Y-95400897D01*
X255546724Y-95781293D01*
X255457471Y-96230000D01*
X255546724Y-96678707D01*
X255800897Y-97059103D01*
X256181293Y-97313276D01*
X256475998Y-97371896D01*
X256475998Y-97473110D01*
X256251090Y-97362097D01*
X255902384Y-97506523D01*
X255640001Y-97736116D01*
X255640001Y-97419395D01*
X255647837Y-97380001D01*
X255616792Y-97223929D01*
X255587037Y-97179397D01*
X255528385Y-97091617D01*
X255494985Y-97069300D01*
X255250701Y-96825017D01*
X255250697Y-96825011D01*
X255145685Y-96719999D01*
X255173276Y-96678707D01*
X255262529Y-96230000D01*
X255173276Y-95781293D01*
X254919103Y-95400897D01*
X254538707Y-95146724D01*
X254203261Y-95080000D01*
X253976739Y-95080000D01*
X253641293Y-95146724D01*
X253260897Y-95400897D01*
X253006724Y-95781293D01*
X252917471Y-96230000D01*
X253006724Y-96678707D01*
X253260897Y-97059103D01*
X253641293Y-97313276D01*
X253976739Y-97380000D01*
X254203261Y-97380000D01*
X254538707Y-97313276D01*
X254579999Y-97285685D01*
X254685011Y-97390697D01*
X254685017Y-97390701D01*
X254840002Y-97545687D01*
X254840002Y-97888043D01*
X254538707Y-97686724D01*
X254203261Y-97620000D01*
X253976739Y-97620000D01*
X253641293Y-97686724D01*
X253260897Y-97940897D01*
X253100001Y-98181694D01*
X253100001Y-97419394D01*
X253107837Y-97380000D01*
X253076792Y-97223929D01*
X253047037Y-97179397D01*
X252988385Y-97091617D01*
X252954986Y-97069301D01*
X252605685Y-96720000D01*
X252633276Y-96678707D01*
X252722529Y-96230000D01*
X252633276Y-95781293D01*
X252379103Y-95400897D01*
X251998707Y-95146724D01*
X251663261Y-95080000D01*
X251436739Y-95080000D01*
X251101293Y-95146724D01*
X250720897Y-95400897D01*
X250466724Y-95781293D01*
X250408104Y-96075998D01*
X250307857Y-96075998D01*
X250417915Y-95851089D01*
X250165741Y-95341146D01*
X249737616Y-94966523D01*
X249388910Y-94822097D01*
X249164000Y-94933111D01*
X249164000Y-96076000D01*
X249184000Y-96076000D01*
X249184000Y-96384000D01*
X249164000Y-96384000D01*
X249164000Y-96404000D01*
X248856000Y-96404000D01*
X248856000Y-96384000D01*
X248836000Y-96384000D01*
X248836000Y-96076000D01*
X248856000Y-96076000D01*
X248856000Y-94933111D01*
X248631090Y-94822097D01*
X248282384Y-94966523D01*
X247854259Y-95341146D01*
X247602085Y-95851089D01*
X247712143Y-96075998D01*
X247611896Y-96075998D01*
X247553276Y-95781293D01*
X247299103Y-95400897D01*
X246918707Y-95146724D01*
X246583261Y-95080000D01*
X246356739Y-95080000D01*
X246021293Y-95146724D01*
X245640897Y-95400897D01*
X245386724Y-95781293D01*
X245328104Y-96075998D01*
X245227857Y-96075998D01*
X245337915Y-95851089D01*
X245085741Y-95341146D01*
X244657616Y-94966523D01*
X244308910Y-94822097D01*
X244084000Y-94933111D01*
X244084000Y-96076000D01*
X244104000Y-96076000D01*
X244104000Y-96384000D01*
X244084000Y-96384000D01*
X244084000Y-96404000D01*
X243776000Y-96404000D01*
X243776000Y-96384000D01*
X243756000Y-96384000D01*
X243756000Y-96076000D01*
X243776000Y-96076000D01*
X243776000Y-94933111D01*
X243551090Y-94822097D01*
X243202384Y-94966523D01*
X242774259Y-95341146D01*
X242522085Y-95851089D01*
X242632143Y-96075998D01*
X242531896Y-96075998D01*
X242473276Y-95781293D01*
X242219103Y-95400897D01*
X241838707Y-95146724D01*
X241503261Y-95080000D01*
X241276739Y-95080000D01*
X240941293Y-95146724D01*
X240560897Y-95400897D01*
X240306724Y-95781293D01*
X240217471Y-96230000D01*
X240306724Y-96678707D01*
X240560897Y-97059103D01*
X240941293Y-97313276D01*
X241276739Y-97380000D01*
X241503261Y-97380000D01*
X241838707Y-97313276D01*
X242219103Y-97059103D01*
X242473276Y-96678707D01*
X242531896Y-96384002D01*
X242632143Y-96384002D01*
X242522085Y-96608911D01*
X242774259Y-97118854D01*
X243202384Y-97493477D01*
X243551090Y-97637903D01*
X243775998Y-97526890D01*
X243775998Y-97628104D01*
X243481293Y-97686724D01*
X243100897Y-97940897D01*
X242846724Y-98321293D01*
X242757471Y-98770000D01*
X242846724Y-99218707D01*
X243100897Y-99599103D01*
X243481293Y-99853276D01*
X243816739Y-99920000D01*
X244043261Y-99920000D01*
X244378707Y-99853276D01*
X244759103Y-99599103D01*
X245013276Y-99218707D01*
X245102529Y-98770000D01*
X245013276Y-98321293D01*
X244759103Y-97940897D01*
X244378707Y-97686724D01*
X244084002Y-97628104D01*
X244084002Y-97526890D01*
X244308910Y-97637903D01*
X244657616Y-97493477D01*
X245085741Y-97118854D01*
X245337915Y-96608911D01*
X245227857Y-96384002D01*
X245328104Y-96384002D01*
X245386724Y-96678707D01*
X245640897Y-97059103D01*
X246021293Y-97313276D01*
X246356739Y-97380000D01*
X246583261Y-97380000D01*
X246918707Y-97313276D01*
X247299103Y-97059103D01*
X247553276Y-96678707D01*
X247611896Y-96384002D01*
X247712143Y-96384002D01*
X247602085Y-96608911D01*
X247854259Y-97118854D01*
X248282384Y-97493477D01*
X248631090Y-97637903D01*
X248855998Y-97526890D01*
X248855998Y-97628104D01*
X248561293Y-97686724D01*
X248180897Y-97940897D01*
X247926724Y-98321293D01*
X247837471Y-98770000D01*
X247926724Y-99218707D01*
X248180897Y-99599103D01*
X248561293Y-99853276D01*
X248896739Y-99920000D01*
X249123261Y-99920000D01*
X249458707Y-99853276D01*
X249839103Y-99599103D01*
X250093276Y-99218707D01*
X250182529Y-98770000D01*
X250093276Y-98321293D01*
X249839103Y-97940897D01*
X249458707Y-97686724D01*
X249164002Y-97628104D01*
X249164002Y-97526890D01*
X249388910Y-97637903D01*
X249737616Y-97493477D01*
X250165741Y-97118854D01*
X250417915Y-96608911D01*
X250307857Y-96384002D01*
X250408104Y-96384002D01*
X250466724Y-96678707D01*
X250720897Y-97059103D01*
X251101293Y-97313276D01*
X251436739Y-97380000D01*
X251663261Y-97380000D01*
X251998707Y-97313276D01*
X252040000Y-97285685D01*
X252300001Y-97545686D01*
X252300001Y-97888043D01*
X251998707Y-97686724D01*
X251663261Y-97620000D01*
X251436739Y-97620000D01*
X251101293Y-97686724D01*
X250720897Y-97940897D01*
X250466724Y-98321293D01*
X250377471Y-98770000D01*
X250466724Y-99218707D01*
X250720897Y-99599103D01*
X251101293Y-99853276D01*
X251436739Y-99920000D01*
X251663261Y-99920000D01*
X251998707Y-99853276D01*
X252039999Y-99825685D01*
X252089299Y-99874985D01*
X252111615Y-99908383D01*
X252161532Y-99941736D01*
X252741798Y-100522002D01*
X248787688Y-100522002D01*
X247525685Y-99260000D01*
X247553276Y-99218707D01*
X247642529Y-98770000D01*
X247553276Y-98321293D01*
X247299103Y-97940897D01*
X246918707Y-97686724D01*
X246583261Y-97620000D01*
X246356739Y-97620000D01*
X246021293Y-97686724D01*
X245640897Y-97940897D01*
X245386724Y-98321293D01*
X245297471Y-98770000D01*
X245386724Y-99218707D01*
X245640897Y-99599103D01*
X246021293Y-99853276D01*
X246356739Y-99920000D01*
X246583261Y-99920000D01*
X246918707Y-99853276D01*
X246960000Y-99825685D01*
X248311302Y-101176988D01*
X248333618Y-101210386D01*
X248465930Y-101298793D01*
X248582608Y-101322002D01*
X248622001Y-101329838D01*
X248661394Y-101322002D01*
X252976098Y-101322002D01*
X256000000Y-104345906D01*
X256000001Y-111134314D01*
X254034316Y-113100000D01*
X247550000Y-113100000D01*
X247550000Y-106750000D01*
X247527164Y-106635195D01*
X247462132Y-106537868D01*
X247364805Y-106472836D01*
X247250000Y-106450000D01*
X231500000Y-106450000D01*
X231385195Y-106472836D01*
X231287868Y-106537868D01*
X231222836Y-106635195D01*
X231200000Y-106750000D01*
X230998529Y-106750000D01*
X230889873Y-106641344D01*
X230693489Y-106560000D01*
X230699347Y-106560000D01*
X230919873Y-106468656D01*
X231088656Y-106299873D01*
X231180000Y-106079347D01*
X231180000Y-105840653D01*
X231088656Y-105620127D01*
X230919873Y-105451344D01*
X230825059Y-105412071D01*
X230929873Y-105368656D01*
X231098656Y-105199873D01*
X231190000Y-104979347D01*
X231190000Y-104740653D01*
X231098656Y-104520127D01*
X230929873Y-104351344D01*
X230709347Y-104260000D01*
X230470653Y-104260000D01*
X230250127Y-104351344D01*
X230081344Y-104520127D01*
X229990000Y-104740653D01*
X229990000Y-104979347D01*
X230081344Y-105199873D01*
X230250127Y-105368656D01*
X230344941Y-105407929D01*
X230339941Y-105410000D01*
X229927063Y-105410000D01*
X229872894Y-105399225D01*
X229818725Y-105410000D01*
X229818724Y-105410000D01*
X229658295Y-105441911D01*
X229476366Y-105563472D01*
X229445681Y-105609395D01*
X229265076Y-105790001D01*
X215260000Y-105790001D01*
X215260000Y-103655877D01*
X215560000Y-103655877D01*
X215677054Y-103632593D01*
X215776288Y-103566288D01*
X215842593Y-103467054D01*
X215865877Y-103350000D01*
X215865877Y-101893695D01*
X216049395Y-102077213D01*
X216049401Y-102077217D01*
X216142958Y-102170774D01*
X216077471Y-102500000D01*
X216166724Y-102948707D01*
X216420897Y-103329103D01*
X216801293Y-103583276D01*
X217136739Y-103650000D01*
X217363261Y-103650000D01*
X217698707Y-103583276D01*
X218079103Y-103329103D01*
X218333276Y-102948707D01*
X218391896Y-102654002D01*
X218492143Y-102654002D01*
X218382085Y-102878911D01*
X218634259Y-103388854D01*
X219062384Y-103763477D01*
X219411090Y-103907903D01*
X219636000Y-103796889D01*
X219636000Y-102654000D01*
X219616000Y-102654000D01*
X219616000Y-102346000D01*
X219636000Y-102346000D01*
X219636000Y-101203111D01*
X219944000Y-101203111D01*
X219944000Y-102346000D01*
X219964000Y-102346000D01*
X219964000Y-102654000D01*
X219944000Y-102654000D01*
X219944000Y-103796889D01*
X220168910Y-103907903D01*
X220517616Y-103763477D01*
X220945741Y-103388854D01*
X221197915Y-102878911D01*
X221087857Y-102654002D01*
X221188104Y-102654002D01*
X221246724Y-102948707D01*
X221500897Y-103329103D01*
X221881293Y-103583276D01*
X222216739Y-103650000D01*
X222443261Y-103650000D01*
X222778707Y-103583276D01*
X223159103Y-103329103D01*
X223413276Y-102948707D01*
X223502529Y-102500000D01*
X223697471Y-102500000D01*
X223786724Y-102948707D01*
X224040897Y-103329103D01*
X224421293Y-103583276D01*
X224756739Y-103650000D01*
X224983261Y-103650000D01*
X225318707Y-103583276D01*
X225699103Y-103329103D01*
X225953276Y-102948707D01*
X226042529Y-102500000D01*
X225953276Y-102051293D01*
X225699103Y-101670897D01*
X225318707Y-101416724D01*
X224983261Y-101350000D01*
X224756739Y-101350000D01*
X224421293Y-101416724D01*
X224040897Y-101670897D01*
X223786724Y-102051293D01*
X223697471Y-102500000D01*
X223502529Y-102500000D01*
X223413276Y-102051293D01*
X223159103Y-101670897D01*
X222778707Y-101416724D01*
X222443261Y-101350000D01*
X222216739Y-101350000D01*
X221881293Y-101416724D01*
X221500897Y-101670897D01*
X221246724Y-102051293D01*
X221188104Y-102345998D01*
X221087857Y-102345998D01*
X221197915Y-102121089D01*
X220945741Y-101611146D01*
X220517616Y-101236523D01*
X220168910Y-101092097D01*
X219944000Y-101203111D01*
X219636000Y-101203111D01*
X219427581Y-101100237D01*
X219907817Y-100620001D01*
X227335830Y-100620001D01*
X227389999Y-100630776D01*
X227444168Y-100620001D01*
X227444169Y-100620001D01*
X227604598Y-100588090D01*
X227786527Y-100466529D01*
X227817215Y-100420601D01*
X228360774Y-99877042D01*
X228576739Y-99920000D01*
X228803261Y-99920000D01*
X229138707Y-99853276D01*
X229519103Y-99599103D01*
X229773276Y-99218707D01*
X229862529Y-98770000D01*
X229773276Y-98321293D01*
X229519103Y-97940897D01*
X229138707Y-97686724D01*
X228803261Y-97620000D01*
X228576739Y-97620000D01*
X228241293Y-97686724D01*
X227860897Y-97940897D01*
X227606724Y-98321293D01*
X227517471Y-98770000D01*
X227582958Y-99099226D01*
X227162183Y-99520001D01*
X227031957Y-99520001D01*
X227233276Y-99218707D01*
X227322529Y-98770000D01*
X227233276Y-98321293D01*
X226979103Y-97940897D01*
X226598707Y-97686724D01*
X226263261Y-97620000D01*
X226036739Y-97620000D01*
X225701293Y-97686724D01*
X225320897Y-97940897D01*
X225066724Y-98321293D01*
X224977471Y-98770000D01*
X225066724Y-99218707D01*
X225268043Y-99520001D01*
X224491957Y-99520001D01*
X224693276Y-99218707D01*
X224782529Y-98770000D01*
X224693276Y-98321293D01*
X224439103Y-97940897D01*
X224058707Y-97686724D01*
X223764002Y-97628104D01*
X223764002Y-97526890D01*
X223988910Y-97637903D01*
X224337616Y-97493477D01*
X224765741Y-97118854D01*
X225017915Y-96608911D01*
X224907857Y-96384002D01*
X225008104Y-96384002D01*
X225066724Y-96678707D01*
X225320897Y-97059103D01*
X225701293Y-97313276D01*
X226036739Y-97380000D01*
X226263261Y-97380000D01*
X226598707Y-97313276D01*
X226979103Y-97059103D01*
X227233276Y-96678707D01*
X227322529Y-96230000D01*
X227517471Y-96230000D01*
X227606724Y-96678707D01*
X227860897Y-97059103D01*
X228241293Y-97313276D01*
X228576739Y-97380000D01*
X228803261Y-97380000D01*
X229138707Y-97313276D01*
X229519103Y-97059103D01*
X229773276Y-96678707D01*
X229831896Y-96384002D01*
X229932143Y-96384002D01*
X229822085Y-96608911D01*
X230074259Y-97118854D01*
X230502384Y-97493477D01*
X230851090Y-97637903D01*
X231075998Y-97526890D01*
X231075998Y-97628104D01*
X230781293Y-97686724D01*
X230400897Y-97940897D01*
X230146724Y-98321293D01*
X230057471Y-98770000D01*
X230146724Y-99218707D01*
X230400897Y-99599103D01*
X230781293Y-99853276D01*
X231116739Y-99920000D01*
X231343261Y-99920000D01*
X231678707Y-99853276D01*
X232059103Y-99599103D01*
X232313276Y-99218707D01*
X232402529Y-98770000D01*
X232597471Y-98770000D01*
X232686724Y-99218707D01*
X232940897Y-99599103D01*
X233321293Y-99853276D01*
X233656739Y-99920000D01*
X233883261Y-99920000D01*
X234218707Y-99853276D01*
X234599103Y-99599103D01*
X234853276Y-99218707D01*
X234942529Y-98770000D01*
X235137471Y-98770000D01*
X235226724Y-99218707D01*
X235480897Y-99599103D01*
X235861293Y-99853276D01*
X236196739Y-99920000D01*
X236423261Y-99920000D01*
X236758707Y-99853276D01*
X237139103Y-99599103D01*
X237393276Y-99218707D01*
X237451896Y-98924002D01*
X237552143Y-98924002D01*
X237442085Y-99148911D01*
X237694259Y-99658854D01*
X238122384Y-100033477D01*
X238471090Y-100177903D01*
X238696000Y-100066889D01*
X238696000Y-98924000D01*
X238676000Y-98924000D01*
X238676000Y-98616000D01*
X238696000Y-98616000D01*
X238696000Y-98596000D01*
X239004000Y-98596000D01*
X239004000Y-98616000D01*
X239024000Y-98616000D01*
X239024000Y-98924000D01*
X239004000Y-98924000D01*
X239004000Y-100066889D01*
X239228910Y-100177903D01*
X239577616Y-100033477D01*
X240005741Y-99658854D01*
X240257915Y-99148911D01*
X240147857Y-98924002D01*
X240248104Y-98924002D01*
X240306724Y-99218707D01*
X240560897Y-99599103D01*
X240941293Y-99853276D01*
X241276739Y-99920000D01*
X241503261Y-99920000D01*
X241838707Y-99853276D01*
X242219103Y-99599103D01*
X242473276Y-99218707D01*
X242562529Y-98770000D01*
X242473276Y-98321293D01*
X242219103Y-97940897D01*
X241838707Y-97686724D01*
X241503261Y-97620000D01*
X241276739Y-97620000D01*
X240941293Y-97686724D01*
X240560897Y-97940897D01*
X240306724Y-98321293D01*
X240248104Y-98615998D01*
X240147857Y-98615998D01*
X240257915Y-98391089D01*
X240005741Y-97881146D01*
X239577616Y-97506523D01*
X239228910Y-97362097D01*
X239004002Y-97473110D01*
X239004002Y-97371896D01*
X239298707Y-97313276D01*
X239679103Y-97059103D01*
X239933276Y-96678707D01*
X240022529Y-96230000D01*
X239933276Y-95781293D01*
X239679103Y-95400897D01*
X239298707Y-95146724D01*
X238963261Y-95080000D01*
X238736739Y-95080000D01*
X238401293Y-95146724D01*
X238020897Y-95400897D01*
X237766724Y-95781293D01*
X237677471Y-96230000D01*
X237766724Y-96678707D01*
X238020897Y-97059103D01*
X238401293Y-97313276D01*
X238695998Y-97371896D01*
X238695998Y-97473110D01*
X238471090Y-97362097D01*
X238122384Y-97506523D01*
X237694259Y-97881146D01*
X237442085Y-98391089D01*
X237552143Y-98615998D01*
X237451896Y-98615998D01*
X237393276Y-98321293D01*
X237139103Y-97940897D01*
X236758707Y-97686724D01*
X236423261Y-97620000D01*
X236196739Y-97620000D01*
X235861293Y-97686724D01*
X235480897Y-97940897D01*
X235226724Y-98321293D01*
X235137471Y-98770000D01*
X234942529Y-98770000D01*
X234853276Y-98321293D01*
X234599103Y-97940897D01*
X234218707Y-97686724D01*
X233883261Y-97620000D01*
X233656739Y-97620000D01*
X233321293Y-97686724D01*
X232940897Y-97940897D01*
X232686724Y-98321293D01*
X232597471Y-98770000D01*
X232402529Y-98770000D01*
X232313276Y-98321293D01*
X232059103Y-97940897D01*
X231678707Y-97686724D01*
X231384002Y-97628104D01*
X231384002Y-97526890D01*
X231608910Y-97637903D01*
X231957616Y-97493477D01*
X232385741Y-97118854D01*
X232637915Y-96608911D01*
X232527857Y-96384002D01*
X232628104Y-96384002D01*
X232686724Y-96678707D01*
X232940897Y-97059103D01*
X233321293Y-97313276D01*
X233656739Y-97380000D01*
X233883261Y-97380000D01*
X234218707Y-97313276D01*
X234599103Y-97059103D01*
X234853276Y-96678707D01*
X234942529Y-96230000D01*
X235137471Y-96230000D01*
X235226724Y-96678707D01*
X235480897Y-97059103D01*
X235861293Y-97313276D01*
X236196739Y-97380000D01*
X236423261Y-97380000D01*
X236758707Y-97313276D01*
X237139103Y-97059103D01*
X237393276Y-96678707D01*
X237482529Y-96230000D01*
X237393276Y-95781293D01*
X237139103Y-95400897D01*
X236758707Y-95146724D01*
X236423261Y-95080000D01*
X236196739Y-95080000D01*
X235861293Y-95146724D01*
X235480897Y-95400897D01*
X235226724Y-95781293D01*
X235137471Y-96230000D01*
X234942529Y-96230000D01*
X234853276Y-95781293D01*
X234599103Y-95400897D01*
X234218707Y-95146724D01*
X233883261Y-95080000D01*
X233656739Y-95080000D01*
X233321293Y-95146724D01*
X232940897Y-95400897D01*
X232686724Y-95781293D01*
X232628104Y-96075998D01*
X232527857Y-96075998D01*
X232637915Y-95851089D01*
X232385741Y-95341146D01*
X231957616Y-94966523D01*
X231608910Y-94822097D01*
X231384000Y-94933111D01*
X231384000Y-96076000D01*
X231404000Y-96076000D01*
X231404000Y-96384000D01*
X231384000Y-96384000D01*
X231384000Y-96404000D01*
X231076000Y-96404000D01*
X231076000Y-96384000D01*
X231056000Y-96384000D01*
X231056000Y-96076000D01*
X231076000Y-96076000D01*
X231076000Y-94933111D01*
X230851090Y-94822097D01*
X230502384Y-94966523D01*
X230074259Y-95341146D01*
X229822085Y-95851089D01*
X229932143Y-96075998D01*
X229831896Y-96075998D01*
X229773276Y-95781293D01*
X229519103Y-95400897D01*
X229138707Y-95146724D01*
X228803261Y-95080000D01*
X228576739Y-95080000D01*
X228241293Y-95146724D01*
X227860897Y-95400897D01*
X227606724Y-95781293D01*
X227517471Y-96230000D01*
X227322529Y-96230000D01*
X227233276Y-95781293D01*
X226979103Y-95400897D01*
X226598707Y-95146724D01*
X226263261Y-95080000D01*
X226036739Y-95080000D01*
X225701293Y-95146724D01*
X225320897Y-95400897D01*
X225066724Y-95781293D01*
X225008104Y-96075998D01*
X224907857Y-96075998D01*
X225017915Y-95851089D01*
X224765741Y-95341146D01*
X224337616Y-94966523D01*
X223988910Y-94822097D01*
X223764000Y-94933111D01*
X223764000Y-96076000D01*
X223784000Y-96076000D01*
X223784000Y-96384000D01*
X223764000Y-96384000D01*
X223764000Y-96404000D01*
X223456000Y-96404000D01*
X223456000Y-96384000D01*
X223436000Y-96384000D01*
X223436000Y-96076000D01*
X223456000Y-96076000D01*
X223456000Y-94933111D01*
X223231090Y-94822097D01*
X222882384Y-94966523D01*
X222454259Y-95341146D01*
X222202085Y-95851089D01*
X222312143Y-96075998D01*
X222211896Y-96075998D01*
X222153276Y-95781293D01*
X221899103Y-95400897D01*
X221518707Y-95146724D01*
X221183261Y-95080000D01*
X220956739Y-95080000D01*
X220621293Y-95146724D01*
X220240897Y-95400897D01*
X219986724Y-95781293D01*
X219897471Y-96230000D01*
X219986724Y-96678707D01*
X220240897Y-97059103D01*
X220621293Y-97313276D01*
X220956739Y-97380000D01*
X221183261Y-97380000D01*
X221518707Y-97313276D01*
X221899103Y-97059103D01*
X222153276Y-96678707D01*
X222211896Y-96384002D01*
X222312143Y-96384002D01*
X222202085Y-96608911D01*
X222454259Y-97118854D01*
X222882384Y-97493477D01*
X223231090Y-97637903D01*
X223455998Y-97526890D01*
X223455998Y-97628104D01*
X223161293Y-97686724D01*
X222780897Y-97940897D01*
X222526724Y-98321293D01*
X222437471Y-98770000D01*
X222526724Y-99218707D01*
X222728043Y-99520001D01*
X221951957Y-99520001D01*
X222153276Y-99218707D01*
X222242529Y-98770000D01*
X222153276Y-98321293D01*
X221899103Y-97940897D01*
X221518707Y-97686724D01*
X221183261Y-97620000D01*
X220956739Y-97620000D01*
X220621293Y-97686724D01*
X220240897Y-97940897D01*
X219986724Y-98321293D01*
X219928104Y-98615998D01*
X219827857Y-98615998D01*
X219937915Y-98391089D01*
X219685741Y-97881146D01*
X219257616Y-97506523D01*
X218908910Y-97362097D01*
X218684002Y-97473110D01*
X218684002Y-97371896D01*
X218978707Y-97313276D01*
X219359103Y-97059103D01*
X219613276Y-96678707D01*
X219702529Y-96230000D01*
X219613276Y-95781293D01*
X219359103Y-95400897D01*
X218978707Y-95146724D01*
X218643261Y-95080000D01*
X218416739Y-95080000D01*
X218081293Y-95146724D01*
X217700897Y-95400897D01*
X217446724Y-95781293D01*
X217357471Y-96230000D01*
X217446724Y-96678707D01*
X217700897Y-97059103D01*
X218081293Y-97313276D01*
X218375998Y-97371896D01*
X218375998Y-97473110D01*
X218151090Y-97362097D01*
X217802384Y-97506523D01*
X217374259Y-97881146D01*
X217122085Y-98391089D01*
X217232143Y-98615998D01*
X217131896Y-98615998D01*
X217073276Y-98321293D01*
X216819103Y-97940897D01*
X216438707Y-97686724D01*
X216103261Y-97620000D01*
X215876739Y-97620000D01*
X215541293Y-97686724D01*
X215160897Y-97940897D01*
X214906724Y-98321293D01*
X214817471Y-98770000D01*
X214906724Y-99218707D01*
X215160897Y-99599103D01*
X215541293Y-99853276D01*
X215876739Y-99920000D01*
X216103261Y-99920000D01*
X216438707Y-99853276D01*
X216819103Y-99599103D01*
X217073276Y-99218707D01*
X217131896Y-98924002D01*
X217232143Y-98924002D01*
X217122085Y-99148911D01*
X217374259Y-99658854D01*
X217802384Y-100033477D01*
X218151090Y-100177903D01*
X218376000Y-100066889D01*
X218376000Y-98924000D01*
X218356000Y-98924000D01*
X218356000Y-98616000D01*
X218376000Y-98616000D01*
X218376000Y-98596000D01*
X218684000Y-98596000D01*
X218684000Y-98616000D01*
X218704000Y-98616000D01*
X218704000Y-98924000D01*
X218684000Y-98924000D01*
X218684000Y-100066889D01*
X218832162Y-100140021D01*
X217749397Y-101222787D01*
X217749394Y-101222789D01*
X217579225Y-101392958D01*
X217363261Y-101350000D01*
X217136739Y-101350000D01*
X216920774Y-101392958D01*
X216827217Y-101299401D01*
X216827213Y-101299395D01*
X215247217Y-99719401D01*
X215216529Y-99673473D01*
X215034600Y-99551912D01*
X214874171Y-99520001D01*
X214874170Y-99520001D01*
X214820001Y-99509226D01*
X214765832Y-99520001D01*
X214331957Y-99520001D01*
X214533276Y-99218707D01*
X214622529Y-98770000D01*
X214533276Y-98321293D01*
X214279103Y-97940897D01*
X213898707Y-97686724D01*
X213604002Y-97628104D01*
X213604002Y-97526890D01*
X213828910Y-97637903D01*
X214177616Y-97493477D01*
X214605741Y-97118854D01*
X214857915Y-96608911D01*
X214747857Y-96384002D01*
X214848104Y-96384002D01*
X214906724Y-96678707D01*
X215160897Y-97059103D01*
X215541293Y-97313276D01*
X215876739Y-97380000D01*
X216103261Y-97380000D01*
X216438707Y-97313276D01*
X216819103Y-97059103D01*
X217073276Y-96678707D01*
X217162529Y-96230000D01*
X217073276Y-95781293D01*
X216819103Y-95400897D01*
X216438707Y-95146724D01*
X216103261Y-95080000D01*
X215876739Y-95080000D01*
X215541293Y-95146724D01*
X215160897Y-95400897D01*
X214906724Y-95781293D01*
X214848104Y-96075998D01*
X214747857Y-96075998D01*
X214857915Y-95851089D01*
X214605741Y-95341146D01*
X214177616Y-94966523D01*
X213828910Y-94822097D01*
X213604000Y-94933111D01*
X213604000Y-96076000D01*
X213624000Y-96076000D01*
X213624000Y-96384000D01*
X213604000Y-96384000D01*
X213604000Y-96404000D01*
X213296000Y-96404000D01*
X213296000Y-96384000D01*
X213276000Y-96384000D01*
X213276000Y-96076000D01*
X213296000Y-96076000D01*
X213296000Y-94933111D01*
X213071090Y-94822097D01*
X212722384Y-94966523D01*
X212294259Y-95341146D01*
X212042085Y-95851089D01*
X212152143Y-96075998D01*
X212051896Y-96075998D01*
X211993276Y-95781293D01*
X211739103Y-95400897D01*
X211358707Y-95146724D01*
X211023261Y-95080000D01*
X210796739Y-95080000D01*
X210461293Y-95146724D01*
X210080897Y-95400897D01*
X209894406Y-95680000D01*
X209385594Y-95680000D01*
X209199103Y-95400897D01*
X208818707Y-95146724D01*
X208483261Y-95080000D01*
X208256739Y-95080000D01*
X207921293Y-95146724D01*
X207540897Y-95400897D01*
X207286724Y-95781293D01*
X207197471Y-96230000D01*
X207262958Y-96559226D01*
X207169399Y-96652785D01*
X207169396Y-96652787D01*
X206719397Y-97102787D01*
X206673472Y-97133473D01*
X206574300Y-97281894D01*
X206551911Y-97315402D01*
X206509224Y-97530001D01*
X205050000Y-97530001D01*
X205050000Y-97191686D01*
X204814026Y-96621996D01*
X204378004Y-96185974D01*
X203808314Y-95950000D01*
X203191686Y-95950000D01*
X202621996Y-96185974D01*
X202185974Y-96621996D01*
X201950000Y-97191686D01*
X200350000Y-97191686D01*
X200350000Y-97020332D01*
X200423382Y-96390916D01*
X200632611Y-95814500D01*
X200968831Y-95301680D01*
X201414005Y-94879962D01*
X201944263Y-94571964D01*
X202535732Y-94392825D01*
X203015583Y-94350000D01*
X261979668Y-94350000D01*
X262609084Y-94423382D01*
G36*
X256784000Y-98616000D02*
X256804000Y-98616000D01*
X256804000Y-98924000D01*
X256784000Y-98924000D01*
X256784000Y-100066889D01*
X257008910Y-100177903D01*
X257357616Y-100033477D01*
X257670004Y-99760128D01*
X257670003Y-102370774D01*
X255640001Y-100340773D01*
X255640001Y-99803884D01*
X255902384Y-100033477D01*
X256251090Y-100177903D01*
X256476000Y-100066889D01*
X256476000Y-98924000D01*
X256456000Y-98924000D01*
X256456000Y-98616000D01*
X256476000Y-98616000D01*
X256476000Y-98596000D01*
X256784000Y-98596000D01*
X256784000Y-98616000D01*
X256784000Y-98616000D01*
G37*
X256784000Y-98616000D02*
X256804000Y-98616000D01*
X256804000Y-98924000D01*
X256784000Y-98924000D01*
X256784000Y-100066889D01*
X257008910Y-100177903D01*
X257357616Y-100033477D01*
X257670004Y-99760128D01*
X257670003Y-102370774D01*
X255640001Y-100340773D01*
X255640001Y-99803884D01*
X255902384Y-100033477D01*
X256251090Y-100177903D01*
X256476000Y-100066889D01*
X256476000Y-98924000D01*
X256456000Y-98924000D01*
X256456000Y-98616000D01*
X256476000Y-98616000D01*
X256476000Y-98596000D01*
X256784000Y-98596000D01*
X256784000Y-98616000D01*
G36*
X209242787Y-100420604D02*
X209273473Y-100466529D01*
X209455402Y-100588090D01*
X209615831Y-100620001D01*
X209670000Y-100630776D01*
X209724169Y-100620001D01*
X212048000Y-100620001D01*
X212048000Y-101526134D01*
X211888854Y-101344259D01*
X211378911Y-101092085D01*
X211154000Y-101202144D01*
X211154000Y-102346000D01*
X211174000Y-102346000D01*
X211174000Y-102654000D01*
X211154000Y-102654000D01*
X211154000Y-102674000D01*
X210846000Y-102674000D01*
X210846000Y-102654000D01*
X208614000Y-102654000D01*
X208614000Y-102674000D01*
X208306000Y-102674000D01*
X208306000Y-102654000D01*
X208286000Y-102654000D01*
X208286000Y-102346000D01*
X208306000Y-102346000D01*
X208306000Y-101202144D01*
X208614000Y-101202144D01*
X208614000Y-102346000D01*
X210846000Y-102346000D01*
X210846000Y-101202144D01*
X210621089Y-101092085D01*
X210111146Y-101344259D01*
X209736523Y-101772384D01*
X209730000Y-101788133D01*
X209723477Y-101772384D01*
X209348854Y-101344259D01*
X208838911Y-101092085D01*
X208614000Y-101202144D01*
X208306000Y-101202144D01*
X208081089Y-101092085D01*
X207619999Y-101320101D01*
X207619999Y-99925877D01*
X208748060Y-99925877D01*
X209242787Y-100420604D01*
X209242787Y-100420604D01*
G37*
X209242787Y-100420604D02*
X209273473Y-100466529D01*
X209455402Y-100588090D01*
X209615831Y-100620001D01*
X209670000Y-100630776D01*
X209724169Y-100620001D01*
X212048000Y-100620001D01*
X212048000Y-101526134D01*
X211888854Y-101344259D01*
X211378911Y-101092085D01*
X211154000Y-101202144D01*
X211154000Y-102346000D01*
X211174000Y-102346000D01*
X211174000Y-102654000D01*
X211154000Y-102654000D01*
X211154000Y-102674000D01*
X210846000Y-102674000D01*
X210846000Y-102654000D01*
X208614000Y-102654000D01*
X208614000Y-102674000D01*
X208306000Y-102674000D01*
X208306000Y-102654000D01*
X208286000Y-102654000D01*
X208286000Y-102346000D01*
X208306000Y-102346000D01*
X208306000Y-101202144D01*
X208614000Y-101202144D01*
X208614000Y-102346000D01*
X210846000Y-102346000D01*
X210846000Y-101202144D01*
X210621089Y-101092085D01*
X210111146Y-101344259D01*
X209736523Y-101772384D01*
X209730000Y-101788133D01*
X209723477Y-101772384D01*
X209348854Y-101344259D01*
X208838911Y-101092085D01*
X208614000Y-101202144D01*
X208306000Y-101202144D01*
X208081089Y-101092085D01*
X207619999Y-101320101D01*
X207619999Y-99925877D01*
X208748060Y-99925877D01*
X209242787Y-100420604D01*
G04 #@! TO.N,/SW*
G36*
X247150000Y-113100000D02*
X240639393Y-113100000D01*
X240599999Y-113092164D01*
X240541834Y-113103734D01*
X240443928Y-113123209D01*
X240311616Y-113211616D01*
X240289299Y-113245016D01*
X239634315Y-113900000D01*
X231600000Y-113900000D01*
X231600000Y-106850000D01*
X247150000Y-106850000D01*
X247150000Y-113100000D01*
X247150000Y-113100000D01*
G37*
X247150000Y-113100000D02*
X240639393Y-113100000D01*
X240599999Y-113092164D01*
X240541834Y-113103734D01*
X240443928Y-113123209D01*
X240311616Y-113211616D01*
X240289299Y-113245016D01*
X239634315Y-113900000D01*
X231600000Y-113900000D01*
X231600000Y-106850000D01*
X247150000Y-106850000D01*
X247150000Y-113100000D01*
G04 #@! TD*
M02*
