G04 #@! TF.GenerationSoftware,KiCad,Pcbnew,5.0.0-rc2+dfsg1-3*
G04 #@! TF.CreationDate,2018-06-30T12:01:17+02:00*
G04 #@! TF.ProjectId,alpha,616C7068612E6B696361645F70636200,rev?*
G04 #@! TF.SameCoordinates,Original*
G04 #@! TF.FileFunction,Legend,Top*
G04 #@! TF.FilePolarity,Positive*
%FSLAX46Y46*%
G04 Gerber Fmt 4.6, Leading zero omitted, Abs format (unit mm)*
G04 Created by KiCad (PCBNEW 5.0.0-rc2+dfsg1-3) date Sat Jun 30 12:01:17 2018*
%MOMM*%
%LPD*%
G01*
G04 APERTURE LIST*
%ADD10C,0.200000*%
%ADD11C,0.250000*%
%ADD12C,0.300000*%
%ADD13C,0.120000*%
%ADD14C,0.150000*%
G04 APERTURE END LIST*
D10*
X211280761Y-145343619D02*
X211328380Y-145296000D01*
X211423619Y-145248380D01*
X211661714Y-145248380D01*
X211756952Y-145296000D01*
X211804571Y-145343619D01*
X211852190Y-145438857D01*
X211852190Y-145534095D01*
X211804571Y-145676952D01*
X211233142Y-146248380D01*
X211852190Y-146248380D01*
X212709333Y-145581714D02*
X212709333Y-146248380D01*
X212471238Y-145200761D02*
X212233142Y-145915047D01*
X212852190Y-145915047D01*
X213090285Y-145248380D02*
X213423619Y-146248380D01*
X213756952Y-145248380D01*
X214852190Y-146248380D02*
X214852190Y-145581714D01*
X214852190Y-145676952D02*
X214899809Y-145629333D01*
X214995047Y-145581714D01*
X215137904Y-145581714D01*
X215233142Y-145629333D01*
X215280761Y-145724571D01*
X215280761Y-146248380D01*
X215280761Y-145724571D02*
X215328380Y-145629333D01*
X215423619Y-145581714D01*
X215566476Y-145581714D01*
X215661714Y-145629333D01*
X215709333Y-145724571D01*
X215709333Y-146248380D01*
X216614095Y-146248380D02*
X216614095Y-145724571D01*
X216566476Y-145629333D01*
X216471238Y-145581714D01*
X216280761Y-145581714D01*
X216185523Y-145629333D01*
X216614095Y-146200761D02*
X216518857Y-146248380D01*
X216280761Y-146248380D01*
X216185523Y-146200761D01*
X216137904Y-146105523D01*
X216137904Y-146010285D01*
X216185523Y-145915047D01*
X216280761Y-145867428D01*
X216518857Y-145867428D01*
X216614095Y-145819809D01*
X216995047Y-146248380D02*
X217518857Y-145581714D01*
X216995047Y-145581714D02*
X217518857Y-146248380D01*
X207986380Y-107905238D02*
X207986380Y-108381428D01*
X208462571Y-108429047D01*
X208414952Y-108381428D01*
X208367333Y-108286190D01*
X208367333Y-108048095D01*
X208414952Y-107952857D01*
X208462571Y-107905238D01*
X208557809Y-107857619D01*
X208795904Y-107857619D01*
X208891142Y-107905238D01*
X208938761Y-107952857D01*
X208986380Y-108048095D01*
X208986380Y-108286190D01*
X208938761Y-108381428D01*
X208891142Y-108429047D01*
X207986380Y-107571904D02*
X208986380Y-107238571D01*
X207986380Y-106905238D01*
X210526380Y-109905238D02*
X210526380Y-109286190D01*
X210907333Y-109619523D01*
X210907333Y-109476666D01*
X210954952Y-109381428D01*
X211002571Y-109333809D01*
X211097809Y-109286190D01*
X211335904Y-109286190D01*
X211431142Y-109333809D01*
X211478761Y-109381428D01*
X211526380Y-109476666D01*
X211526380Y-109762380D01*
X211478761Y-109857619D01*
X211431142Y-109905238D01*
X211431142Y-108857619D02*
X211478761Y-108810000D01*
X211526380Y-108857619D01*
X211478761Y-108905238D01*
X211431142Y-108857619D01*
X211526380Y-108857619D01*
X210526380Y-108476666D02*
X210526380Y-107857619D01*
X210907333Y-108190952D01*
X210907333Y-108048095D01*
X210954952Y-107952857D01*
X211002571Y-107905238D01*
X211097809Y-107857619D01*
X211335904Y-107857619D01*
X211431142Y-107905238D01*
X211478761Y-107952857D01*
X211526380Y-108048095D01*
X211526380Y-108333809D01*
X211478761Y-108429047D01*
X211431142Y-108476666D01*
X210526380Y-107571904D02*
X211526380Y-107238571D01*
X210526380Y-106905238D01*
X204340285Y-102116000D02*
X204245047Y-102068380D01*
X204102190Y-102068380D01*
X203959333Y-102116000D01*
X203864095Y-102211238D01*
X203816476Y-102306476D01*
X203768857Y-102496952D01*
X203768857Y-102639809D01*
X203816476Y-102830285D01*
X203864095Y-102925523D01*
X203959333Y-103020761D01*
X204102190Y-103068380D01*
X204197428Y-103068380D01*
X204340285Y-103020761D01*
X204387904Y-102973142D01*
X204387904Y-102639809D01*
X204197428Y-102639809D01*
X204816476Y-103068380D02*
X204816476Y-102068380D01*
X205387904Y-103068380D01*
X205387904Y-102068380D01*
X205864095Y-103068380D02*
X205864095Y-102068380D01*
X206102190Y-102068380D01*
X206245047Y-102116000D01*
X206340285Y-102211238D01*
X206387904Y-102306476D01*
X206435523Y-102496952D01*
X206435523Y-102639809D01*
X206387904Y-102830285D01*
X206340285Y-102925523D01*
X206245047Y-103020761D01*
X206102190Y-103068380D01*
X205864095Y-103068380D01*
D11*
X219917929Y-115105571D02*
X219917929Y-114319857D01*
X219846500Y-114177000D01*
X219703643Y-114105571D01*
X219417929Y-114105571D01*
X219275071Y-114177000D01*
X219917929Y-115034142D02*
X219775071Y-115105571D01*
X219417929Y-115105571D01*
X219275071Y-115034142D01*
X219203643Y-114891285D01*
X219203643Y-114748428D01*
X219275071Y-114605571D01*
X219417929Y-114534142D01*
X219775071Y-114534142D01*
X219917929Y-114462714D01*
X220846500Y-115105571D02*
X220703643Y-115034142D01*
X220632214Y-114891285D01*
X220632214Y-113605571D01*
X221417929Y-114105571D02*
X221417929Y-115605571D01*
X221417929Y-114177000D02*
X221560786Y-114105571D01*
X221846500Y-114105571D01*
X221989357Y-114177000D01*
X222060786Y-114248428D01*
X222132214Y-114391285D01*
X222132214Y-114819857D01*
X222060786Y-114962714D01*
X221989357Y-115034142D01*
X221846500Y-115105571D01*
X221560786Y-115105571D01*
X221417929Y-115034142D01*
X222775071Y-115105571D02*
X222775071Y-113605571D01*
X223417929Y-115105571D02*
X223417929Y-114319857D01*
X223346500Y-114177000D01*
X223203643Y-114105571D01*
X222989357Y-114105571D01*
X222846500Y-114177000D01*
X222775071Y-114248428D01*
X224775071Y-115105571D02*
X224775071Y-114319857D01*
X224703643Y-114177000D01*
X224560786Y-114105571D01*
X224275071Y-114105571D01*
X224132214Y-114177000D01*
X224775071Y-115034142D02*
X224632214Y-115105571D01*
X224275071Y-115105571D01*
X224132214Y-115034142D01*
X224060786Y-114891285D01*
X224060786Y-114748428D01*
X224132214Y-114605571D01*
X224275071Y-114534142D01*
X224632214Y-114534142D01*
X224775071Y-114462714D01*
X225489357Y-114534142D02*
X226632214Y-114534142D01*
X227203643Y-113605571D02*
X228132214Y-113605571D01*
X227632214Y-114177000D01*
X227846500Y-114177000D01*
X227989357Y-114248428D01*
X228060786Y-114319857D01*
X228132214Y-114462714D01*
X228132214Y-114819857D01*
X228060786Y-114962714D01*
X227989357Y-115034142D01*
X227846500Y-115105571D01*
X227417929Y-115105571D01*
X227275071Y-115034142D01*
X227203643Y-114962714D01*
D10*
X225242380Y-105666857D02*
X224766190Y-106000190D01*
X225242380Y-106238285D02*
X224242380Y-106238285D01*
X224242380Y-105857333D01*
X224290000Y-105762095D01*
X224337619Y-105714476D01*
X224432857Y-105666857D01*
X224575714Y-105666857D01*
X224670952Y-105714476D01*
X224718571Y-105762095D01*
X224766190Y-105857333D01*
X224766190Y-106238285D01*
X224242380Y-105333523D02*
X225242380Y-104666857D01*
X224242380Y-104666857D02*
X225242380Y-105333523D01*
X221702380Y-106143047D02*
X221702380Y-105571619D01*
X222702380Y-105857333D02*
X221702380Y-105857333D01*
X221702380Y-105333523D02*
X222702380Y-104666857D01*
X221702380Y-104666857D02*
X222702380Y-105333523D01*
X219210000Y-106809714D02*
X219162380Y-106904952D01*
X219162380Y-107047809D01*
X219210000Y-107190666D01*
X219305238Y-107285904D01*
X219400476Y-107333523D01*
X219590952Y-107381142D01*
X219733809Y-107381142D01*
X219924285Y-107333523D01*
X220019523Y-107285904D01*
X220114761Y-107190666D01*
X220162380Y-107047809D01*
X220162380Y-106952571D01*
X220114761Y-106809714D01*
X220067142Y-106762095D01*
X219733809Y-106762095D01*
X219733809Y-106952571D01*
X220162380Y-106333523D02*
X219162380Y-106333523D01*
X220162380Y-105762095D01*
X219162380Y-105762095D01*
X220162380Y-105285904D02*
X219162380Y-105285904D01*
X219162380Y-105047809D01*
X219210000Y-104904952D01*
X219305238Y-104809714D01*
X219400476Y-104762095D01*
X219590952Y-104714476D01*
X219733809Y-104714476D01*
X219924285Y-104762095D01*
X220019523Y-104809714D01*
X220114761Y-104904952D01*
X220162380Y-105047809D01*
X220162380Y-105285904D01*
X216622380Y-107619238D02*
X216622380Y-107000190D01*
X217003333Y-107333523D01*
X217003333Y-107190666D01*
X217050952Y-107095428D01*
X217098571Y-107047809D01*
X217193809Y-107000190D01*
X217431904Y-107000190D01*
X217527142Y-107047809D01*
X217574761Y-107095428D01*
X217622380Y-107190666D01*
X217622380Y-107476380D01*
X217574761Y-107571619D01*
X217527142Y-107619238D01*
X217527142Y-106571619D02*
X217574761Y-106524000D01*
X217622380Y-106571619D01*
X217574761Y-106619238D01*
X217527142Y-106571619D01*
X217622380Y-106571619D01*
X216622380Y-106190666D02*
X216622380Y-105571619D01*
X217003333Y-105904952D01*
X217003333Y-105762095D01*
X217050952Y-105666857D01*
X217098571Y-105619238D01*
X217193809Y-105571619D01*
X217431904Y-105571619D01*
X217527142Y-105619238D01*
X217574761Y-105666857D01*
X217622380Y-105762095D01*
X217622380Y-106047809D01*
X217574761Y-106143047D01*
X217527142Y-106190666D01*
X216622380Y-105285904D02*
X217622380Y-104952571D01*
X216622380Y-104619238D01*
X214336380Y-105619238D02*
X214336380Y-106095428D01*
X214812571Y-106143047D01*
X214764952Y-106095428D01*
X214717333Y-106000190D01*
X214717333Y-105762095D01*
X214764952Y-105666857D01*
X214812571Y-105619238D01*
X214907809Y-105571619D01*
X215145904Y-105571619D01*
X215241142Y-105619238D01*
X215288761Y-105666857D01*
X215336380Y-105762095D01*
X215336380Y-106000190D01*
X215288761Y-106095428D01*
X215241142Y-106143047D01*
X214336380Y-105285904D02*
X215336380Y-104952571D01*
X214336380Y-104619238D01*
X258960952Y-102425238D02*
X258913333Y-102520476D01*
X258865714Y-102568095D01*
X258770476Y-102615714D01*
X258722857Y-102615714D01*
X258627619Y-102568095D01*
X258580000Y-102520476D01*
X258532380Y-102425238D01*
X258532380Y-102234761D01*
X258580000Y-102139523D01*
X258627619Y-102091904D01*
X258722857Y-102044285D01*
X258770476Y-102044285D01*
X258865714Y-102091904D01*
X258913333Y-102139523D01*
X258960952Y-102234761D01*
X258960952Y-102425238D01*
X259008571Y-102520476D01*
X259056190Y-102568095D01*
X259151428Y-102615714D01*
X259341904Y-102615714D01*
X259437142Y-102568095D01*
X259484761Y-102520476D01*
X259532380Y-102425238D01*
X259532380Y-102234761D01*
X259484761Y-102139523D01*
X259437142Y-102091904D01*
X259341904Y-102044285D01*
X259151428Y-102044285D01*
X259056190Y-102091904D01*
X259008571Y-102139523D01*
X258960952Y-102234761D01*
X259151428Y-101615714D02*
X259151428Y-100853809D01*
X258627619Y-100425238D02*
X258580000Y-100377619D01*
X258532380Y-100282380D01*
X258532380Y-100044285D01*
X258580000Y-99949047D01*
X258627619Y-99901428D01*
X258722857Y-99853809D01*
X258818095Y-99853809D01*
X258960952Y-99901428D01*
X259532380Y-100472857D01*
X259532380Y-99853809D01*
X258865714Y-98996666D02*
X259532380Y-98996666D01*
X258484761Y-99234761D02*
X259199047Y-99472857D01*
X259199047Y-98853809D01*
X258532380Y-98615714D02*
X259532380Y-98282380D01*
X258532380Y-97949047D01*
D12*
X261306571Y-103389714D02*
X262806571Y-102889714D01*
X261306571Y-102389714D01*
X262806571Y-101889714D02*
X261806571Y-101889714D01*
X261306571Y-101889714D02*
X261378000Y-101961142D01*
X261449428Y-101889714D01*
X261378000Y-101818285D01*
X261306571Y-101889714D01*
X261449428Y-101889714D01*
X261806571Y-101175428D02*
X262806571Y-101175428D01*
X261949428Y-101175428D02*
X261878000Y-101104000D01*
X261806571Y-100961142D01*
X261806571Y-100746857D01*
X261878000Y-100604000D01*
X262020857Y-100532571D01*
X262806571Y-100532571D01*
X261378000Y-116458857D02*
X261306571Y-116601714D01*
X261306571Y-116816000D01*
X261378000Y-117030285D01*
X261520857Y-117173142D01*
X261663714Y-117244571D01*
X261949428Y-117316000D01*
X262163714Y-117316000D01*
X262449428Y-117244571D01*
X262592285Y-117173142D01*
X262735142Y-117030285D01*
X262806571Y-116816000D01*
X262806571Y-116673142D01*
X262735142Y-116458857D01*
X262663714Y-116387428D01*
X262163714Y-116387428D01*
X262163714Y-116673142D01*
X262806571Y-115744571D02*
X261306571Y-115744571D01*
X262806571Y-114887428D01*
X261306571Y-114887428D01*
X262806571Y-114173142D02*
X261306571Y-114173142D01*
X261306571Y-113816000D01*
X261378000Y-113601714D01*
X261520857Y-113458857D01*
X261663714Y-113387428D01*
X261949428Y-113316000D01*
X262163714Y-113316000D01*
X262449428Y-113387428D01*
X262592285Y-113458857D01*
X262735142Y-113601714D01*
X262806571Y-113816000D01*
X262806571Y-114173142D01*
X205307428Y-143800142D02*
X205236000Y-143943000D01*
X205164571Y-144014428D01*
X205021714Y-144085857D01*
X204950285Y-144085857D01*
X204807428Y-144014428D01*
X204736000Y-143943000D01*
X204664571Y-143800142D01*
X204664571Y-143514428D01*
X204736000Y-143371571D01*
X204807428Y-143300142D01*
X204950285Y-143228714D01*
X205021714Y-143228714D01*
X205164571Y-143300142D01*
X205236000Y-143371571D01*
X205307428Y-143514428D01*
X205307428Y-143800142D01*
X205378857Y-143943000D01*
X205450285Y-144014428D01*
X205593142Y-144085857D01*
X205878857Y-144085857D01*
X206021714Y-144014428D01*
X206093142Y-143943000D01*
X206164571Y-143800142D01*
X206164571Y-143514428D01*
X206093142Y-143371571D01*
X206021714Y-143300142D01*
X205878857Y-143228714D01*
X205593142Y-143228714D01*
X205450285Y-143300142D01*
X205378857Y-143371571D01*
X205307428Y-143514428D01*
X207204571Y-144157285D02*
X207204571Y-143157285D01*
X208704571Y-143800142D01*
X223944571Y-143228714D02*
X223944571Y-144085857D01*
X223944571Y-143657285D02*
X222444571Y-143657285D01*
X222658857Y-143800142D01*
X222801714Y-143943000D01*
X222873142Y-144085857D01*
X220047428Y-144085857D02*
X219976000Y-144014428D01*
X219904571Y-143871571D01*
X219904571Y-143514428D01*
X219976000Y-143371571D01*
X220047428Y-143300142D01*
X220190285Y-143228714D01*
X220333142Y-143228714D01*
X220547428Y-143300142D01*
X221404571Y-144157285D01*
X221404571Y-143228714D01*
X217364571Y-144157285D02*
X217364571Y-143228714D01*
X217936000Y-143728714D01*
X217936000Y-143514428D01*
X218007428Y-143371571D01*
X218078857Y-143300142D01*
X218221714Y-143228714D01*
X218578857Y-143228714D01*
X218721714Y-143300142D01*
X218793142Y-143371571D01*
X218864571Y-143514428D01*
X218864571Y-143943000D01*
X218793142Y-144085857D01*
X218721714Y-144157285D01*
X215324571Y-143371571D02*
X216324571Y-143371571D01*
X214753142Y-143728714D02*
X215824571Y-144085857D01*
X215824571Y-143157285D01*
X212284571Y-143300142D02*
X212284571Y-144014428D01*
X212998857Y-144085857D01*
X212927428Y-144014428D01*
X212856000Y-143871571D01*
X212856000Y-143514428D01*
X212927428Y-143371571D01*
X212998857Y-143300142D01*
X213141714Y-143228714D01*
X213498857Y-143228714D01*
X213641714Y-143300142D01*
X213713142Y-143371571D01*
X213784571Y-143514428D01*
X213784571Y-143871571D01*
X213713142Y-144014428D01*
X213641714Y-144085857D01*
X209744571Y-143371571D02*
X209744571Y-143657285D01*
X209816000Y-143800142D01*
X209887428Y-143871571D01*
X210101714Y-144014428D01*
X210387428Y-144085857D01*
X210958857Y-144085857D01*
X211101714Y-144014428D01*
X211173142Y-143943000D01*
X211244571Y-143800142D01*
X211244571Y-143514428D01*
X211173142Y-143371571D01*
X211101714Y-143300142D01*
X210958857Y-143228714D01*
X210601714Y-143228714D01*
X210458857Y-143300142D01*
X210387428Y-143371571D01*
X210316000Y-143514428D01*
X210316000Y-143800142D01*
X210387428Y-143943000D01*
X210458857Y-144014428D01*
X210601714Y-144085857D01*
X211022857Y-149014571D02*
X211022857Y-147514571D01*
X211737142Y-149014571D02*
X211737142Y-147514571D01*
X212594285Y-149014571D01*
X212594285Y-147514571D01*
X213308571Y-149014571D02*
X213308571Y-147514571D01*
X213880000Y-147514571D01*
X214022857Y-147586000D01*
X214094285Y-147657428D01*
X214165714Y-147800285D01*
X214165714Y-148014571D01*
X214094285Y-148157428D01*
X214022857Y-148228857D01*
X213880000Y-148300285D01*
X213308571Y-148300285D01*
X214808571Y-147514571D02*
X214808571Y-148728857D01*
X214880000Y-148871714D01*
X214951428Y-148943142D01*
X215094285Y-149014571D01*
X215380000Y-149014571D01*
X215522857Y-148943142D01*
X215594285Y-148871714D01*
X215665714Y-148728857D01*
X215665714Y-147514571D01*
X216165714Y-147514571D02*
X217022857Y-147514571D01*
X216594285Y-149014571D02*
X216594285Y-147514571D01*
X217451428Y-148943142D02*
X217665714Y-149014571D01*
X218022857Y-149014571D01*
X218165714Y-148943142D01*
X218237142Y-148871714D01*
X218308571Y-148728857D01*
X218308571Y-148586000D01*
X218237142Y-148443142D01*
X218165714Y-148371714D01*
X218022857Y-148300285D01*
X217737142Y-148228857D01*
X217594285Y-148157428D01*
X217522857Y-148086000D01*
X217451428Y-147943142D01*
X217451428Y-147800285D01*
X217522857Y-147657428D01*
X217594285Y-147586000D01*
X217737142Y-147514571D01*
X218094285Y-147514571D01*
X218308571Y-147586000D01*
X230826571Y-146157285D02*
X232326571Y-145657285D01*
X230826571Y-145157285D01*
X232326571Y-144657285D02*
X231326571Y-144657285D01*
X230826571Y-144657285D02*
X230898000Y-144728714D01*
X230969428Y-144657285D01*
X230898000Y-144585857D01*
X230826571Y-144657285D01*
X230969428Y-144657285D01*
X231326571Y-143943000D02*
X232326571Y-143943000D01*
X231469428Y-143943000D02*
X231398000Y-143871571D01*
X231326571Y-143728714D01*
X231326571Y-143514428D01*
X231398000Y-143371571D01*
X231540857Y-143300142D01*
X232326571Y-143300142D01*
X235906571Y-146157285D02*
X237406571Y-145657285D01*
X235906571Y-145157285D01*
X237406571Y-144657285D02*
X236406571Y-144657285D01*
X235906571Y-144657285D02*
X235978000Y-144728714D01*
X236049428Y-144657285D01*
X235978000Y-144585857D01*
X235906571Y-144657285D01*
X236049428Y-144657285D01*
X236406571Y-143943000D02*
X237406571Y-143943000D01*
X236549428Y-143943000D02*
X236478000Y-143871571D01*
X236406571Y-143728714D01*
X236406571Y-143514428D01*
X236478000Y-143371571D01*
X236620857Y-143300142D01*
X237406571Y-143300142D01*
X240986571Y-146157285D02*
X242486571Y-145657285D01*
X240986571Y-145157285D01*
X242486571Y-144657285D02*
X241486571Y-144657285D01*
X240986571Y-144657285D02*
X241058000Y-144728714D01*
X241129428Y-144657285D01*
X241058000Y-144585857D01*
X240986571Y-144657285D01*
X241129428Y-144657285D01*
X241486571Y-143943000D02*
X242486571Y-143943000D01*
X241629428Y-143943000D02*
X241558000Y-143871571D01*
X241486571Y-143728714D01*
X241486571Y-143514428D01*
X241558000Y-143371571D01*
X241700857Y-143300142D01*
X242486571Y-143300142D01*
X246066571Y-146157285D02*
X247566571Y-145657285D01*
X246066571Y-145157285D01*
X247566571Y-144657285D02*
X246566571Y-144657285D01*
X246066571Y-144657285D02*
X246138000Y-144728714D01*
X246209428Y-144657285D01*
X246138000Y-144585857D01*
X246066571Y-144657285D01*
X246209428Y-144657285D01*
X246566571Y-143943000D02*
X247566571Y-143943000D01*
X246709428Y-143943000D02*
X246638000Y-143871571D01*
X246566571Y-143728714D01*
X246566571Y-143514428D01*
X246638000Y-143371571D01*
X246780857Y-143300142D01*
X247566571Y-143300142D01*
X251146571Y-146157285D02*
X252646571Y-145657285D01*
X251146571Y-145157285D01*
X252646571Y-144657285D02*
X251646571Y-144657285D01*
X251146571Y-144657285D02*
X251218000Y-144728714D01*
X251289428Y-144657285D01*
X251218000Y-144585857D01*
X251146571Y-144657285D01*
X251289428Y-144657285D01*
X251646571Y-143943000D02*
X252646571Y-143943000D01*
X251789428Y-143943000D02*
X251718000Y-143871571D01*
X251646571Y-143728714D01*
X251646571Y-143514428D01*
X251718000Y-143371571D01*
X251860857Y-143300142D01*
X252646571Y-143300142D01*
X256226571Y-146157285D02*
X257726571Y-145657285D01*
X256226571Y-145157285D01*
X257726571Y-144657285D02*
X256726571Y-144657285D01*
X256226571Y-144657285D02*
X256298000Y-144728714D01*
X256369428Y-144657285D01*
X256298000Y-144585857D01*
X256226571Y-144657285D01*
X256369428Y-144657285D01*
X256726571Y-143943000D02*
X257726571Y-143943000D01*
X256869428Y-143943000D02*
X256798000Y-143871571D01*
X256726571Y-143728714D01*
X256726571Y-143514428D01*
X256798000Y-143371571D01*
X256940857Y-143300142D01*
X257726571Y-143300142D01*
X258893571Y-143371571D02*
X258893571Y-143657285D01*
X258965000Y-143800142D01*
X259036428Y-143871571D01*
X259250714Y-144014428D01*
X259536428Y-144085857D01*
X260107857Y-144085857D01*
X260250714Y-144014428D01*
X260322142Y-143943000D01*
X260393571Y-143800142D01*
X260393571Y-143514428D01*
X260322142Y-143371571D01*
X260250714Y-143300142D01*
X260107857Y-143228714D01*
X259750714Y-143228714D01*
X259607857Y-143300142D01*
X259536428Y-143371571D01*
X259465000Y-143514428D01*
X259465000Y-143800142D01*
X259536428Y-143943000D01*
X259607857Y-144014428D01*
X259750714Y-144085857D01*
X254067571Y-143554142D02*
X254067571Y-144268428D01*
X254781857Y-144339857D01*
X254710428Y-144268428D01*
X254639000Y-144125571D01*
X254639000Y-143768428D01*
X254710428Y-143625571D01*
X254781857Y-143554142D01*
X254924714Y-143482714D01*
X255281857Y-143482714D01*
X255424714Y-143554142D01*
X255496142Y-143625571D01*
X255567571Y-143768428D01*
X255567571Y-144125571D01*
X255496142Y-144268428D01*
X255424714Y-144339857D01*
X249233571Y-143498571D02*
X250233571Y-143498571D01*
X248662142Y-143855714D02*
X249733571Y-144212857D01*
X249733571Y-143284285D01*
X243653571Y-144411285D02*
X243653571Y-143482714D01*
X244225000Y-143982714D01*
X244225000Y-143768428D01*
X244296428Y-143625571D01*
X244367857Y-143554142D01*
X244510714Y-143482714D01*
X244867857Y-143482714D01*
X245010714Y-143554142D01*
X245082142Y-143625571D01*
X245153571Y-143768428D01*
X245153571Y-144197000D01*
X245082142Y-144339857D01*
X245010714Y-144411285D01*
X238716428Y-144339857D02*
X238645000Y-144268428D01*
X238573571Y-144125571D01*
X238573571Y-143768428D01*
X238645000Y-143625571D01*
X238716428Y-143554142D01*
X238859285Y-143482714D01*
X239002142Y-143482714D01*
X239216428Y-143554142D01*
X240073571Y-144411285D01*
X240073571Y-143482714D01*
X234866571Y-143355714D02*
X234866571Y-144212857D01*
X234866571Y-143784285D02*
X233366571Y-143784285D01*
X233580857Y-143927142D01*
X233723714Y-144070000D01*
X233795142Y-144212857D01*
X241296571Y-147514571D02*
X241582285Y-147514571D01*
X241725142Y-147586000D01*
X241868000Y-147728857D01*
X241939428Y-148014571D01*
X241939428Y-148514571D01*
X241868000Y-148800285D01*
X241725142Y-148943142D01*
X241582285Y-149014571D01*
X241296571Y-149014571D01*
X241153714Y-148943142D01*
X241010857Y-148800285D01*
X240939428Y-148514571D01*
X240939428Y-148014571D01*
X241010857Y-147728857D01*
X241153714Y-147586000D01*
X241296571Y-147514571D01*
X242582285Y-147514571D02*
X242582285Y-148728857D01*
X242653714Y-148871714D01*
X242725142Y-148943142D01*
X242868000Y-149014571D01*
X243153714Y-149014571D01*
X243296571Y-148943142D01*
X243368000Y-148871714D01*
X243439428Y-148728857D01*
X243439428Y-147514571D01*
X243939428Y-147514571D02*
X244796571Y-147514571D01*
X244368000Y-149014571D02*
X244368000Y-147514571D01*
X245296571Y-149014571D02*
X245296571Y-147514571D01*
X245868000Y-147514571D01*
X246010857Y-147586000D01*
X246082285Y-147657428D01*
X246153714Y-147800285D01*
X246153714Y-148014571D01*
X246082285Y-148157428D01*
X246010857Y-148228857D01*
X245868000Y-148300285D01*
X245296571Y-148300285D01*
X246796571Y-147514571D02*
X246796571Y-148728857D01*
X246868000Y-148871714D01*
X246939428Y-148943142D01*
X247082285Y-149014571D01*
X247368000Y-149014571D01*
X247510857Y-148943142D01*
X247582285Y-148871714D01*
X247653714Y-148728857D01*
X247653714Y-147514571D01*
X248153714Y-147514571D02*
X249010857Y-147514571D01*
X248582285Y-149014571D02*
X248582285Y-147514571D01*
X249439428Y-148943142D02*
X249653714Y-149014571D01*
X250010857Y-149014571D01*
X250153714Y-148943142D01*
X250225142Y-148871714D01*
X250296571Y-148728857D01*
X250296571Y-148586000D01*
X250225142Y-148443142D01*
X250153714Y-148371714D01*
X250010857Y-148300285D01*
X249725142Y-148228857D01*
X249582285Y-148157428D01*
X249510857Y-148086000D01*
X249439428Y-147943142D01*
X249439428Y-147800285D01*
X249510857Y-147657428D01*
X249582285Y-147586000D01*
X249725142Y-147514571D01*
X250082285Y-147514571D01*
X250296571Y-147586000D01*
D11*
X202703642Y-111192571D02*
X202703642Y-112406857D01*
X202775071Y-112549714D01*
X202846500Y-112621142D01*
X202989357Y-112692571D01*
X203275071Y-112692571D01*
X203417928Y-112621142D01*
X203489357Y-112549714D01*
X203560785Y-112406857D01*
X203560785Y-111192571D01*
X204275071Y-111692571D02*
X204275071Y-112692571D01*
X204275071Y-111835428D02*
X204346500Y-111764000D01*
X204489357Y-111692571D01*
X204703642Y-111692571D01*
X204846500Y-111764000D01*
X204917928Y-111906857D01*
X204917928Y-112692571D01*
X205846500Y-112692571D02*
X205703642Y-112621142D01*
X205632214Y-112478285D01*
X205632214Y-111192571D01*
X206632214Y-112692571D02*
X206489357Y-112621142D01*
X206417928Y-112549714D01*
X206346500Y-112406857D01*
X206346500Y-111978285D01*
X206417928Y-111835428D01*
X206489357Y-111764000D01*
X206632214Y-111692571D01*
X206846500Y-111692571D01*
X206989357Y-111764000D01*
X207060785Y-111835428D01*
X207132214Y-111978285D01*
X207132214Y-112406857D01*
X207060785Y-112549714D01*
X206989357Y-112621142D01*
X206846500Y-112692571D01*
X206632214Y-112692571D01*
X208417928Y-112621142D02*
X208275071Y-112692571D01*
X207989357Y-112692571D01*
X207846500Y-112621142D01*
X207775071Y-112549714D01*
X207703642Y-112406857D01*
X207703642Y-111978285D01*
X207775071Y-111835428D01*
X207846500Y-111764000D01*
X207989357Y-111692571D01*
X208275071Y-111692571D01*
X208417928Y-111764000D01*
X209060785Y-112692571D02*
X209060785Y-111192571D01*
X209203642Y-112121142D02*
X209632214Y-112692571D01*
X209632214Y-111692571D02*
X209060785Y-112264000D01*
X211703642Y-111192571D02*
X211989357Y-111192571D01*
X212132214Y-111264000D01*
X212275071Y-111406857D01*
X212346500Y-111692571D01*
X212346500Y-112192571D01*
X212275071Y-112478285D01*
X212132214Y-112621142D01*
X211989357Y-112692571D01*
X211703642Y-112692571D01*
X211560785Y-112621142D01*
X211417928Y-112478285D01*
X211346500Y-112192571D01*
X211346500Y-111692571D01*
X211417928Y-111406857D01*
X211560785Y-111264000D01*
X211703642Y-111192571D01*
X212917928Y-112621142D02*
X213060785Y-112692571D01*
X213346500Y-112692571D01*
X213489357Y-112621142D01*
X213560785Y-112478285D01*
X213560785Y-112406857D01*
X213489357Y-112264000D01*
X213346500Y-112192571D01*
X213132214Y-112192571D01*
X212989357Y-112121142D01*
X212917928Y-111978285D01*
X212917928Y-111906857D01*
X212989357Y-111764000D01*
X213132214Y-111692571D01*
X213346500Y-111692571D01*
X213489357Y-111764000D01*
X214417928Y-112692571D02*
X214275071Y-112621142D01*
X214203642Y-112478285D01*
X214203642Y-111192571D01*
X215203642Y-112692571D02*
X215060785Y-112621142D01*
X214989357Y-112549714D01*
X214917928Y-112406857D01*
X214917928Y-111978285D01*
X214989357Y-111835428D01*
X215060785Y-111764000D01*
X215203642Y-111692571D01*
X215417928Y-111692571D01*
X215560785Y-111764000D01*
X215632214Y-111835428D01*
X215703642Y-111978285D01*
X215703642Y-112406857D01*
X215632214Y-112549714D01*
X215560785Y-112621142D01*
X215417928Y-112692571D01*
X215203642Y-112692571D01*
X217489357Y-112692571D02*
X217489357Y-111192571D01*
X217632214Y-112121142D02*
X218060785Y-112692571D01*
X218060785Y-111692571D02*
X217489357Y-112264000D01*
X218917928Y-112692571D02*
X218775071Y-112621142D01*
X218703642Y-112549714D01*
X218632214Y-112406857D01*
X218632214Y-111978285D01*
X218703642Y-111835428D01*
X218775071Y-111764000D01*
X218917928Y-111692571D01*
X219132214Y-111692571D01*
X219275071Y-111764000D01*
X219346500Y-111835428D01*
X219417928Y-111978285D01*
X219417928Y-112406857D01*
X219346500Y-112549714D01*
X219275071Y-112621142D01*
X219132214Y-112692571D01*
X218917928Y-112692571D01*
X220060785Y-112692571D02*
X220060785Y-111692571D01*
X220060785Y-111835428D02*
X220132214Y-111764000D01*
X220275071Y-111692571D01*
X220489357Y-111692571D01*
X220632214Y-111764000D01*
X220703642Y-111906857D01*
X220703642Y-112692571D01*
X220703642Y-111906857D02*
X220775071Y-111764000D01*
X220917928Y-111692571D01*
X221132214Y-111692571D01*
X221275071Y-111764000D01*
X221346500Y-111906857D01*
X221346500Y-112692571D01*
X222060785Y-112692571D02*
X222060785Y-111692571D01*
X222060785Y-111835428D02*
X222132214Y-111764000D01*
X222275071Y-111692571D01*
X222489357Y-111692571D01*
X222632214Y-111764000D01*
X222703642Y-111906857D01*
X222703642Y-112692571D01*
X222703642Y-111906857D02*
X222775071Y-111764000D01*
X222917928Y-111692571D01*
X223132214Y-111692571D01*
X223275071Y-111764000D01*
X223346500Y-111906857D01*
X223346500Y-112692571D01*
X224703642Y-111692571D02*
X224703642Y-112692571D01*
X224060785Y-111692571D02*
X224060785Y-112478285D01*
X224132214Y-112621142D01*
X224275071Y-112692571D01*
X224489357Y-112692571D01*
X224632214Y-112621142D01*
X224703642Y-112549714D01*
X225417928Y-111692571D02*
X225417928Y-112692571D01*
X225417928Y-111835428D02*
X225489357Y-111764000D01*
X225632214Y-111692571D01*
X225846500Y-111692571D01*
X225989357Y-111764000D01*
X226060785Y-111906857D01*
X226060785Y-112692571D01*
X227346500Y-112621142D02*
X227203642Y-112692571D01*
X226917928Y-112692571D01*
X226775071Y-112621142D01*
X226703642Y-112478285D01*
X226703642Y-111906857D01*
X226775071Y-111764000D01*
X226917928Y-111692571D01*
X227203642Y-111692571D01*
X227346500Y-111764000D01*
X227417928Y-111906857D01*
X227417928Y-112049714D01*
X226703642Y-112192571D01*
X228060785Y-112549714D02*
X228132214Y-112621142D01*
X228060785Y-112692571D01*
X227989357Y-112621142D01*
X228060785Y-112549714D01*
X228060785Y-112692571D01*
X228060785Y-112121142D02*
X227989357Y-111264000D01*
X228060785Y-111192571D01*
X228132214Y-111264000D01*
X228060785Y-112121142D01*
X228060785Y-111192571D01*
D13*
G04 #@! TO.C,D13*
X222518000Y-128132000D02*
X222518000Y-125582000D01*
X224218000Y-128132000D02*
X224218000Y-125582000D01*
X222518000Y-128132000D02*
X224218000Y-128132000D01*
G04 #@! TO.C,L1*
X239600000Y-105000000D02*
X239600000Y-113000000D01*
X231400000Y-105000000D02*
X231400000Y-113000000D01*
G04 #@! TO.C,Q1*
X231440000Y-121804000D02*
X232370000Y-121804000D01*
X234600000Y-121804000D02*
X233670000Y-121804000D01*
X234600000Y-121804000D02*
X234600000Y-119644000D01*
X231440000Y-121804000D02*
X231440000Y-120344000D01*
G04 #@! TO.C,Q2*
X236520000Y-121804000D02*
X237450000Y-121804000D01*
X239680000Y-121804000D02*
X238750000Y-121804000D01*
X239680000Y-121804000D02*
X239680000Y-119644000D01*
X236520000Y-121804000D02*
X236520000Y-120344000D01*
G04 #@! TO.C,Q3*
X241600000Y-121804000D02*
X242530000Y-121804000D01*
X244760000Y-121804000D02*
X243830000Y-121804000D01*
X244760000Y-121804000D02*
X244760000Y-119644000D01*
X241600000Y-121804000D02*
X241600000Y-120344000D01*
G04 #@! TO.C,Q4*
X246680000Y-121804000D02*
X247610000Y-121804000D01*
X249840000Y-121804000D02*
X248910000Y-121804000D01*
X249840000Y-121804000D02*
X249840000Y-119644000D01*
X246680000Y-121804000D02*
X246680000Y-120344000D01*
G04 #@! TO.C,Q5*
X251760000Y-121804000D02*
X252690000Y-121804000D01*
X254920000Y-121804000D02*
X253990000Y-121804000D01*
X254920000Y-121804000D02*
X254920000Y-119644000D01*
X251760000Y-121804000D02*
X251760000Y-120344000D01*
G04 #@! TO.C,Q6*
X256840000Y-121804000D02*
X257770000Y-121804000D01*
X260000000Y-121804000D02*
X259070000Y-121804000D01*
X260000000Y-121804000D02*
X260000000Y-119644000D01*
X256840000Y-121804000D02*
X256840000Y-120344000D01*
G04 #@! TO.C,U1*
X243700000Y-107533000D02*
X241900000Y-107533000D01*
X241900000Y-110753000D02*
X244850000Y-110753000D01*
G04 #@! TO.C,J1*
X212330000Y-101170000D02*
X207130000Y-101170000D01*
X212330000Y-103770000D02*
X212330000Y-101170000D01*
X207130000Y-106370000D02*
X207130000Y-101170000D01*
X212330000Y-103770000D02*
X209730000Y-103770000D01*
X209730000Y-103770000D02*
X209730000Y-106370000D01*
X209730000Y-106370000D02*
X207130000Y-106370000D01*
X212330000Y-105040000D02*
X212330000Y-106370000D01*
X212330000Y-106370000D02*
X211000000Y-106370000D01*
G04 #@! TO.C,J2*
X226200000Y-103830000D02*
X226200000Y-101170000D01*
X215980000Y-103830000D02*
X226200000Y-103830000D01*
X215980000Y-101170000D02*
X226200000Y-101170000D01*
X215980000Y-103830000D02*
X215980000Y-101170000D01*
X214710000Y-103830000D02*
X213380000Y-103830000D01*
X213380000Y-103830000D02*
X213380000Y-102500000D01*
G04 #@! TO.C,TP1*
X231450000Y-103250000D02*
G75*
G03X231450000Y-103250000I-700000J0D01*
G01*
D14*
G04 #@! TO.C,C2*
X249896000Y-111343000D02*
X249896000Y-111485000D01*
X249896000Y-111485000D02*
X249896000Y-111343000D01*
X250838000Y-111343000D02*
X250838000Y-111485000D01*
X250838000Y-111485000D02*
X250838000Y-111343000D01*
G04 #@! TO.C,D21*
X253426000Y-101233000D02*
X252034000Y-101233000D01*
X252034000Y-101233000D02*
X253426000Y-101233000D01*
X253426000Y-102475000D02*
X252034000Y-102475000D01*
X252034000Y-102475000D02*
X253426000Y-102475000D01*
X255415000Y-101854000D02*
X255288000Y-101981000D01*
X255288000Y-101981000D02*
X255161000Y-101854000D01*
X255161000Y-101854000D02*
X255288000Y-101727000D01*
X255288000Y-101727000D02*
X255415000Y-101854000D01*
G04 #@! TO.C,D22*
X246804000Y-102521000D02*
X248196000Y-102521000D01*
X248196000Y-102521000D02*
X246804000Y-102521000D01*
X246804000Y-101279000D02*
X248196000Y-101279000D01*
X248196000Y-101279000D02*
X246804000Y-101279000D01*
X244815000Y-101900000D02*
X244942000Y-101773000D01*
X244942000Y-101773000D02*
X245069000Y-101900000D01*
X245069000Y-101900000D02*
X244942000Y-102027000D01*
X244942000Y-102027000D02*
X244815000Y-101900000D01*
G04 #@! TO.C,D23*
X240204000Y-102521000D02*
X241596000Y-102521000D01*
X241596000Y-102521000D02*
X240204000Y-102521000D01*
X240204000Y-101279000D02*
X241596000Y-101279000D01*
X241596000Y-101279000D02*
X240204000Y-101279000D01*
X238215000Y-101900000D02*
X238342000Y-101773000D01*
X238342000Y-101773000D02*
X238469000Y-101900000D01*
X238469000Y-101900000D02*
X238342000Y-102027000D01*
X238342000Y-102027000D02*
X238215000Y-101900000D01*
G04 #@! TO.C,D2*
X232907000Y-116284000D02*
X232907000Y-117676000D01*
X232907000Y-117676000D02*
X232907000Y-116284000D01*
X234149000Y-116284000D02*
X234149000Y-117676000D01*
X234149000Y-117676000D02*
X234149000Y-116284000D01*
X233528000Y-114295000D02*
X233655000Y-114422000D01*
X233655000Y-114422000D02*
X233528000Y-114549000D01*
X233528000Y-114549000D02*
X233401000Y-114422000D01*
X233401000Y-114422000D02*
X233528000Y-114295000D01*
G04 #@! TO.C,D4*
X237987000Y-116284000D02*
X237987000Y-117676000D01*
X237987000Y-117676000D02*
X237987000Y-116284000D01*
X239229000Y-116284000D02*
X239229000Y-117676000D01*
X239229000Y-117676000D02*
X239229000Y-116284000D01*
X238608000Y-114295000D02*
X238735000Y-114422000D01*
X238735000Y-114422000D02*
X238608000Y-114549000D01*
X238608000Y-114549000D02*
X238481000Y-114422000D01*
X238481000Y-114422000D02*
X238608000Y-114295000D01*
G04 #@! TO.C,D6*
X243067000Y-116284000D02*
X243067000Y-117676000D01*
X243067000Y-117676000D02*
X243067000Y-116284000D01*
X244309000Y-116284000D02*
X244309000Y-117676000D01*
X244309000Y-117676000D02*
X244309000Y-116284000D01*
X243688000Y-114295000D02*
X243815000Y-114422000D01*
X243815000Y-114422000D02*
X243688000Y-114549000D01*
X243688000Y-114549000D02*
X243561000Y-114422000D01*
X243561000Y-114422000D02*
X243688000Y-114295000D01*
G04 #@! TO.C,D8*
X248147000Y-116284000D02*
X248147000Y-117676000D01*
X248147000Y-117676000D02*
X248147000Y-116284000D01*
X249389000Y-116284000D02*
X249389000Y-117676000D01*
X249389000Y-117676000D02*
X249389000Y-116284000D01*
X248768000Y-114295000D02*
X248895000Y-114422000D01*
X248895000Y-114422000D02*
X248768000Y-114549000D01*
X248768000Y-114549000D02*
X248641000Y-114422000D01*
X248641000Y-114422000D02*
X248768000Y-114295000D01*
G04 #@! TO.C,D10*
X253227000Y-116284000D02*
X253227000Y-117676000D01*
X253227000Y-117676000D02*
X253227000Y-116284000D01*
X254469000Y-116284000D02*
X254469000Y-117676000D01*
X254469000Y-117676000D02*
X254469000Y-116284000D01*
X253848000Y-114295000D02*
X253975000Y-114422000D01*
X253975000Y-114422000D02*
X253848000Y-114549000D01*
X253848000Y-114549000D02*
X253721000Y-114422000D01*
X253721000Y-114422000D02*
X253848000Y-114295000D01*
G04 #@! TO.C,D12*
X258307000Y-116284000D02*
X258307000Y-117676000D01*
X258307000Y-117676000D02*
X258307000Y-116284000D01*
X259549000Y-116284000D02*
X259549000Y-117676000D01*
X259549000Y-117676000D02*
X259549000Y-116284000D01*
X258928000Y-114295000D02*
X259055000Y-114422000D01*
X259055000Y-114422000D02*
X258928000Y-114549000D01*
X258928000Y-114549000D02*
X258801000Y-114422000D01*
X258801000Y-114422000D02*
X258928000Y-114295000D01*
D13*
G04 #@! TO.C,U2*
X201850000Y-118650000D02*
X201850000Y-117350000D01*
X203650000Y-117100000D02*
X203650000Y-118650000D01*
G04 #@! TO.C,D1*
X234670000Y-122978000D02*
X231370000Y-122978000D01*
X231370000Y-122978000D02*
X231370000Y-128378000D01*
X234670000Y-122978000D02*
X234670000Y-128378000D01*
G04 #@! TO.C,D3*
X239750000Y-122978000D02*
X236450000Y-122978000D01*
X236450000Y-122978000D02*
X236450000Y-128378000D01*
X239750000Y-122978000D02*
X239750000Y-128378000D01*
G04 #@! TO.C,D5*
X244830000Y-122978000D02*
X241530000Y-122978000D01*
X241530000Y-122978000D02*
X241530000Y-128378000D01*
X244830000Y-122978000D02*
X244830000Y-128378000D01*
G04 #@! TO.C,D7*
X249910000Y-122978000D02*
X246610000Y-122978000D01*
X246610000Y-122978000D02*
X246610000Y-128378000D01*
X249910000Y-122978000D02*
X249910000Y-128378000D01*
G04 #@! TO.C,D11*
X260070000Y-122978000D02*
X256770000Y-122978000D01*
X256770000Y-122978000D02*
X256770000Y-128378000D01*
X260070000Y-122978000D02*
X260070000Y-128378000D01*
G04 #@! TO.C,D9*
X254990000Y-122978000D02*
X251690000Y-122978000D01*
X251690000Y-122978000D02*
X251690000Y-128378000D01*
X254990000Y-122978000D02*
X254990000Y-128378000D01*
D14*
G04 #@! TO.C,C1*
X243079000Y-112614000D02*
X243221000Y-112614000D01*
X243221000Y-112614000D02*
X243079000Y-112614000D01*
X243079000Y-111672000D02*
X243221000Y-111672000D01*
X243221000Y-111672000D02*
X243079000Y-111672000D01*
G04 #@! TO.C,C3*
X247996000Y-111343000D02*
X247996000Y-111485000D01*
X247996000Y-111485000D02*
X247996000Y-111343000D01*
X248938000Y-111343000D02*
X248938000Y-111485000D01*
X248938000Y-111485000D02*
X248938000Y-111343000D01*
G04 #@! TO.C,C5*
X235971000Y-103071000D02*
X235971000Y-102929000D01*
X235971000Y-102929000D02*
X235971000Y-103071000D01*
X235029000Y-103071000D02*
X235029000Y-102929000D01*
X235029000Y-102929000D02*
X235029000Y-103071000D01*
G04 #@! TO.C,C6*
X233471000Y-103071000D02*
X233471000Y-102929000D01*
X233471000Y-102929000D02*
X233471000Y-103071000D01*
X232529000Y-103071000D02*
X232529000Y-102929000D01*
X232529000Y-102929000D02*
X232529000Y-103071000D01*
D13*
G04 #@! TO.C,Q7*
X250260000Y-108580000D02*
X250260000Y-107650000D01*
X250260000Y-105420000D02*
X250260000Y-106350000D01*
X250260000Y-105420000D02*
X248100000Y-105420000D01*
X250260000Y-108580000D02*
X248800000Y-108580000D01*
G04 #@! TO.C,D14*
X219978000Y-128132000D02*
X219978000Y-125582000D01*
X221678000Y-128132000D02*
X221678000Y-125582000D01*
X219978000Y-128132000D02*
X221678000Y-128132000D01*
G04 #@! TO.C,D15*
X217438000Y-128132000D02*
X219138000Y-128132000D01*
X219138000Y-128132000D02*
X219138000Y-125582000D01*
X217438000Y-128132000D02*
X217438000Y-125582000D01*
G04 #@! TO.C,D16*
X214898000Y-128132000D02*
X216598000Y-128132000D01*
X216598000Y-128132000D02*
X216598000Y-125582000D01*
X214898000Y-128132000D02*
X214898000Y-125582000D01*
G04 #@! TO.C,D17*
X212358000Y-128132000D02*
X212358000Y-125582000D01*
X214058000Y-128132000D02*
X214058000Y-125582000D01*
X212358000Y-128132000D02*
X214058000Y-128132000D01*
G04 #@! TO.C,D18*
X209818000Y-128132000D02*
X211518000Y-128132000D01*
X211518000Y-128132000D02*
X211518000Y-125582000D01*
X209818000Y-128132000D02*
X209818000Y-125582000D01*
G04 #@! TO.C,D19*
X207278000Y-128132000D02*
X207278000Y-125582000D01*
X208978000Y-128132000D02*
X208978000Y-125582000D01*
X207278000Y-128132000D02*
X208978000Y-128132000D01*
G04 #@! TO.C,D20*
X204738000Y-128132000D02*
X206438000Y-128132000D01*
X206438000Y-128132000D02*
X206438000Y-125582000D01*
X204738000Y-128132000D02*
X204738000Y-125582000D01*
G04 #@! TO.C,P2*
D14*
X213370857Y-137724571D02*
X213370857Y-136224571D01*
X213942285Y-136224571D01*
X214085142Y-136296000D01*
X214156571Y-136367428D01*
X214228000Y-136510285D01*
X214228000Y-136724571D01*
X214156571Y-136867428D01*
X214085142Y-136938857D01*
X213942285Y-137010285D01*
X213370857Y-137010285D01*
X214799428Y-136367428D02*
X214870857Y-136296000D01*
X215013714Y-136224571D01*
X215370857Y-136224571D01*
X215513714Y-136296000D01*
X215585142Y-136367428D01*
X215656571Y-136510285D01*
X215656571Y-136653142D01*
X215585142Y-136867428D01*
X214728000Y-137724571D01*
X215656571Y-137724571D01*
G04 #@! TO.C,P4*
X260139571Y-109565142D02*
X258639571Y-109565142D01*
X258639571Y-108993714D01*
X258711000Y-108850857D01*
X258782428Y-108779428D01*
X258925285Y-108708000D01*
X259139571Y-108708000D01*
X259282428Y-108779428D01*
X259353857Y-108850857D01*
X259425285Y-108993714D01*
X259425285Y-109565142D01*
X259139571Y-107422285D02*
X260139571Y-107422285D01*
X258568142Y-107779428D02*
X259639571Y-108136571D01*
X259639571Y-107208000D01*
G04 #@! TO.C,P1*
X244612857Y-137724571D02*
X244612857Y-136224571D01*
X245184285Y-136224571D01*
X245327142Y-136296000D01*
X245398571Y-136367428D01*
X245470000Y-136510285D01*
X245470000Y-136724571D01*
X245398571Y-136867428D01*
X245327142Y-136938857D01*
X245184285Y-137010285D01*
X244612857Y-137010285D01*
X246898571Y-137724571D02*
X246041428Y-137724571D01*
X246470000Y-137724571D02*
X246470000Y-136224571D01*
X246327142Y-136438857D01*
X246184285Y-136581714D01*
X246041428Y-136653142D01*
G04 #@! TO.C,L1*
X240952380Y-109166666D02*
X240952380Y-109642857D01*
X239952380Y-109642857D01*
X240952380Y-108309523D02*
X240952380Y-108880952D01*
X240952380Y-108595238D02*
X239952380Y-108595238D01*
X240095238Y-108690476D01*
X240190476Y-108785714D01*
X240238095Y-108880952D01*
G04 #@! TO.C,Q1*
X236067619Y-121139238D02*
X236020000Y-121234476D01*
X235924761Y-121329714D01*
X235781904Y-121472571D01*
X235734285Y-121567809D01*
X235734285Y-121663047D01*
X235972380Y-121615428D02*
X235924761Y-121710666D01*
X235829523Y-121805904D01*
X235639047Y-121853523D01*
X235305714Y-121853523D01*
X235115238Y-121805904D01*
X235020000Y-121710666D01*
X234972380Y-121615428D01*
X234972380Y-121424952D01*
X235020000Y-121329714D01*
X235115238Y-121234476D01*
X235305714Y-121186857D01*
X235639047Y-121186857D01*
X235829523Y-121234476D01*
X235924761Y-121329714D01*
X235972380Y-121424952D01*
X235972380Y-121615428D01*
X235972380Y-120234476D02*
X235972380Y-120805904D01*
X235972380Y-120520190D02*
X234972380Y-120520190D01*
X235115238Y-120615428D01*
X235210476Y-120710666D01*
X235258095Y-120805904D01*
G04 #@! TO.C,Q2*
X241147619Y-121139238D02*
X241100000Y-121234476D01*
X241004761Y-121329714D01*
X240861904Y-121472571D01*
X240814285Y-121567809D01*
X240814285Y-121663047D01*
X241052380Y-121615428D02*
X241004761Y-121710666D01*
X240909523Y-121805904D01*
X240719047Y-121853523D01*
X240385714Y-121853523D01*
X240195238Y-121805904D01*
X240100000Y-121710666D01*
X240052380Y-121615428D01*
X240052380Y-121424952D01*
X240100000Y-121329714D01*
X240195238Y-121234476D01*
X240385714Y-121186857D01*
X240719047Y-121186857D01*
X240909523Y-121234476D01*
X241004761Y-121329714D01*
X241052380Y-121424952D01*
X241052380Y-121615428D01*
X240147619Y-120805904D02*
X240100000Y-120758285D01*
X240052380Y-120663047D01*
X240052380Y-120424952D01*
X240100000Y-120329714D01*
X240147619Y-120282095D01*
X240242857Y-120234476D01*
X240338095Y-120234476D01*
X240480952Y-120282095D01*
X241052380Y-120853523D01*
X241052380Y-120234476D01*
G04 #@! TO.C,Q3*
X246227619Y-121139238D02*
X246180000Y-121234476D01*
X246084761Y-121329714D01*
X245941904Y-121472571D01*
X245894285Y-121567809D01*
X245894285Y-121663047D01*
X246132380Y-121615428D02*
X246084761Y-121710666D01*
X245989523Y-121805904D01*
X245799047Y-121853523D01*
X245465714Y-121853523D01*
X245275238Y-121805904D01*
X245180000Y-121710666D01*
X245132380Y-121615428D01*
X245132380Y-121424952D01*
X245180000Y-121329714D01*
X245275238Y-121234476D01*
X245465714Y-121186857D01*
X245799047Y-121186857D01*
X245989523Y-121234476D01*
X246084761Y-121329714D01*
X246132380Y-121424952D01*
X246132380Y-121615428D01*
X245132380Y-120853523D02*
X245132380Y-120234476D01*
X245513333Y-120567809D01*
X245513333Y-120424952D01*
X245560952Y-120329714D01*
X245608571Y-120282095D01*
X245703809Y-120234476D01*
X245941904Y-120234476D01*
X246037142Y-120282095D01*
X246084761Y-120329714D01*
X246132380Y-120424952D01*
X246132380Y-120710666D01*
X246084761Y-120805904D01*
X246037142Y-120853523D01*
G04 #@! TO.C,Q4*
X251307619Y-121139238D02*
X251260000Y-121234476D01*
X251164761Y-121329714D01*
X251021904Y-121472571D01*
X250974285Y-121567809D01*
X250974285Y-121663047D01*
X251212380Y-121615428D02*
X251164761Y-121710666D01*
X251069523Y-121805904D01*
X250879047Y-121853523D01*
X250545714Y-121853523D01*
X250355238Y-121805904D01*
X250260000Y-121710666D01*
X250212380Y-121615428D01*
X250212380Y-121424952D01*
X250260000Y-121329714D01*
X250355238Y-121234476D01*
X250545714Y-121186857D01*
X250879047Y-121186857D01*
X251069523Y-121234476D01*
X251164761Y-121329714D01*
X251212380Y-121424952D01*
X251212380Y-121615428D01*
X250545714Y-120329714D02*
X251212380Y-120329714D01*
X250164761Y-120567809D02*
X250879047Y-120805904D01*
X250879047Y-120186857D01*
G04 #@! TO.C,Q5*
X256387619Y-121139238D02*
X256340000Y-121234476D01*
X256244761Y-121329714D01*
X256101904Y-121472571D01*
X256054285Y-121567809D01*
X256054285Y-121663047D01*
X256292380Y-121615428D02*
X256244761Y-121710666D01*
X256149523Y-121805904D01*
X255959047Y-121853523D01*
X255625714Y-121853523D01*
X255435238Y-121805904D01*
X255340000Y-121710666D01*
X255292380Y-121615428D01*
X255292380Y-121424952D01*
X255340000Y-121329714D01*
X255435238Y-121234476D01*
X255625714Y-121186857D01*
X255959047Y-121186857D01*
X256149523Y-121234476D01*
X256244761Y-121329714D01*
X256292380Y-121424952D01*
X256292380Y-121615428D01*
X255292380Y-120282095D02*
X255292380Y-120758285D01*
X255768571Y-120805904D01*
X255720952Y-120758285D01*
X255673333Y-120663047D01*
X255673333Y-120424952D01*
X255720952Y-120329714D01*
X255768571Y-120282095D01*
X255863809Y-120234476D01*
X256101904Y-120234476D01*
X256197142Y-120282095D01*
X256244761Y-120329714D01*
X256292380Y-120424952D01*
X256292380Y-120663047D01*
X256244761Y-120758285D01*
X256197142Y-120805904D01*
G04 #@! TO.C,Q6*
X261467619Y-121139238D02*
X261420000Y-121234476D01*
X261324761Y-121329714D01*
X261181904Y-121472571D01*
X261134285Y-121567809D01*
X261134285Y-121663047D01*
X261372380Y-121615428D02*
X261324761Y-121710666D01*
X261229523Y-121805904D01*
X261039047Y-121853523D01*
X260705714Y-121853523D01*
X260515238Y-121805904D01*
X260420000Y-121710666D01*
X260372380Y-121615428D01*
X260372380Y-121424952D01*
X260420000Y-121329714D01*
X260515238Y-121234476D01*
X260705714Y-121186857D01*
X261039047Y-121186857D01*
X261229523Y-121234476D01*
X261324761Y-121329714D01*
X261372380Y-121424952D01*
X261372380Y-121615428D01*
X260372380Y-120329714D02*
X260372380Y-120520190D01*
X260420000Y-120615428D01*
X260467619Y-120663047D01*
X260610476Y-120758285D01*
X260800952Y-120805904D01*
X261181904Y-120805904D01*
X261277142Y-120758285D01*
X261324761Y-120710666D01*
X261372380Y-120615428D01*
X261372380Y-120424952D01*
X261324761Y-120329714D01*
X261277142Y-120282095D01*
X261181904Y-120234476D01*
X260943809Y-120234476D01*
X260848571Y-120282095D01*
X260800952Y-120329714D01*
X260753333Y-120424952D01*
X260753333Y-120615428D01*
X260800952Y-120710666D01*
X260848571Y-120758285D01*
X260943809Y-120805904D01*
G04 #@! TO.C,U1*
X242038095Y-111495380D02*
X242038095Y-112304904D01*
X242085714Y-112400142D01*
X242133333Y-112447761D01*
X242228571Y-112495380D01*
X242419047Y-112495380D01*
X242514285Y-112447761D01*
X242561904Y-112400142D01*
X242609523Y-112304904D01*
X242609523Y-111495380D01*
X243609523Y-112495380D02*
X243038095Y-112495380D01*
X243323809Y-112495380D02*
X243323809Y-111495380D01*
X243228571Y-111638238D01*
X243133333Y-111733476D01*
X243038095Y-111781095D01*
G04 #@! TO.C,TP1*
X229294285Y-101861428D02*
X230056190Y-101861428D01*
X229675238Y-102242380D02*
X229675238Y-101480476D01*
X231008571Y-101242380D02*
X230532380Y-101242380D01*
X230484761Y-101718571D01*
X230532380Y-101670952D01*
X230627619Y-101623333D01*
X230865714Y-101623333D01*
X230960952Y-101670952D01*
X231008571Y-101718571D01*
X231056190Y-101813809D01*
X231056190Y-102051904D01*
X231008571Y-102147142D01*
X230960952Y-102194761D01*
X230865714Y-102242380D01*
X230627619Y-102242380D01*
X230532380Y-102194761D01*
X230484761Y-102147142D01*
X231341904Y-101242380D02*
X231675238Y-102242380D01*
X232008571Y-101242380D01*
G04 #@! TO.C,R2*
X232111904Y-116097333D02*
X231730952Y-116364000D01*
X232111904Y-116554476D02*
X231311904Y-116554476D01*
X231311904Y-116249714D01*
X231350000Y-116173523D01*
X231388095Y-116135428D01*
X231464285Y-116097333D01*
X231578571Y-116097333D01*
X231654761Y-116135428D01*
X231692857Y-116173523D01*
X231730952Y-116249714D01*
X231730952Y-116554476D01*
X231388095Y-115792571D02*
X231350000Y-115754476D01*
X231311904Y-115678285D01*
X231311904Y-115487809D01*
X231350000Y-115411619D01*
X231388095Y-115373523D01*
X231464285Y-115335428D01*
X231540476Y-115335428D01*
X231654761Y-115373523D01*
X232111904Y-115830666D01*
X232111904Y-115335428D01*
G04 #@! TO.C,R4*
X237191904Y-116097333D02*
X236810952Y-116364000D01*
X237191904Y-116554476D02*
X236391904Y-116554476D01*
X236391904Y-116249714D01*
X236430000Y-116173523D01*
X236468095Y-116135428D01*
X236544285Y-116097333D01*
X236658571Y-116097333D01*
X236734761Y-116135428D01*
X236772857Y-116173523D01*
X236810952Y-116249714D01*
X236810952Y-116554476D01*
X236658571Y-115411619D02*
X237191904Y-115411619D01*
X236353809Y-115602095D02*
X236925238Y-115792571D01*
X236925238Y-115297333D01*
G04 #@! TO.C,R6*
X242271904Y-116097333D02*
X241890952Y-116364000D01*
X242271904Y-116554476D02*
X241471904Y-116554476D01*
X241471904Y-116249714D01*
X241510000Y-116173523D01*
X241548095Y-116135428D01*
X241624285Y-116097333D01*
X241738571Y-116097333D01*
X241814761Y-116135428D01*
X241852857Y-116173523D01*
X241890952Y-116249714D01*
X241890952Y-116554476D01*
X241471904Y-115411619D02*
X241471904Y-115564000D01*
X241510000Y-115640190D01*
X241548095Y-115678285D01*
X241662380Y-115754476D01*
X241814761Y-115792571D01*
X242119523Y-115792571D01*
X242195714Y-115754476D01*
X242233809Y-115716380D01*
X242271904Y-115640190D01*
X242271904Y-115487809D01*
X242233809Y-115411619D01*
X242195714Y-115373523D01*
X242119523Y-115335428D01*
X241929047Y-115335428D01*
X241852857Y-115373523D01*
X241814761Y-115411619D01*
X241776666Y-115487809D01*
X241776666Y-115640190D01*
X241814761Y-115716380D01*
X241852857Y-115754476D01*
X241929047Y-115792571D01*
G04 #@! TO.C,R8*
X247351904Y-116097333D02*
X246970952Y-116364000D01*
X247351904Y-116554476D02*
X246551904Y-116554476D01*
X246551904Y-116249714D01*
X246590000Y-116173523D01*
X246628095Y-116135428D01*
X246704285Y-116097333D01*
X246818571Y-116097333D01*
X246894761Y-116135428D01*
X246932857Y-116173523D01*
X246970952Y-116249714D01*
X246970952Y-116554476D01*
X246894761Y-115640190D02*
X246856666Y-115716380D01*
X246818571Y-115754476D01*
X246742380Y-115792571D01*
X246704285Y-115792571D01*
X246628095Y-115754476D01*
X246590000Y-115716380D01*
X246551904Y-115640190D01*
X246551904Y-115487809D01*
X246590000Y-115411619D01*
X246628095Y-115373523D01*
X246704285Y-115335428D01*
X246742380Y-115335428D01*
X246818571Y-115373523D01*
X246856666Y-115411619D01*
X246894761Y-115487809D01*
X246894761Y-115640190D01*
X246932857Y-115716380D01*
X246970952Y-115754476D01*
X247047142Y-115792571D01*
X247199523Y-115792571D01*
X247275714Y-115754476D01*
X247313809Y-115716380D01*
X247351904Y-115640190D01*
X247351904Y-115487809D01*
X247313809Y-115411619D01*
X247275714Y-115373523D01*
X247199523Y-115335428D01*
X247047142Y-115335428D01*
X246970952Y-115373523D01*
X246932857Y-115411619D01*
X246894761Y-115487809D01*
G04 #@! TO.C,R10*
X252431904Y-116478285D02*
X252050952Y-116744952D01*
X252431904Y-116935428D02*
X251631904Y-116935428D01*
X251631904Y-116630666D01*
X251670000Y-116554476D01*
X251708095Y-116516380D01*
X251784285Y-116478285D01*
X251898571Y-116478285D01*
X251974761Y-116516380D01*
X252012857Y-116554476D01*
X252050952Y-116630666D01*
X252050952Y-116935428D01*
X252431904Y-115716380D02*
X252431904Y-116173523D01*
X252431904Y-115944952D02*
X251631904Y-115944952D01*
X251746190Y-116021142D01*
X251822380Y-116097333D01*
X251860476Y-116173523D01*
X251631904Y-115221142D02*
X251631904Y-115144952D01*
X251670000Y-115068761D01*
X251708095Y-115030666D01*
X251784285Y-114992571D01*
X251936666Y-114954476D01*
X252127142Y-114954476D01*
X252279523Y-114992571D01*
X252355714Y-115030666D01*
X252393809Y-115068761D01*
X252431904Y-115144952D01*
X252431904Y-115221142D01*
X252393809Y-115297333D01*
X252355714Y-115335428D01*
X252279523Y-115373523D01*
X252127142Y-115411619D01*
X251936666Y-115411619D01*
X251784285Y-115373523D01*
X251708095Y-115335428D01*
X251670000Y-115297333D01*
X251631904Y-115221142D01*
G04 #@! TO.C,R12*
X257511904Y-116478285D02*
X257130952Y-116744952D01*
X257511904Y-116935428D02*
X256711904Y-116935428D01*
X256711904Y-116630666D01*
X256750000Y-116554476D01*
X256788095Y-116516380D01*
X256864285Y-116478285D01*
X256978571Y-116478285D01*
X257054761Y-116516380D01*
X257092857Y-116554476D01*
X257130952Y-116630666D01*
X257130952Y-116935428D01*
X257511904Y-115716380D02*
X257511904Y-116173523D01*
X257511904Y-115944952D02*
X256711904Y-115944952D01*
X256826190Y-116021142D01*
X256902380Y-116097333D01*
X256940476Y-116173523D01*
X256788095Y-115411619D02*
X256750000Y-115373523D01*
X256711904Y-115297333D01*
X256711904Y-115106857D01*
X256750000Y-115030666D01*
X256788095Y-114992571D01*
X256864285Y-114954476D01*
X256940476Y-114954476D01*
X257054761Y-114992571D01*
X257511904Y-115449714D01*
X257511904Y-114954476D01*
G04 #@! TO.C,R27*
X244261904Y-102414285D02*
X243880952Y-102680952D01*
X244261904Y-102871428D02*
X243461904Y-102871428D01*
X243461904Y-102566666D01*
X243500000Y-102490476D01*
X243538095Y-102452380D01*
X243614285Y-102414285D01*
X243728571Y-102414285D01*
X243804761Y-102452380D01*
X243842857Y-102490476D01*
X243880952Y-102566666D01*
X243880952Y-102871428D01*
X243538095Y-102109523D02*
X243500000Y-102071428D01*
X243461904Y-101995238D01*
X243461904Y-101804761D01*
X243500000Y-101728571D01*
X243538095Y-101690476D01*
X243614285Y-101652380D01*
X243690476Y-101652380D01*
X243804761Y-101690476D01*
X244261904Y-102147619D01*
X244261904Y-101652380D01*
X243461904Y-101385714D02*
X243461904Y-100852380D01*
X244261904Y-101195238D01*
G04 #@! TO.C,R28*
X237661904Y-102414285D02*
X237280952Y-102680952D01*
X237661904Y-102871428D02*
X236861904Y-102871428D01*
X236861904Y-102566666D01*
X236900000Y-102490476D01*
X236938095Y-102452380D01*
X237014285Y-102414285D01*
X237128571Y-102414285D01*
X237204761Y-102452380D01*
X237242857Y-102490476D01*
X237280952Y-102566666D01*
X237280952Y-102871428D01*
X236938095Y-102109523D02*
X236900000Y-102071428D01*
X236861904Y-101995238D01*
X236861904Y-101804761D01*
X236900000Y-101728571D01*
X236938095Y-101690476D01*
X237014285Y-101652380D01*
X237090476Y-101652380D01*
X237204761Y-101690476D01*
X237661904Y-102147619D01*
X237661904Y-101652380D01*
X237204761Y-101195238D02*
X237166666Y-101271428D01*
X237128571Y-101309523D01*
X237052380Y-101347619D01*
X237014285Y-101347619D01*
X236938095Y-101309523D01*
X236900000Y-101271428D01*
X236861904Y-101195238D01*
X236861904Y-101042857D01*
X236900000Y-100966666D01*
X236938095Y-100928571D01*
X237014285Y-100890476D01*
X237052380Y-100890476D01*
X237128571Y-100928571D01*
X237166666Y-100966666D01*
X237204761Y-101042857D01*
X237204761Y-101195238D01*
X237242857Y-101271428D01*
X237280952Y-101309523D01*
X237357142Y-101347619D01*
X237509523Y-101347619D01*
X237585714Y-101309523D01*
X237623809Y-101271428D01*
X237661904Y-101195238D01*
X237661904Y-101042857D01*
X237623809Y-100966666D01*
X237585714Y-100928571D01*
X237509523Y-100890476D01*
X237357142Y-100890476D01*
X237280952Y-100928571D01*
X237242857Y-100966666D01*
X237204761Y-101042857D01*
G04 #@! TO.C,C2*
X250652714Y-111547333D02*
X250690809Y-111585428D01*
X250728904Y-111699714D01*
X250728904Y-111775904D01*
X250690809Y-111890190D01*
X250614619Y-111966380D01*
X250538428Y-112004476D01*
X250386047Y-112042571D01*
X250271761Y-112042571D01*
X250119380Y-112004476D01*
X250043190Y-111966380D01*
X249967000Y-111890190D01*
X249928904Y-111775904D01*
X249928904Y-111699714D01*
X249967000Y-111585428D01*
X250005095Y-111547333D01*
X250005095Y-111242571D02*
X249967000Y-111204476D01*
X249928904Y-111128285D01*
X249928904Y-110937809D01*
X249967000Y-110861619D01*
X250005095Y-110823523D01*
X250081285Y-110785428D01*
X250157476Y-110785428D01*
X250271761Y-110823523D01*
X250728904Y-111280666D01*
X250728904Y-110785428D01*
G04 #@! TO.C,D21*
X251758571Y-102215904D02*
X251758571Y-101415904D01*
X251949047Y-101415904D01*
X252063333Y-101454000D01*
X252139523Y-101530190D01*
X252177619Y-101606380D01*
X252215714Y-101758761D01*
X252215714Y-101873047D01*
X252177619Y-102025428D01*
X252139523Y-102101619D01*
X252063333Y-102177809D01*
X251949047Y-102215904D01*
X251758571Y-102215904D01*
X252520476Y-101492095D02*
X252558571Y-101454000D01*
X252634761Y-101415904D01*
X252825238Y-101415904D01*
X252901428Y-101454000D01*
X252939523Y-101492095D01*
X252977619Y-101568285D01*
X252977619Y-101644476D01*
X252939523Y-101758761D01*
X252482380Y-102215904D01*
X252977619Y-102215904D01*
X253739523Y-102215904D02*
X253282380Y-102215904D01*
X253510952Y-102215904D02*
X253510952Y-101415904D01*
X253434761Y-101530190D01*
X253358571Y-101606380D01*
X253282380Y-101644476D01*
G04 #@! TO.C,D22*
X246528571Y-102261904D02*
X246528571Y-101461904D01*
X246719047Y-101461904D01*
X246833333Y-101500000D01*
X246909523Y-101576190D01*
X246947619Y-101652380D01*
X246985714Y-101804761D01*
X246985714Y-101919047D01*
X246947619Y-102071428D01*
X246909523Y-102147619D01*
X246833333Y-102223809D01*
X246719047Y-102261904D01*
X246528571Y-102261904D01*
X247290476Y-101538095D02*
X247328571Y-101500000D01*
X247404761Y-101461904D01*
X247595238Y-101461904D01*
X247671428Y-101500000D01*
X247709523Y-101538095D01*
X247747619Y-101614285D01*
X247747619Y-101690476D01*
X247709523Y-101804761D01*
X247252380Y-102261904D01*
X247747619Y-102261904D01*
X248052380Y-101538095D02*
X248090476Y-101500000D01*
X248166666Y-101461904D01*
X248357142Y-101461904D01*
X248433333Y-101500000D01*
X248471428Y-101538095D01*
X248509523Y-101614285D01*
X248509523Y-101690476D01*
X248471428Y-101804761D01*
X248014285Y-102261904D01*
X248509523Y-102261904D01*
G04 #@! TO.C,D23*
X239928571Y-102261904D02*
X239928571Y-101461904D01*
X240119047Y-101461904D01*
X240233333Y-101500000D01*
X240309523Y-101576190D01*
X240347619Y-101652380D01*
X240385714Y-101804761D01*
X240385714Y-101919047D01*
X240347619Y-102071428D01*
X240309523Y-102147619D01*
X240233333Y-102223809D01*
X240119047Y-102261904D01*
X239928571Y-102261904D01*
X240690476Y-101538095D02*
X240728571Y-101500000D01*
X240804761Y-101461904D01*
X240995238Y-101461904D01*
X241071428Y-101500000D01*
X241109523Y-101538095D01*
X241147619Y-101614285D01*
X241147619Y-101690476D01*
X241109523Y-101804761D01*
X240652380Y-102261904D01*
X241147619Y-102261904D01*
X241414285Y-101461904D02*
X241909523Y-101461904D01*
X241642857Y-101766666D01*
X241757142Y-101766666D01*
X241833333Y-101804761D01*
X241871428Y-101842857D01*
X241909523Y-101919047D01*
X241909523Y-102109523D01*
X241871428Y-102185714D01*
X241833333Y-102223809D01*
X241757142Y-102261904D01*
X241528571Y-102261904D01*
X241452380Y-102223809D01*
X241414285Y-102185714D01*
G04 #@! TO.C,R1*
X232111904Y-118383333D02*
X231730952Y-118650000D01*
X232111904Y-118840476D02*
X231311904Y-118840476D01*
X231311904Y-118535714D01*
X231350000Y-118459523D01*
X231388095Y-118421428D01*
X231464285Y-118383333D01*
X231578571Y-118383333D01*
X231654761Y-118421428D01*
X231692857Y-118459523D01*
X231730952Y-118535714D01*
X231730952Y-118840476D01*
X232111904Y-117621428D02*
X232111904Y-118078571D01*
X232111904Y-117850000D02*
X231311904Y-117850000D01*
X231426190Y-117926190D01*
X231502380Y-118002380D01*
X231540476Y-118078571D01*
G04 #@! TO.C,R3*
X237191904Y-118383333D02*
X236810952Y-118650000D01*
X237191904Y-118840476D02*
X236391904Y-118840476D01*
X236391904Y-118535714D01*
X236430000Y-118459523D01*
X236468095Y-118421428D01*
X236544285Y-118383333D01*
X236658571Y-118383333D01*
X236734761Y-118421428D01*
X236772857Y-118459523D01*
X236810952Y-118535714D01*
X236810952Y-118840476D01*
X236391904Y-118116666D02*
X236391904Y-117621428D01*
X236696666Y-117888095D01*
X236696666Y-117773809D01*
X236734761Y-117697619D01*
X236772857Y-117659523D01*
X236849047Y-117621428D01*
X237039523Y-117621428D01*
X237115714Y-117659523D01*
X237153809Y-117697619D01*
X237191904Y-117773809D01*
X237191904Y-118002380D01*
X237153809Y-118078571D01*
X237115714Y-118116666D01*
G04 #@! TO.C,R5*
X242271904Y-118383333D02*
X241890952Y-118650000D01*
X242271904Y-118840476D02*
X241471904Y-118840476D01*
X241471904Y-118535714D01*
X241510000Y-118459523D01*
X241548095Y-118421428D01*
X241624285Y-118383333D01*
X241738571Y-118383333D01*
X241814761Y-118421428D01*
X241852857Y-118459523D01*
X241890952Y-118535714D01*
X241890952Y-118840476D01*
X241471904Y-117659523D02*
X241471904Y-118040476D01*
X241852857Y-118078571D01*
X241814761Y-118040476D01*
X241776666Y-117964285D01*
X241776666Y-117773809D01*
X241814761Y-117697619D01*
X241852857Y-117659523D01*
X241929047Y-117621428D01*
X242119523Y-117621428D01*
X242195714Y-117659523D01*
X242233809Y-117697619D01*
X242271904Y-117773809D01*
X242271904Y-117964285D01*
X242233809Y-118040476D01*
X242195714Y-118078571D01*
G04 #@! TO.C,R7*
X247351904Y-118383333D02*
X246970952Y-118650000D01*
X247351904Y-118840476D02*
X246551904Y-118840476D01*
X246551904Y-118535714D01*
X246590000Y-118459523D01*
X246628095Y-118421428D01*
X246704285Y-118383333D01*
X246818571Y-118383333D01*
X246894761Y-118421428D01*
X246932857Y-118459523D01*
X246970952Y-118535714D01*
X246970952Y-118840476D01*
X246551904Y-118116666D02*
X246551904Y-117583333D01*
X247351904Y-117926190D01*
G04 #@! TO.C,R9*
X252431904Y-118383333D02*
X252050952Y-118650000D01*
X252431904Y-118840476D02*
X251631904Y-118840476D01*
X251631904Y-118535714D01*
X251670000Y-118459523D01*
X251708095Y-118421428D01*
X251784285Y-118383333D01*
X251898571Y-118383333D01*
X251974761Y-118421428D01*
X252012857Y-118459523D01*
X252050952Y-118535714D01*
X252050952Y-118840476D01*
X252431904Y-118002380D02*
X252431904Y-117850000D01*
X252393809Y-117773809D01*
X252355714Y-117735714D01*
X252241428Y-117659523D01*
X252089047Y-117621428D01*
X251784285Y-117621428D01*
X251708095Y-117659523D01*
X251670000Y-117697619D01*
X251631904Y-117773809D01*
X251631904Y-117926190D01*
X251670000Y-118002380D01*
X251708095Y-118040476D01*
X251784285Y-118078571D01*
X251974761Y-118078571D01*
X252050952Y-118040476D01*
X252089047Y-118002380D01*
X252127142Y-117926190D01*
X252127142Y-117773809D01*
X252089047Y-117697619D01*
X252050952Y-117659523D01*
X251974761Y-117621428D01*
G04 #@! TO.C,R11*
X257511904Y-118764285D02*
X257130952Y-119030952D01*
X257511904Y-119221428D02*
X256711904Y-119221428D01*
X256711904Y-118916666D01*
X256750000Y-118840476D01*
X256788095Y-118802380D01*
X256864285Y-118764285D01*
X256978571Y-118764285D01*
X257054761Y-118802380D01*
X257092857Y-118840476D01*
X257130952Y-118916666D01*
X257130952Y-119221428D01*
X257511904Y-118002380D02*
X257511904Y-118459523D01*
X257511904Y-118230952D02*
X256711904Y-118230952D01*
X256826190Y-118307142D01*
X256902380Y-118383333D01*
X256940476Y-118459523D01*
X257511904Y-117240476D02*
X257511904Y-117697619D01*
X257511904Y-117469047D02*
X256711904Y-117469047D01*
X256826190Y-117545238D01*
X256902380Y-117621428D01*
X256940476Y-117697619D01*
G04 #@! TO.C,D2*
X233889904Y-117570476D02*
X233089904Y-117570476D01*
X233089904Y-117380000D01*
X233128000Y-117265714D01*
X233204190Y-117189523D01*
X233280380Y-117151428D01*
X233432761Y-117113333D01*
X233547047Y-117113333D01*
X233699428Y-117151428D01*
X233775619Y-117189523D01*
X233851809Y-117265714D01*
X233889904Y-117380000D01*
X233889904Y-117570476D01*
X233166095Y-116808571D02*
X233128000Y-116770476D01*
X233089904Y-116694285D01*
X233089904Y-116503809D01*
X233128000Y-116427619D01*
X233166095Y-116389523D01*
X233242285Y-116351428D01*
X233318476Y-116351428D01*
X233432761Y-116389523D01*
X233889904Y-116846666D01*
X233889904Y-116351428D01*
G04 #@! TO.C,D4*
X238969904Y-117570476D02*
X238169904Y-117570476D01*
X238169904Y-117380000D01*
X238208000Y-117265714D01*
X238284190Y-117189523D01*
X238360380Y-117151428D01*
X238512761Y-117113333D01*
X238627047Y-117113333D01*
X238779428Y-117151428D01*
X238855619Y-117189523D01*
X238931809Y-117265714D01*
X238969904Y-117380000D01*
X238969904Y-117570476D01*
X238436571Y-116427619D02*
X238969904Y-116427619D01*
X238131809Y-116618095D02*
X238703238Y-116808571D01*
X238703238Y-116313333D01*
G04 #@! TO.C,D6*
X244049904Y-117570476D02*
X243249904Y-117570476D01*
X243249904Y-117380000D01*
X243288000Y-117265714D01*
X243364190Y-117189523D01*
X243440380Y-117151428D01*
X243592761Y-117113333D01*
X243707047Y-117113333D01*
X243859428Y-117151428D01*
X243935619Y-117189523D01*
X244011809Y-117265714D01*
X244049904Y-117380000D01*
X244049904Y-117570476D01*
X243249904Y-116427619D02*
X243249904Y-116580000D01*
X243288000Y-116656190D01*
X243326095Y-116694285D01*
X243440380Y-116770476D01*
X243592761Y-116808571D01*
X243897523Y-116808571D01*
X243973714Y-116770476D01*
X244011809Y-116732380D01*
X244049904Y-116656190D01*
X244049904Y-116503809D01*
X244011809Y-116427619D01*
X243973714Y-116389523D01*
X243897523Y-116351428D01*
X243707047Y-116351428D01*
X243630857Y-116389523D01*
X243592761Y-116427619D01*
X243554666Y-116503809D01*
X243554666Y-116656190D01*
X243592761Y-116732380D01*
X243630857Y-116770476D01*
X243707047Y-116808571D01*
G04 #@! TO.C,D8*
X249129904Y-117570476D02*
X248329904Y-117570476D01*
X248329904Y-117380000D01*
X248368000Y-117265714D01*
X248444190Y-117189523D01*
X248520380Y-117151428D01*
X248672761Y-117113333D01*
X248787047Y-117113333D01*
X248939428Y-117151428D01*
X249015619Y-117189523D01*
X249091809Y-117265714D01*
X249129904Y-117380000D01*
X249129904Y-117570476D01*
X248672761Y-116656190D02*
X248634666Y-116732380D01*
X248596571Y-116770476D01*
X248520380Y-116808571D01*
X248482285Y-116808571D01*
X248406095Y-116770476D01*
X248368000Y-116732380D01*
X248329904Y-116656190D01*
X248329904Y-116503809D01*
X248368000Y-116427619D01*
X248406095Y-116389523D01*
X248482285Y-116351428D01*
X248520380Y-116351428D01*
X248596571Y-116389523D01*
X248634666Y-116427619D01*
X248672761Y-116503809D01*
X248672761Y-116656190D01*
X248710857Y-116732380D01*
X248748952Y-116770476D01*
X248825142Y-116808571D01*
X248977523Y-116808571D01*
X249053714Y-116770476D01*
X249091809Y-116732380D01*
X249129904Y-116656190D01*
X249129904Y-116503809D01*
X249091809Y-116427619D01*
X249053714Y-116389523D01*
X248977523Y-116351428D01*
X248825142Y-116351428D01*
X248748952Y-116389523D01*
X248710857Y-116427619D01*
X248672761Y-116503809D01*
G04 #@! TO.C,D10*
X254209904Y-117951428D02*
X253409904Y-117951428D01*
X253409904Y-117760952D01*
X253448000Y-117646666D01*
X253524190Y-117570476D01*
X253600380Y-117532380D01*
X253752761Y-117494285D01*
X253867047Y-117494285D01*
X254019428Y-117532380D01*
X254095619Y-117570476D01*
X254171809Y-117646666D01*
X254209904Y-117760952D01*
X254209904Y-117951428D01*
X254209904Y-116732380D02*
X254209904Y-117189523D01*
X254209904Y-116960952D02*
X253409904Y-116960952D01*
X253524190Y-117037142D01*
X253600380Y-117113333D01*
X253638476Y-117189523D01*
X253409904Y-116237142D02*
X253409904Y-116160952D01*
X253448000Y-116084761D01*
X253486095Y-116046666D01*
X253562285Y-116008571D01*
X253714666Y-115970476D01*
X253905142Y-115970476D01*
X254057523Y-116008571D01*
X254133714Y-116046666D01*
X254171809Y-116084761D01*
X254209904Y-116160952D01*
X254209904Y-116237142D01*
X254171809Y-116313333D01*
X254133714Y-116351428D01*
X254057523Y-116389523D01*
X253905142Y-116427619D01*
X253714666Y-116427619D01*
X253562285Y-116389523D01*
X253486095Y-116351428D01*
X253448000Y-116313333D01*
X253409904Y-116237142D01*
G04 #@! TO.C,D12*
X259289904Y-117951428D02*
X258489904Y-117951428D01*
X258489904Y-117760952D01*
X258528000Y-117646666D01*
X258604190Y-117570476D01*
X258680380Y-117532380D01*
X258832761Y-117494285D01*
X258947047Y-117494285D01*
X259099428Y-117532380D01*
X259175619Y-117570476D01*
X259251809Y-117646666D01*
X259289904Y-117760952D01*
X259289904Y-117951428D01*
X259289904Y-116732380D02*
X259289904Y-117189523D01*
X259289904Y-116960952D02*
X258489904Y-116960952D01*
X258604190Y-117037142D01*
X258680380Y-117113333D01*
X258718476Y-117189523D01*
X258566095Y-116427619D02*
X258528000Y-116389523D01*
X258489904Y-116313333D01*
X258489904Y-116122857D01*
X258528000Y-116046666D01*
X258566095Y-116008571D01*
X258642285Y-115970476D01*
X258718476Y-115970476D01*
X258832761Y-116008571D01*
X259289904Y-116465714D01*
X259289904Y-115970476D01*
G04 #@! TO.C,R23*
X257028904Y-102241285D02*
X256647952Y-102507952D01*
X257028904Y-102698428D02*
X256228904Y-102698428D01*
X256228904Y-102393666D01*
X256267000Y-102317476D01*
X256305095Y-102279380D01*
X256381285Y-102241285D01*
X256495571Y-102241285D01*
X256571761Y-102279380D01*
X256609857Y-102317476D01*
X256647952Y-102393666D01*
X256647952Y-102698428D01*
X256305095Y-101936523D02*
X256267000Y-101898428D01*
X256228904Y-101822238D01*
X256228904Y-101631761D01*
X256267000Y-101555571D01*
X256305095Y-101517476D01*
X256381285Y-101479380D01*
X256457476Y-101479380D01*
X256571761Y-101517476D01*
X257028904Y-101974619D01*
X257028904Y-101479380D01*
X256228904Y-101212714D02*
X256228904Y-100717476D01*
X256533666Y-100984142D01*
X256533666Y-100869857D01*
X256571761Y-100793666D01*
X256609857Y-100755571D01*
X256686047Y-100717476D01*
X256876523Y-100717476D01*
X256952714Y-100755571D01*
X256990809Y-100793666D01*
X257028904Y-100869857D01*
X257028904Y-101098428D01*
X256990809Y-101174619D01*
X256952714Y-101212714D01*
G04 #@! TO.C,D1*
X235972380Y-127116095D02*
X234972380Y-127116095D01*
X234972380Y-126878000D01*
X235020000Y-126735142D01*
X235115238Y-126639904D01*
X235210476Y-126592285D01*
X235400952Y-126544666D01*
X235543809Y-126544666D01*
X235734285Y-126592285D01*
X235829523Y-126639904D01*
X235924761Y-126735142D01*
X235972380Y-126878000D01*
X235972380Y-127116095D01*
X235972380Y-125592285D02*
X235972380Y-126163714D01*
X235972380Y-125878000D02*
X234972380Y-125878000D01*
X235115238Y-125973238D01*
X235210476Y-126068476D01*
X235258095Y-126163714D01*
G04 #@! TO.C,D3*
X241052380Y-127116095D02*
X240052380Y-127116095D01*
X240052380Y-126878000D01*
X240100000Y-126735142D01*
X240195238Y-126639904D01*
X240290476Y-126592285D01*
X240480952Y-126544666D01*
X240623809Y-126544666D01*
X240814285Y-126592285D01*
X240909523Y-126639904D01*
X241004761Y-126735142D01*
X241052380Y-126878000D01*
X241052380Y-127116095D01*
X240052380Y-126211333D02*
X240052380Y-125592285D01*
X240433333Y-125925619D01*
X240433333Y-125782761D01*
X240480952Y-125687523D01*
X240528571Y-125639904D01*
X240623809Y-125592285D01*
X240861904Y-125592285D01*
X240957142Y-125639904D01*
X241004761Y-125687523D01*
X241052380Y-125782761D01*
X241052380Y-126068476D01*
X241004761Y-126163714D01*
X240957142Y-126211333D01*
G04 #@! TO.C,D5*
X246132380Y-127116095D02*
X245132380Y-127116095D01*
X245132380Y-126878000D01*
X245180000Y-126735142D01*
X245275238Y-126639904D01*
X245370476Y-126592285D01*
X245560952Y-126544666D01*
X245703809Y-126544666D01*
X245894285Y-126592285D01*
X245989523Y-126639904D01*
X246084761Y-126735142D01*
X246132380Y-126878000D01*
X246132380Y-127116095D01*
X245132380Y-125639904D02*
X245132380Y-126116095D01*
X245608571Y-126163714D01*
X245560952Y-126116095D01*
X245513333Y-126020857D01*
X245513333Y-125782761D01*
X245560952Y-125687523D01*
X245608571Y-125639904D01*
X245703809Y-125592285D01*
X245941904Y-125592285D01*
X246037142Y-125639904D01*
X246084761Y-125687523D01*
X246132380Y-125782761D01*
X246132380Y-126020857D01*
X246084761Y-126116095D01*
X246037142Y-126163714D01*
G04 #@! TO.C,D7*
X251212380Y-127116095D02*
X250212380Y-127116095D01*
X250212380Y-126878000D01*
X250260000Y-126735142D01*
X250355238Y-126639904D01*
X250450476Y-126592285D01*
X250640952Y-126544666D01*
X250783809Y-126544666D01*
X250974285Y-126592285D01*
X251069523Y-126639904D01*
X251164761Y-126735142D01*
X251212380Y-126878000D01*
X251212380Y-127116095D01*
X250212380Y-126211333D02*
X250212380Y-125544666D01*
X251212380Y-125973238D01*
G04 #@! TO.C,D11*
X261372380Y-127592285D02*
X260372380Y-127592285D01*
X260372380Y-127354190D01*
X260420000Y-127211333D01*
X260515238Y-127116095D01*
X260610476Y-127068476D01*
X260800952Y-127020857D01*
X260943809Y-127020857D01*
X261134285Y-127068476D01*
X261229523Y-127116095D01*
X261324761Y-127211333D01*
X261372380Y-127354190D01*
X261372380Y-127592285D01*
X261372380Y-126068476D02*
X261372380Y-126639904D01*
X261372380Y-126354190D02*
X260372380Y-126354190D01*
X260515238Y-126449428D01*
X260610476Y-126544666D01*
X260658095Y-126639904D01*
X261372380Y-125116095D02*
X261372380Y-125687523D01*
X261372380Y-125401809D02*
X260372380Y-125401809D01*
X260515238Y-125497047D01*
X260610476Y-125592285D01*
X260658095Y-125687523D01*
G04 #@! TO.C,D9*
X256292380Y-127116095D02*
X255292380Y-127116095D01*
X255292380Y-126878000D01*
X255340000Y-126735142D01*
X255435238Y-126639904D01*
X255530476Y-126592285D01*
X255720952Y-126544666D01*
X255863809Y-126544666D01*
X256054285Y-126592285D01*
X256149523Y-126639904D01*
X256244761Y-126735142D01*
X256292380Y-126878000D01*
X256292380Y-127116095D01*
X256292380Y-126068476D02*
X256292380Y-125878000D01*
X256244761Y-125782761D01*
X256197142Y-125735142D01*
X256054285Y-125639904D01*
X255863809Y-125592285D01*
X255482857Y-125592285D01*
X255387619Y-125639904D01*
X255340000Y-125687523D01*
X255292380Y-125782761D01*
X255292380Y-125973238D01*
X255340000Y-126068476D01*
X255387619Y-126116095D01*
X255482857Y-126163714D01*
X255720952Y-126163714D01*
X255816190Y-126116095D01*
X255863809Y-126068476D01*
X255911428Y-125973238D01*
X255911428Y-125782761D01*
X255863809Y-125687523D01*
X255816190Y-125639904D01*
X255720952Y-125592285D01*
G04 #@! TO.C,C1*
X243016666Y-112428714D02*
X242978571Y-112466809D01*
X242864285Y-112504904D01*
X242788095Y-112504904D01*
X242673809Y-112466809D01*
X242597619Y-112390619D01*
X242559523Y-112314428D01*
X242521428Y-112162047D01*
X242521428Y-112047761D01*
X242559523Y-111895380D01*
X242597619Y-111819190D01*
X242673809Y-111743000D01*
X242788095Y-111704904D01*
X242864285Y-111704904D01*
X242978571Y-111743000D01*
X243016666Y-111781095D01*
X243778571Y-112504904D02*
X243321428Y-112504904D01*
X243550000Y-112504904D02*
X243550000Y-111704904D01*
X243473809Y-111819190D01*
X243397619Y-111895380D01*
X243321428Y-111933476D01*
G04 #@! TO.C,C3*
X248752714Y-111547333D02*
X248790809Y-111585428D01*
X248828904Y-111699714D01*
X248828904Y-111775904D01*
X248790809Y-111890190D01*
X248714619Y-111966380D01*
X248638428Y-112004476D01*
X248486047Y-112042571D01*
X248371761Y-112042571D01*
X248219380Y-112004476D01*
X248143190Y-111966380D01*
X248067000Y-111890190D01*
X248028904Y-111775904D01*
X248028904Y-111699714D01*
X248067000Y-111585428D01*
X248105095Y-111547333D01*
X248028904Y-111280666D02*
X248028904Y-110785428D01*
X248333666Y-111052095D01*
X248333666Y-110937809D01*
X248371761Y-110861619D01*
X248409857Y-110823523D01*
X248486047Y-110785428D01*
X248676523Y-110785428D01*
X248752714Y-110823523D01*
X248790809Y-110861619D01*
X248828904Y-110937809D01*
X248828904Y-111166380D01*
X248790809Y-111242571D01*
X248752714Y-111280666D01*
G04 #@! TO.C,C5*
X235785714Y-103133333D02*
X235823809Y-103171428D01*
X235861904Y-103285714D01*
X235861904Y-103361904D01*
X235823809Y-103476190D01*
X235747619Y-103552380D01*
X235671428Y-103590476D01*
X235519047Y-103628571D01*
X235404761Y-103628571D01*
X235252380Y-103590476D01*
X235176190Y-103552380D01*
X235100000Y-103476190D01*
X235061904Y-103361904D01*
X235061904Y-103285714D01*
X235100000Y-103171428D01*
X235138095Y-103133333D01*
X235061904Y-102409523D02*
X235061904Y-102790476D01*
X235442857Y-102828571D01*
X235404761Y-102790476D01*
X235366666Y-102714285D01*
X235366666Y-102523809D01*
X235404761Y-102447619D01*
X235442857Y-102409523D01*
X235519047Y-102371428D01*
X235709523Y-102371428D01*
X235785714Y-102409523D01*
X235823809Y-102447619D01*
X235861904Y-102523809D01*
X235861904Y-102714285D01*
X235823809Y-102790476D01*
X235785714Y-102828571D01*
G04 #@! TO.C,C6*
X233285714Y-103133333D02*
X233323809Y-103171428D01*
X233361904Y-103285714D01*
X233361904Y-103361904D01*
X233323809Y-103476190D01*
X233247619Y-103552380D01*
X233171428Y-103590476D01*
X233019047Y-103628571D01*
X232904761Y-103628571D01*
X232752380Y-103590476D01*
X232676190Y-103552380D01*
X232600000Y-103476190D01*
X232561904Y-103361904D01*
X232561904Y-103285714D01*
X232600000Y-103171428D01*
X232638095Y-103133333D01*
X232561904Y-102447619D02*
X232561904Y-102600000D01*
X232600000Y-102676190D01*
X232638095Y-102714285D01*
X232752380Y-102790476D01*
X232904761Y-102828571D01*
X233209523Y-102828571D01*
X233285714Y-102790476D01*
X233323809Y-102752380D01*
X233361904Y-102676190D01*
X233361904Y-102523809D01*
X233323809Y-102447619D01*
X233285714Y-102409523D01*
X233209523Y-102371428D01*
X233019047Y-102371428D01*
X232942857Y-102409523D01*
X232904761Y-102447619D01*
X232866666Y-102523809D01*
X232866666Y-102676190D01*
X232904761Y-102752380D01*
X232942857Y-102790476D01*
X233019047Y-102828571D01*
G04 #@! TO.C,R21*
X240485714Y-104755904D02*
X240219047Y-104374952D01*
X240028571Y-104755904D02*
X240028571Y-103955904D01*
X240333333Y-103955904D01*
X240409523Y-103994000D01*
X240447619Y-104032095D01*
X240485714Y-104108285D01*
X240485714Y-104222571D01*
X240447619Y-104298761D01*
X240409523Y-104336857D01*
X240333333Y-104374952D01*
X240028571Y-104374952D01*
X240790476Y-104032095D02*
X240828571Y-103994000D01*
X240904761Y-103955904D01*
X241095238Y-103955904D01*
X241171428Y-103994000D01*
X241209523Y-104032095D01*
X241247619Y-104108285D01*
X241247619Y-104184476D01*
X241209523Y-104298761D01*
X240752380Y-104755904D01*
X241247619Y-104755904D01*
X242009523Y-104755904D02*
X241552380Y-104755904D01*
X241780952Y-104755904D02*
X241780952Y-103955904D01*
X241704761Y-104070190D01*
X241628571Y-104146380D01*
X241552380Y-104184476D01*
G04 #@! TO.C,R22*
X242690714Y-104882904D02*
X242424047Y-104501952D01*
X242233571Y-104882904D02*
X242233571Y-104082904D01*
X242538333Y-104082904D01*
X242614523Y-104121000D01*
X242652619Y-104159095D01*
X242690714Y-104235285D01*
X242690714Y-104349571D01*
X242652619Y-104425761D01*
X242614523Y-104463857D01*
X242538333Y-104501952D01*
X242233571Y-104501952D01*
X242995476Y-104159095D02*
X243033571Y-104121000D01*
X243109761Y-104082904D01*
X243300238Y-104082904D01*
X243376428Y-104121000D01*
X243414523Y-104159095D01*
X243452619Y-104235285D01*
X243452619Y-104311476D01*
X243414523Y-104425761D01*
X242957380Y-104882904D01*
X243452619Y-104882904D01*
X243757380Y-104159095D02*
X243795476Y-104121000D01*
X243871666Y-104082904D01*
X244062142Y-104082904D01*
X244138333Y-104121000D01*
X244176428Y-104159095D01*
X244214523Y-104235285D01*
X244214523Y-104311476D01*
X244176428Y-104425761D01*
X243719285Y-104882904D01*
X244214523Y-104882904D01*
G04 #@! TO.C,C4*
X240866666Y-105785714D02*
X240828571Y-105823809D01*
X240714285Y-105861904D01*
X240638095Y-105861904D01*
X240523809Y-105823809D01*
X240447619Y-105747619D01*
X240409523Y-105671428D01*
X240371428Y-105519047D01*
X240371428Y-105404761D01*
X240409523Y-105252380D01*
X240447619Y-105176190D01*
X240523809Y-105100000D01*
X240638095Y-105061904D01*
X240714285Y-105061904D01*
X240828571Y-105100000D01*
X240866666Y-105138095D01*
X241552380Y-105328571D02*
X241552380Y-105861904D01*
X241361904Y-105023809D02*
X241171428Y-105595238D01*
X241666666Y-105595238D01*
G04 #@! TD*
M02*
