G04 #@! TF.GenerationSoftware,KiCad,Pcbnew,5.0.0-rc2+dfsg1-3*
G04 #@! TF.CreationDate,2018-07-01T00:11:55+02:00*
G04 #@! TF.ProjectId,alpha,616C7068612E6B696361645F70636200,rev?*
G04 #@! TF.SameCoordinates,Original*
G04 #@! TF.FileFunction,Paste,Top*
G04 #@! TF.FilePolarity,Positive*
%FSLAX46Y46*%
G04 Gerber Fmt 4.6, Leading zero omitted, Abs format (unit mm)*
G04 Created by KiCad (PCBNEW 5.0.0-rc2+dfsg1-3) date Sun Jul  1 00:11:55 2018*
%MOMM*%
%LPD*%
G01*
G04 APERTURE LIST*
%ADD10R,0.450000X0.600000*%
%ADD11R,1.300000X4.700000*%
%ADD12R,1.000000X6.000000*%
%ADD13R,6.000000X1.000000*%
%ADD14R,4.700000X1.300000*%
%ADD15R,7.700000X1.800000*%
%ADD16R,0.800000X0.900000*%
%ADD17R,1.560000X0.650000*%
%ADD18R,0.650000X0.650000*%
%ADD19R,1.450000X1.150000*%
%ADD20R,1.100000X1.750000*%
%ADD21R,1.750000X1.100000*%
%ADD22R,0.300000X0.450000*%
%ADD23R,1.800000X2.500000*%
%ADD24R,1.150000X1.450000*%
%ADD25R,0.650000X0.600000*%
%ADD26R,0.900000X0.800000*%
G04 APERTURE END LIST*
D10*
G04 #@! TO.C,D13*
X223368000Y-125582000D03*
X223368000Y-127682000D03*
G04 #@! TD*
D11*
G04 #@! TO.C,P2*
X205588000Y-132646000D03*
X208128000Y-132646000D03*
X210668000Y-132646000D03*
X213208000Y-132646000D03*
X215748000Y-132646000D03*
X218288000Y-132646000D03*
X220828000Y-132646000D03*
X223368000Y-132646000D03*
D12*
X203048000Y-137796000D03*
X225908000Y-137796000D03*
G04 #@! TD*
D13*
G04 #@! TO.C,P4*
X260211000Y-112268000D03*
D14*
X255061000Y-109728000D03*
X255061000Y-107188000D03*
D13*
X260211000Y-104648000D03*
G04 #@! TD*
D11*
G04 #@! TO.C,P1*
X231750000Y-132646000D03*
X234290000Y-132646000D03*
X236830000Y-132646000D03*
X239370000Y-132646000D03*
X241910000Y-132646000D03*
X244450000Y-132646000D03*
X246990000Y-132646000D03*
X249530000Y-132646000D03*
X252070000Y-132646000D03*
X254610000Y-132646000D03*
X257150000Y-132646000D03*
X259690000Y-132646000D03*
D12*
X229210000Y-137796000D03*
X262230000Y-137796000D03*
G04 #@! TD*
D15*
G04 #@! TO.C,L1*
X235500000Y-106200000D03*
X235500000Y-111800000D03*
G04 #@! TD*
D16*
G04 #@! TO.C,Q1*
X233970000Y-120044000D03*
X232070000Y-120044000D03*
X233020000Y-122044000D03*
G04 #@! TD*
G04 #@! TO.C,Q2*
X239050000Y-120044000D03*
X237150000Y-120044000D03*
X238100000Y-122044000D03*
G04 #@! TD*
G04 #@! TO.C,Q3*
X244130000Y-120044000D03*
X242230000Y-120044000D03*
X243180000Y-122044000D03*
G04 #@! TD*
G04 #@! TO.C,Q4*
X249210000Y-120044000D03*
X247310000Y-120044000D03*
X248260000Y-122044000D03*
G04 #@! TD*
G04 #@! TO.C,Q5*
X254290000Y-120044000D03*
X252390000Y-120044000D03*
X253340000Y-122044000D03*
G04 #@! TD*
G04 #@! TO.C,Q6*
X259370000Y-120044000D03*
X257470000Y-120044000D03*
X258420000Y-122044000D03*
G04 #@! TD*
D17*
G04 #@! TO.C,U1*
X244150000Y-110093000D03*
X244150000Y-109143000D03*
X244150000Y-108193000D03*
X241450000Y-108193000D03*
X241450000Y-110093000D03*
X241450000Y-109143000D03*
G04 #@! TD*
D18*
G04 #@! TO.C,R2*
X231750000Y-116414000D03*
X231750000Y-115514000D03*
G04 #@! TD*
G04 #@! TO.C,R4*
X236830000Y-116414000D03*
X236830000Y-115514000D03*
G04 #@! TD*
G04 #@! TO.C,R6*
X241910000Y-116414000D03*
X241910000Y-115514000D03*
G04 #@! TD*
G04 #@! TO.C,R8*
X246990000Y-116414000D03*
X246990000Y-115514000D03*
G04 #@! TD*
G04 #@! TO.C,R10*
X252070000Y-116414000D03*
X252070000Y-115514000D03*
G04 #@! TD*
G04 #@! TO.C,R12*
X257150000Y-116414000D03*
X257150000Y-115514000D03*
G04 #@! TD*
G04 #@! TO.C,R13*
X222918000Y-129172000D03*
X223818000Y-129172000D03*
G04 #@! TD*
G04 #@! TO.C,R14*
X220378000Y-129172000D03*
X221278000Y-129172000D03*
G04 #@! TD*
G04 #@! TO.C,R15*
X217838000Y-129172000D03*
X218738000Y-129172000D03*
G04 #@! TD*
G04 #@! TO.C,R16*
X215298000Y-129172000D03*
X216198000Y-129172000D03*
G04 #@! TD*
G04 #@! TO.C,R17*
X212758000Y-129172000D03*
X213658000Y-129172000D03*
G04 #@! TD*
G04 #@! TO.C,R18*
X210218000Y-129172000D03*
X211118000Y-129172000D03*
G04 #@! TD*
G04 #@! TO.C,R19*
X207678000Y-129172000D03*
X208578000Y-129172000D03*
G04 #@! TD*
G04 #@! TO.C,R20*
X205138000Y-129172000D03*
X206038000Y-129172000D03*
G04 #@! TD*
G04 #@! TO.C,R24*
X209450000Y-118000000D03*
X208550000Y-118000000D03*
G04 #@! TD*
G04 #@! TO.C,R25*
X209450000Y-119250000D03*
X208550000Y-119250000D03*
G04 #@! TD*
G04 #@! TO.C,R26*
X209450000Y-116750000D03*
X208550000Y-116750000D03*
G04 #@! TD*
G04 #@! TO.C,R27*
X243900000Y-102350000D03*
X243900000Y-101450000D03*
G04 #@! TD*
G04 #@! TO.C,R28*
X237300000Y-102350000D03*
X237300000Y-101450000D03*
G04 #@! TD*
D19*
G04 #@! TO.C,C2*
X250367000Y-110514000D03*
X250367000Y-112314000D03*
G04 #@! TD*
D20*
G04 #@! TO.C,D21*
X254230000Y-101854000D03*
X251230000Y-101854000D03*
G04 #@! TD*
G04 #@! TO.C,D22*
X246000000Y-101900000D03*
X249000000Y-101900000D03*
G04 #@! TD*
G04 #@! TO.C,D23*
X239400000Y-101900000D03*
X242400000Y-101900000D03*
G04 #@! TD*
D18*
G04 #@! TO.C,R1*
X231750000Y-117800000D03*
X231750000Y-118700000D03*
G04 #@! TD*
G04 #@! TO.C,R3*
X236830000Y-117800000D03*
X236830000Y-118700000D03*
G04 #@! TD*
G04 #@! TO.C,R5*
X241910000Y-117800000D03*
X241910000Y-118700000D03*
G04 #@! TD*
G04 #@! TO.C,R7*
X246990000Y-117800000D03*
X246990000Y-118700000D03*
G04 #@! TD*
G04 #@! TO.C,R9*
X252070000Y-117800000D03*
X252070000Y-118700000D03*
G04 #@! TD*
G04 #@! TO.C,R11*
X257150000Y-117800000D03*
X257150000Y-118700000D03*
G04 #@! TD*
D21*
G04 #@! TO.C,D2*
X233528000Y-115480000D03*
X233528000Y-118480000D03*
G04 #@! TD*
G04 #@! TO.C,D4*
X238608000Y-115480000D03*
X238608000Y-118480000D03*
G04 #@! TD*
G04 #@! TO.C,D6*
X243688000Y-115480000D03*
X243688000Y-118480000D03*
G04 #@! TD*
G04 #@! TO.C,D8*
X248768000Y-115480000D03*
X248768000Y-118480000D03*
G04 #@! TD*
G04 #@! TO.C,D10*
X253848000Y-115480000D03*
X253848000Y-118480000D03*
G04 #@! TD*
G04 #@! TO.C,D12*
X258928000Y-115480000D03*
X258928000Y-118480000D03*
G04 #@! TD*
D18*
G04 #@! TO.C,R23*
X256667000Y-102177000D03*
X256667000Y-101277000D03*
G04 #@! TD*
D22*
G04 #@! TO.C,U2*
X203250000Y-117300000D03*
X202250000Y-117300000D03*
X203250000Y-118700000D03*
X202750000Y-117300000D03*
X202250000Y-118700000D03*
X202750000Y-118700000D03*
G04 #@! TD*
D23*
G04 #@! TO.C,D1*
X233020000Y-124378000D03*
X233020000Y-128378000D03*
G04 #@! TD*
G04 #@! TO.C,D3*
X238100000Y-124378000D03*
X238100000Y-128378000D03*
G04 #@! TD*
G04 #@! TO.C,D5*
X243180000Y-124378000D03*
X243180000Y-128378000D03*
G04 #@! TD*
G04 #@! TO.C,D7*
X248260000Y-124378000D03*
X248260000Y-128378000D03*
G04 #@! TD*
G04 #@! TO.C,D11*
X258420000Y-124378000D03*
X258420000Y-128378000D03*
G04 #@! TD*
G04 #@! TO.C,D9*
X253340000Y-124378000D03*
X253340000Y-128378000D03*
G04 #@! TD*
D24*
G04 #@! TO.C,C1*
X242250000Y-112143000D03*
X244050000Y-112143000D03*
G04 #@! TD*
D19*
G04 #@! TO.C,C3*
X248467000Y-110514000D03*
X248467000Y-112314000D03*
G04 #@! TD*
G04 #@! TO.C,C5*
X235500000Y-103900000D03*
X235500000Y-102100000D03*
G04 #@! TD*
G04 #@! TO.C,C6*
X233000000Y-103900000D03*
X233000000Y-102100000D03*
G04 #@! TD*
D18*
G04 #@! TO.C,R21*
X240550000Y-104394000D03*
X241450000Y-104394000D03*
G04 #@! TD*
G04 #@! TO.C,R22*
X242755000Y-104521000D03*
X243655000Y-104521000D03*
G04 #@! TD*
D25*
G04 #@! TO.C,C4*
X240550000Y-105500000D03*
X241450000Y-105500000D03*
G04 #@! TD*
D26*
G04 #@! TO.C,Q7*
X248500000Y-106050000D03*
X248500000Y-107950000D03*
X250500000Y-107000000D03*
G04 #@! TD*
D10*
G04 #@! TO.C,D14*
X220828000Y-125582000D03*
X220828000Y-127682000D03*
G04 #@! TD*
G04 #@! TO.C,D15*
X218288000Y-127682000D03*
X218288000Y-125582000D03*
G04 #@! TD*
G04 #@! TO.C,D16*
X215748000Y-127682000D03*
X215748000Y-125582000D03*
G04 #@! TD*
G04 #@! TO.C,D17*
X213208000Y-125582000D03*
X213208000Y-127682000D03*
G04 #@! TD*
G04 #@! TO.C,D18*
X210668000Y-127682000D03*
X210668000Y-125582000D03*
G04 #@! TD*
G04 #@! TO.C,D19*
X208128000Y-125582000D03*
X208128000Y-127682000D03*
G04 #@! TD*
G04 #@! TO.C,D20*
X205588000Y-127682000D03*
X205588000Y-125582000D03*
G04 #@! TD*
M02*
