G04 #@! TF.GenerationSoftware,KiCad,Pcbnew,5.0.0-rc2+dfsg1-3*
G04 #@! TF.CreationDate,2018-07-01T00:11:55+02:00*
G04 #@! TF.ProjectId,alpha,616C7068612E6B696361645F70636200,rev?*
G04 #@! TF.SameCoordinates,Original*
G04 #@! TF.FileFunction,Profile,NP*
%FSLAX46Y46*%
G04 Gerber Fmt 4.6, Leading zero omitted, Abs format (unit mm)*
G04 Created by KiCad (PCBNEW 5.0.0-rc2+dfsg1-3) date Sun Jul  1 00:11:55 2018*
%MOMM*%
%LPD*%
G01*
G04 APERTURE LIST*
%ADD10C,0.100000*%
G04 APERTURE END LIST*
D10*
X200000000Y-112250000D02*
G75*
G03X201500000Y-113750000I1500000J0D01*
G01*
X201500000Y-122250000D02*
G75*
G03X200000000Y-123750000I0J-1500000D01*
G01*
X201500000Y-113750000D02*
X205250000Y-113750000D01*
X206750000Y-116250000D02*
X206750000Y-115250000D01*
X206750000Y-115250000D02*
G75*
G03X205250000Y-113750000I-1500000J0D01*
G01*
X206750000Y-120750000D02*
X206750000Y-119750000D01*
X201500000Y-122250000D02*
X205250000Y-122250000D01*
X205250000Y-122250000D02*
G75*
G03X206750000Y-120750000I0J1500000D01*
G01*
X201750000Y-120750000D02*
X204250000Y-120750000D01*
X200750000Y-116250000D02*
X200750000Y-119750000D01*
X204250000Y-115250000D02*
X201750000Y-115250000D01*
X201750000Y-115250000D02*
G75*
G03X200750000Y-116250000I0J-1000000D01*
G01*
X200750000Y-119750000D02*
G75*
G03X201750000Y-120750000I1000000J0D01*
G01*
X205250000Y-119750000D02*
G75*
G02X206750000Y-119750000I750000J0D01*
G01*
X205250000Y-116250000D02*
G75*
G03X206750000Y-116250000I750000J0D01*
G01*
X205250000Y-116250000D02*
G75*
G03X204250000Y-115250000I-1000000J0D01*
G01*
X204250000Y-120750000D02*
G75*
G03X205250000Y-119750000I0J1000000D01*
G01*
X200000000Y-147000000D02*
G75*
G03X203000000Y-150000000I3000000J0D01*
G01*
X200000000Y-97000000D02*
X200000000Y-112250000D01*
X265000000Y-97000000D02*
G75*
G03X262000000Y-94000000I-3000000J0D01*
G01*
X262000000Y-150000000D02*
G75*
G03X265000000Y-147000000I0J3000000D01*
G01*
X203000000Y-94000000D02*
G75*
G03X200000000Y-97000000I0J-3000000D01*
G01*
X262000000Y-94000000D02*
X203000000Y-94000000D01*
X265000000Y-147000000D02*
X265000000Y-97000000D01*
X203000000Y-150000000D02*
X262000000Y-150000000D01*
X200000000Y-123750000D02*
X200000000Y-147000000D01*
M02*
