G04 #@! TF.GenerationSoftware,KiCad,Pcbnew,5.0.0-rc2+dfsg1-3*
G04 #@! TF.CreationDate,2018-07-01T00:11:55+02:00*
G04 #@! TF.ProjectId,alpha,616C7068612E6B696361645F70636200,rev?*
G04 #@! TF.SameCoordinates,Original*
G04 #@! TF.FileFunction,Legend,Bot*
G04 #@! TF.FilePolarity,Positive*
%FSLAX46Y46*%
G04 Gerber Fmt 4.6, Leading zero omitted, Abs format (unit mm)*
G04 Created by KiCad (PCBNEW 5.0.0-rc2+dfsg1-3) date Sun Jul  1 00:11:55 2018*
%MOMM*%
%LPD*%
G01*
G04 APERTURE LIST*
%ADD10C,0.120000*%
%ADD11C,0.150000*%
G04 APERTURE END LIST*
D10*
G04 #@! TO.C,P3*
X209640000Y-100100000D02*
X257960000Y-100100000D01*
X257960000Y-100100000D02*
X257960000Y-94900000D01*
X257960000Y-94900000D02*
X207040000Y-94900000D01*
X207040000Y-94900000D02*
X207040000Y-97500000D01*
X207040000Y-97500000D02*
X209640000Y-97500000D01*
X209640000Y-97500000D02*
X209640000Y-100100000D01*
X208370000Y-100100000D02*
X207040000Y-100100000D01*
X207040000Y-100100000D02*
X207040000Y-98830000D01*
D11*
X209120095Y-101430380D02*
X209120095Y-100430380D01*
X208739142Y-100430380D01*
X208643904Y-100478000D01*
X208596285Y-100525619D01*
X208548666Y-100620857D01*
X208548666Y-100763714D01*
X208596285Y-100858952D01*
X208643904Y-100906571D01*
X208739142Y-100954190D01*
X209120095Y-100954190D01*
X208215333Y-100430380D02*
X207596285Y-100430380D01*
X207929619Y-100811333D01*
X207786761Y-100811333D01*
X207691523Y-100858952D01*
X207643904Y-100906571D01*
X207596285Y-101001809D01*
X207596285Y-101239904D01*
X207643904Y-101335142D01*
X207691523Y-101382761D01*
X207786761Y-101430380D01*
X208072476Y-101430380D01*
X208167714Y-101382761D01*
X208215333Y-101335142D01*
G04 #@! TD*
M02*
