G04 #@! TF.GenerationSoftware,KiCad,Pcbnew,5.0.0-rc2+dfsg1-3*
G04 #@! TF.CreationDate,2018-07-01T00:11:55+02:00*
G04 #@! TF.ProjectId,alpha,616C7068612E6B696361645F70636200,rev?*
G04 #@! TF.SameCoordinates,Original*
G04 #@! TF.FileFunction,Soldermask,Bot*
G04 #@! TF.FilePolarity,Negative*
%FSLAX46Y46*%
G04 Gerber Fmt 4.6, Leading zero omitted, Abs format (unit mm)*
G04 Created by KiCad (PCBNEW 5.0.0-rc2+dfsg1-3) date Sun Jul  1 00:11:55 2018*
%MOMM*%
%LPD*%
G01*
G04 APERTURE LIST*
%ADD10C,1.000000*%
%ADD11R,1.700000X1.700000*%
%ADD12O,1.700000X1.700000*%
%ADD13C,2.500000*%
G04 APERTURE END LIST*
D10*
G04 #@! TO.C,P2*
X204318000Y-138396000D03*
X224638000Y-137796000D03*
G04 #@! TD*
G04 #@! TO.C,P4*
X260811000Y-110998000D03*
X260211000Y-105918000D03*
G04 #@! TD*
G04 #@! TO.C,P1*
X230480000Y-138396000D03*
X260960000Y-137796000D03*
G04 #@! TD*
D11*
G04 #@! TO.C,P3*
X208370000Y-98770000D03*
D12*
X208370000Y-96230000D03*
X210910000Y-98770000D03*
X210910000Y-96230000D03*
X213450000Y-98770000D03*
X213450000Y-96230000D03*
X215990000Y-98770000D03*
X215990000Y-96230000D03*
X218530000Y-98770000D03*
X218530000Y-96230000D03*
X221070000Y-98770000D03*
X221070000Y-96230000D03*
X223610000Y-98770000D03*
X223610000Y-96230000D03*
X226150000Y-98770000D03*
X226150000Y-96230000D03*
X228690000Y-98770000D03*
X228690000Y-96230000D03*
X231230000Y-98770000D03*
X231230000Y-96230000D03*
X233770000Y-98770000D03*
X233770000Y-96230000D03*
X236310000Y-98770000D03*
X236310000Y-96230000D03*
X238850000Y-98770000D03*
X238850000Y-96230000D03*
X241390000Y-98770000D03*
X241390000Y-96230000D03*
X243930000Y-98770000D03*
X243930000Y-96230000D03*
X246470000Y-98770000D03*
X246470000Y-96230000D03*
X249010000Y-98770000D03*
X249010000Y-96230000D03*
X251550000Y-98770000D03*
X251550000Y-96230000D03*
X254090000Y-98770000D03*
X254090000Y-96230000D03*
X256630000Y-98770000D03*
X256630000Y-96230000D03*
G04 #@! TD*
D11*
G04 #@! TO.C,J1*
X211000000Y-105040000D03*
D12*
X208460000Y-105040000D03*
X211000000Y-102500000D03*
X208460000Y-102500000D03*
G04 #@! TD*
D11*
G04 #@! TO.C,J2*
X214710000Y-102500000D03*
D12*
X217250000Y-102500000D03*
X219790000Y-102500000D03*
X222330000Y-102500000D03*
X224870000Y-102500000D03*
G04 #@! TD*
D13*
G04 #@! TO.C,MK1*
X203500000Y-97500000D03*
G04 #@! TD*
G04 #@! TO.C,MK2*
X261500000Y-97500000D03*
G04 #@! TD*
G04 #@! TO.C,MK3*
X203500000Y-146500000D03*
G04 #@! TD*
G04 #@! TO.C,MK4*
X261500000Y-146500000D03*
G04 #@! TD*
M02*
