G04 #@! TF.GenerationSoftware,KiCad,Pcbnew,5.1.4+dfsg1-1*
G04 #@! TF.CreationDate,2019-09-17T12:44:20+02:00*
G04 #@! TF.ProjectId,alpha,616c7068-612e-46b6-9963-61645f706362,rev?*
G04 #@! TF.SameCoordinates,Original*
G04 #@! TF.FileFunction,Profile,NP*
%FSLAX46Y46*%
G04 Gerber Fmt 4.6, Leading zero omitted, Abs format (unit mm)*
G04 Created by KiCad (PCBNEW 5.1.4+dfsg1-1) date 2019-09-17 12:44:20*
%MOMM*%
%LPD*%
G04 APERTURE LIST*
%ADD10C,0.100000*%
G04 APERTURE END LIST*
D10*
X0Y37750000D02*
G75*
G03X1500000Y36250000I1500000J0D01*
G01*
X1500000Y27750000D02*
G75*
G03X0Y26250000I0J-1500000D01*
G01*
X1500000Y36250000D02*
X5250000Y36250000D01*
X6750000Y33750000D02*
X6750000Y34750000D01*
X6750000Y34750000D02*
G75*
G03X5250000Y36250000I-1500000J0D01*
G01*
X6750000Y29250000D02*
X6750000Y30250000D01*
X1500000Y27750000D02*
X5250000Y27750000D01*
X5250000Y27750000D02*
G75*
G03X6750000Y29250000I0J1500000D01*
G01*
X1750000Y29250000D02*
X4250000Y29250000D01*
X750000Y33750000D02*
X750000Y30250000D01*
X4250000Y34750000D02*
X1750000Y34750000D01*
X1750000Y34750000D02*
G75*
G03X750000Y33750000I0J-1000000D01*
G01*
X750000Y30250000D02*
G75*
G03X1750000Y29250000I1000000J0D01*
G01*
X5250000Y30250000D02*
G75*
G02X6750000Y30250000I750000J0D01*
G01*
X5250000Y33750000D02*
G75*
G03X6750000Y33750000I750000J0D01*
G01*
X5250000Y33750000D02*
G75*
G03X4250000Y34750000I-1000000J0D01*
G01*
X4250000Y29250000D02*
G75*
G03X5250000Y30250000I0J1000000D01*
G01*
X0Y3000000D02*
G75*
G03X3000000Y0I3000000J0D01*
G01*
X0Y53000000D02*
X0Y37750000D01*
X65000000Y53000000D02*
G75*
G03X62000000Y56000000I-3000000J0D01*
G01*
X62000000Y0D02*
G75*
G03X65000000Y3000000I0J3000000D01*
G01*
X3000000Y56000000D02*
G75*
G03X0Y53000000I0J-3000000D01*
G01*
X62000000Y56000000D02*
X3000000Y56000000D01*
X65000000Y3000000D02*
X65000000Y53000000D01*
X3000000Y0D02*
X62000000Y0D01*
X0Y26250000D02*
X0Y3000000D01*
M02*
