  0
SECTION
  2
HEADER
  9
$ACADVER
  1
AC1009
  9
$INSBASE
 10
0.0
 20
0.0
 30
0.0
  9
$EXTMIN
 10
0.0
 20
0.0
 30
0.0
  9
$EXTMAX
 10
0.0
 20
0.0
 30
0.0
  0
ENDSEC
  0
SECTION
  2
TABLES
  0
TABLE
  2
VPORT
 70
0
  0
ENDTAB
  0
TABLE
  2
LTYPE
 70
1
  0
LTYPE
  2
CONTINUOUS
 70
0
  3
Solid line
 72
65
 73
0
 40
0.0
  0
ENDTAB
  0
TABLE
  2
LAYER
 70
1
  0
LAYER
  2
0
 70
64
 62
7
  6
continuous
  0
ENDTAB
  0
TABLE
  2
STYLE
 70
1
  0
STYLE
  2
STANDARD
 70
0
 40
0
 41
1.0
 50
0.0
 71
0
 42
1
 3
ARIAL.TTF
 4

  0
ENDTAB
  0
TABLE
  2
VIEW
 70
0
  0
ENDTAB
  0
ENDSEC
  0
SECTION
  2
BLOCKS
  0
BLOCK
  8
0
  2
BLOCK_SKETCH003
 70
0
 10
0.0
 20
0.0
 30
0.0
  3
BLOCK_SKETCH003
  0
POLYLINE
  8
0
 62
0
 70
1
 66
1
 10
0.0
 20
0.0
 30
0.0
  0
VERTEX
  8
0
 10
-10.0
 20
105.5
 30
0.0
  0
VERTEX
  8
0
 10
-9.07283217621
 20
101.294798899
 30
0.0
  0
VERTEX
  8
0
 10
-6.18780427227
 20
97.6443600968
 30
0.0
  0
VERTEX
  8
0
 10
-2.08535180781
 20
95.7198513387
 30
0.0
  0
VERTEX
  8
0
 10
2.08535180781
 20
95.7198513387
 30
0.0
  0
VERTEX
  8
0
 10
6.18780427227
 20
97.6443600968
 30
0.0
  0
VERTEX
  8
0
 10
9.07283217621
 20
101.294798899
 30
0.0
  0
VERTEX
  8
0
 10
10.0
 20
105.5
 30
0.0
  0
VERTEX
  8
0
 10
5.0
 20
105.5
 30
0.0
  0
VERTEX
  8
0
 10
0.0
 20
105.5
 30
0.0
  0
VERTEX
  8
0
 10
-5.0
 20
105.5
 30
0.0
  0
SEQEND
  8
0
  0
POLYLINE
  8
0
 62
0
 70
1
 66
1
 10
0.0
 20
0.0
 30
0.0
  0
VERTEX
  8
0
 10
67.5
 20
65.0
 30
0.0
  0
VERTEX
  8
0
 10
63.2947988987
 20
64.0728321762
 30
0.0
  0
VERTEX
  8
0
 10
59.6443600968
 20
61.1878042723
 30
0.0
  0
VERTEX
  8
0
 10
57.7198513387
 20
57.0853518078
 30
0.0
  0
VERTEX
  8
0
 10
57.7198513387
 20
52.9146481922
 30
0.0
  0
VERTEX
  8
0
 10
59.6443600968
 20
48.8121957277
 30
0.0
  0
VERTEX
  8
0
 10
63.2947988987
 20
45.9271678238
 30
0.0
  0
VERTEX
  8
0
 10
67.5
 20
45.0
 30
0.0
  0
VERTEX
  8
0
 10
67.5
 20
50.0
 30
0.0
  0
VERTEX
  8
0
 10
67.5
 20
55.0
 30
0.0
  0
VERTEX
  8
0
 10
67.5
 20
60.0
 30
0.0
  0
SEQEND
  8
0
  0
POLYLINE
  8
0
 62
0
 70
1
 66
1
 10
0.0
 20
0.0
 30
0.0
  0
VERTEX
  8
0
 10
-67.5
 20
45.0
 30
0.0
  0
VERTEX
  8
0
 10
-63.2947988987
 20
45.9271678238
 30
0.0
  0
VERTEX
  8
0
 10
-59.6443600968
 20
48.8121957277
 30
0.0
  0
VERTEX
  8
0
 10
-57.7198513387
 20
52.9146481922
 30
0.0
  0
VERTEX
  8
0
 10
-57.7198513387
 20
57.0853518078
 30
0.0
  0
VERTEX
  8
0
 10
-59.6443600968
 20
61.1878042723
 30
0.0
  0
VERTEX
  8
0
 10
-63.2947988987
 20
64.0728321762
 30
0.0
  0
VERTEX
  8
0
 10
-67.5
 20
65.0
 30
0.0
  0
VERTEX
  8
0
 10
-67.5
 20
60.0
 30
0.0
  0
VERTEX
  8
0
 10
-67.5
 20
55.0
 30
0.0
  0
VERTEX
  8
0
 10
-67.5
 20
50.0
 30
0.0
  0
SEQEND
  8
0
  0
POLYLINE
  8
0
 62
0
 70
1
 66
1
 10
0.0
 20
0.0
 30
0.0
  0
VERTEX
  8
0
 10
-67.5
 20
-65.0
 30
0.0
  0
VERTEX
  8
0
 10
-63.2947988987
 20
-64.0728321762
 30
0.0
  0
VERTEX
  8
0
 10
-59.6443600968
 20
-61.1878042723
 30
0.0
  0
VERTEX
  8
0
 10
-57.7198513387
 20
-57.0853518078
 30
0.0
  0
VERTEX
  8
0
 10
-57.7198513387
 20
-52.9146481922
 30
0.0
  0
VERTEX
  8
0
 10
-59.6443600968
 20
-48.8121957277
 30
0.0
  0
VERTEX
  8
0
 10
-63.2947988987
 20
-45.9271678238
 30
0.0
  0
VERTEX
  8
0
 10
-67.5
 20
-45.0
 30
0.0
  0
VERTEX
  8
0
 10
-67.5
 20
-50.0
 30
0.0
  0
VERTEX
  8
0
 10
-67.5
 20
-55.0
 30
0.0
  0
VERTEX
  8
0
 10
-67.5
 20
-60.0
 30
0.0
  0
SEQEND
  8
0
  0
POLYLINE
  8
0
 62
0
 70
1
 66
1
 10
0.0
 20
0.0
 30
0.0
  0
VERTEX
  8
0
 10
67.5
 20
-45.0
 30
0.0
  0
VERTEX
  8
0
 10
63.2947988987
 20
-45.9271678238
 30
0.0
  0
VERTEX
  8
0
 10
59.6443600968
 20
-48.8121957277
 30
0.0
  0
VERTEX
  8
0
 10
57.7198513387
 20
-52.9146481922
 30
0.0
  0
VERTEX
  8
0
 10
57.7198513387
 20
-57.0853518078
 30
0.0
  0
VERTEX
  8
0
 10
59.6443600968
 20
-61.1878042723
 30
0.0
  0
VERTEX
  8
0
 10
63.2947988987
 20
-64.0728321762
 30
0.0
  0
VERTEX
  8
0
 10
67.5
 20
-65.0
 30
0.0
  0
VERTEX
  8
0
 10
67.5
 20
-60.0
 30
0.0
  0
VERTEX
  8
0
 10
67.5
 20
-55.0
 30
0.0
  0
VERTEX
  8
0
 10
67.5
 20
-50.0
 30
0.0
  0
SEQEND
  8
0
  0
POLYLINE
  8
0
 62
0
 70
1
 66
1
 10
0.0
 20
0.0
 30
0.0
  0
VERTEX
  8
0
 10
10.0
 20
-104.5
 30
0.0
  0
VERTEX
  8
0
 10
9.07283217621
 20
-100.294798899
 30
0.0
  0
VERTEX
  8
0
 10
6.18780427227
 20
-96.6443600968
 30
0.0
  0
VERTEX
  8
0
 10
2.08535180781
 20
-94.7198513387
 30
0.0
  0
VERTEX
  8
0
 10
-2.08535180781
 20
-94.7198513387
 30
0.0
  0
VERTEX
  8
0
 10
-6.18780427227
 20
-96.6443600968
 30
0.0
  0
VERTEX
  8
0
 10
-9.07283217621
 20
-100.294798899
 30
0.0
  0
VERTEX
  8
0
 10
-10.0
 20
-104.5
 30
0.0
  0
VERTEX
  8
0
 10
-5.0
 20
-104.5
 30
0.0
  0
VERTEX
  8
0
 10
0.0
 20
-104.5
 30
0.0
  0
VERTEX
  8
0
 10
5.0
 20
-104.5
 30
0.0
  0
SEQEND
  8
0
  0
ENDBLK
  0
BLOCK
  8
innerboard
  2
SKETCH002
 70
0
 10
0.0
 20
0.0
 30
0.0
  3
SKETCH002
  0
CIRCLE
  8
innerboard
 62
7
 10
-57.5
 20
90.5
 30
8.0
 40
1.5
  0
CIRCLE
  8
innerboard
 62
7
 10
57.5
 20
90.5
 30
8.0
 40
1.5
  0
CIRCLE
  8
innerboard
 62
7
 10
-57.5
 20
-90.5
 30
8.0
 40
1.5
  0
CIRCLE
  8
innerboard
 62
7
 10
57.5
 20
-90.5
 30
8.0
 40
1.5
  0
ENDBLK
  0
ENDSEC
  0
SECTION
  2
ENTITIES
  0
POLYLINE
  8
0
 62
0
 70
1
 66
1
 10
0.0
 20
0.0
 30
0.0
  0
VERTEX
  8
0
 10
-65.088645
 20
9.723082
 30
7.0
 42
-0.829993306533
  0
VERTEX
  8
0
 10
-65.088645
 20
-8.75519
 30
7.0
 42
0.360933729164
  0
VERTEX
  8
0
 10
-66.720224
 20
-10.720964
 30
7.0
  0
VERTEX
  8
0
 10
-66.720224
 20
-93.016054
 30
7.0
 42
0.414213562373
  0
VERTEX
  8
0
 10
-64.720227
 20
-95.016054
 30
7.0
  0
VERTEX
  8
0
 10
-57.520224
 20
-95.016054
 30
7.0
 42
-0.365977381863
  0
VERTEX
  8
0
 10
-48.251699
 20
-102.849388
 30
7.0
 42
0.365977381863
  0
VERTEX
  8
0
 10
-46.279671
 20
-104.516051
 30
7.0
  0
VERTEX
  8
0
 10
46.639225
 20
-104.516054
 30
7.0
 42
0.365977381863
  0
VERTEX
  8
0
 10
48.611251
 20
-102.849388
 30
7.0
 42
-0.365977381863
  0
VERTEX
  8
0
 10
57.879777
 20
-95.016054
 30
7.0
  0
VERTEX
  8
0
 10
65.079776
 20
-95.016054
 30
7.0
 42
0.414213562373
  0
VERTEX
  8
0
 10
67.079776
 20
-93.016058
 30
7.0
  0
VERTEX
  8
0
 10
67.079776
 20
-10.720964
 30
7.0
 42
0.360933729164
  0
VERTEX
  8
0
 10
65.448197
 20
-8.75519
 30
7.0
 42
-0.829993306533
  0
VERTEX
  8
0
 10
65.448197
 20
9.723082
 30
7.0
 42
0.360933729164
  0
VERTEX
  8
0
 10
67.079776
 20
11.688855
 30
7.0
  0
VERTEX
  8
0
 10
67.079776
 20
93.983946
 30
7.0
 42
0.414213562373
  0
VERTEX
  8
0
 10
65.07978
 20
95.983945
 30
7.0
  0
VERTEX
  8
0
 10
57.879776
 20
95.983946
 30
7.0
 42
-0.365977381863
  0
VERTEX
  8
0
 10
48.611251
 20
103.817279
 30
7.0
 42
0.365977381863
  0
VERTEX
  8
0
 10
46.639224
 20
105.483942
 30
7.0
  0
VERTEX
  8
0
 10
-46.279672
 20
105.483946
 30
7.0
 42
0.365977381863
  0
VERTEX
  8
0
 10
-48.251699
 20
103.817279
 30
7.0
 42
-0.365977381863
  0
VERTEX
  8
0
 10
-57.520224
 20
95.983946
 30
7.0
  0
VERTEX
  8
0
 10
-64.720224
 20
95.983946
 30
7.0
 42
0.414213562373
  0
VERTEX
  8
0
 10
-66.720224
 20
93.983949
 30
7.0
  0
VERTEX
  8
0
 10
-66.720224
 20
11.688855
 30
7.0
 42
0.360933729164
  0
SEQEND
  8
0
  0
INSERT
  2
BLOCK_SKETCH003
  8
0
 62
0
 10
0.0
 20
0.0
 30
0.0
  0
INSERT
  2
SKETCH002
  8
innerboard
 62
7
 10
0.0
 20
0.0
 30
0.0
  0
ENDSEC
  0
EOF
